<svg xmlns="http://www.w3.org/2000/svg" fill="none" viewBox="-0.5 -0.5 16 16" id="Add-Circle-Bold--Streamline-Ultimate.svg" height="16" width="16"><desc>Add Circle Bold Streamline Icon: https://streamlinehq.com</desc><path stroke="#ffffff" stroke-linecap="round" stroke-linejoin="round" d="M0.46875 7.5c0 1.8648124999999998 0.7407874999999999 3.65325 2.05940625 4.971875C3.84676875 13.7904375 5.635193750000001 14.53125 7.5 14.53125c1.8648124999999998 0 3.65325 -0.7408125 4.971875 -2.059375 1.3185625 -1.318625 2.059375 -3.1070625 2.059375 -4.971875 0 -1.86480625 -0.7408125 -3.65323125 -2.059375 -4.97184375C11.15325 1.2095375 9.364812500000001 0.46875 7.5 0.46875c-1.86480625 0 -3.65323125 0.7407874999999999 -4.97184375 2.05940625C1.2095375 3.84676875 0.46875 5.635193750000001 0.46875 7.5Z" stroke-width="1"></path><path stroke="#ffffff" stroke-linecap="round" stroke-linejoin="round" d="M10.78125 6.09375h-1.875v-1.875c0 -0.2486375 -0.09875 -0.48710000000000003 -0.27456250000000004 -0.6629125 -0.17581249999999998 -0.17581249999999998 -0.41431250000000003 -0.2745875 -0.6629375 -0.2745875h-0.9375c-0.24862499999999998 0 -0.487125 0.098775 -0.6629375 0.2745875 -0.1757875 0.17581249999999998 -0.27456250000000004 0.414275 -0.27456250000000004 0.6629125v1.875h-1.875c-0.2486375 0 -0.48710000000000003 0.098775 -0.6629125 0.27456250000000004 -0.17581249999999998 0.17581249999999998 -0.2745875 0.41431250000000003 -0.2745875 0.6629375v0.9375c0 0.24862499999999998 0.098775 0.487125 0.2745875 0.6629375s0.414275 0.27456250000000004 0.6629125 0.27456250000000004h1.875v1.875c0 0.24862499999999998 0.098775 0.487125 0.27456250000000004 0.6629375 0.17581249999999998 0.17581249999999998 0.41431250000000003 0.27456250000000004 0.6629375 0.27456250000000004h0.9375c0.24862499999999998 0 0.487125 -0.09875 0.6629375 -0.27456250000000004s0.27456250000000004 -0.41431250000000003 0.27456250000000004 -0.6629375v-1.875h1.875c0.24862499999999998 0 0.487125 -0.09875 0.6629375 -0.27456250000000004s0.27456250000000004 -0.41431250000000003 0.27456250000000004 -0.6629375v-0.9375c0 -0.24862499999999998 -0.09875 -0.487125 -0.27456250000000004 -0.6629375 -0.17581249999999998 -0.1757875 -0.41431250000000003 -0.27456250000000004 -0.6629375 -0.27456250000000004Z" stroke-width="1"></path></svg>