<svg xmlns="http://www.w3.org/2000/svg" fill="none" viewBox="-0.5 -0.5 16 16" id="Alarm-Bell-Ring--Streamline-Ultimate.svg" height="16" width="16"><desc>Alarm Bell Ring Streamline Icon: https://streamlinehq.com</desc><path stroke="#ffffff" stroke-linecap="round" stroke-linejoin="round" d="M4.258743750000001 2.6662437500000005c-0.6488625000000001 0.36031874999999997 -1.18369375 0.8953625 -1.5437500000000002 1.544375" stroke-width="1"></path><path stroke="#ffffff" stroke-linecap="round" stroke-linejoin="round" d="M3.734375 0.9375c-0.6659375 0.1893375 -1.2724437499999999 0.545725 -1.7619375000000002 1.03533125C1.4829375 2.4624375 1.1266875 3.0690187499999997 0.9375 3.735" stroke-width="1"></path><path stroke="#ffffff" stroke-linecap="round" stroke-linejoin="round" d="M2.8125 11.25h9.375" stroke-width="1"></path><path stroke="#ffffff" stroke-linecap="round" stroke-linejoin="round" d="M12.1875 11.25S11.25 10.43375 11.25 7.5c0 -2.34374375 -1.6012499999999998 -4.41749375 -3.75 -4.41749375S3.75 5.15625625 3.75 7.5c0 2.9493750000000003 -0.9375 3.75 -0.9375 3.75" stroke-width="1"></path><path stroke="#ffffff" stroke-linecap="round" stroke-linejoin="round" d="M8.4375 13.125c0 0.24862499999999998 -0.09875 0.487125 -0.27456250000000004 0.6629375S7.7486250000000005 14.0625 7.5 14.0625c-0.24862499999999998 0 -0.487125 -0.09875 -0.6629375 -0.27456250000000004S6.5625 13.373625 6.5625 13.125" stroke-width="1"></path><path stroke="#ffffff" stroke-linecap="round" stroke-linejoin="round" d="M7.5 3.0825000000000005V1.875" stroke-width="1"></path><path stroke="#ffffff" stroke-linecap="round" stroke-linejoin="round" d="M10.74125 2.6662437500000005c0.3223125 0.17995625 0.618375 0.40328749999999997 0.8799999999999999 0.6637500000000001 0.26087499999999997 0.26144375000000003 0.48425 0.5578062500000001 0.6637500000000001 0.880625" stroke-width="1"></path><path stroke="#ffffff" stroke-linecap="round" stroke-linejoin="round" d="M11.265625 0.9375c0.6659375 0.1893375 1.2724374999999999 0.545725 1.7619375000000002 1.03533125 0.4895 0.48960625 0.84575 1.0961875 1.0349374999999998 1.7621687499999998" stroke-width="1"></path></svg>