<svg xmlns="http://www.w3.org/2000/svg" fill="none" viewBox="-0.5 -0.5 16 16" id="Alert-Bell-Notification-2--Streamline-Ultimate.svg" height="16" width="16"><desc>Alert Bell Notification 2 Streamline Icon: https://streamlinehq.com</desc><path stroke="#ffffff" stroke-linecap="round" stroke-linejoin="round" d="M9.921875 3.64189375c0 0.49728125 0.1975625 0.97419375 0.5491875 1.325825 0.35162499999999997 0.35163125000000006 0.8285625000000001 0.549175 1.3258125 0.549175 0.49724999999999997 0 0.9741875 -0.19754375000000002 1.3258125 -0.549175 0.35162499999999997 -0.35163125000000006 0.5491875 -0.8285437499999999 0.5491875 -1.325825s-0.1975625 -0.97419375 -0.5491875 -1.325825c-0.35162499999999997 -0.35163125000000006 -0.8285625000000001 -0.549175 -1.3258125 -0.549175 -0.49724999999999997 0 -0.9741875 0.19754375000000002 -1.3258125 0.549175 -0.35162499999999997 0.35163125000000006 -0.5491875 0.8285437499999999 -0.5491875 1.325825Z" stroke-width="1"></path><path stroke="#ffffff" stroke-linecap="round" stroke-linejoin="round" d="M5.703125 13.59375c0.0793875 0.2704375 0.244225 0.507875 0.46984375 0.67675 0.22559374999999998 0.1689375 0.49990625 0.26025 0.78171875 0.26025 0.2818125 0 0.556125 -0.0913125 0.7816875 -0.26025 0.225625 -0.168875 0.3905 -0.4063125 0.46987500000000004 -0.67675" stroke-width="1"></path><path stroke="#ffffff" stroke-linecap="round" stroke-linejoin="round" d="M6.953125 1.875V0.46875" stroke-width="1"></path><path stroke="#ffffff" stroke-linecap="round" stroke-linejoin="round" d="M11.655 7.475625c0.11812500000000001 3.5975 0.9231250000000001 4.243125 0.9231250000000001 4.243125h-11.25s0.9375 -1.1975 0.9375 -5.15625c0.0006999999999999999 -0.7343812500000001 0.17376875 -1.45831875 0.505275 -2.1135875 0.33150625 -0.65526875 0.8122 -1.2235749999999999 1.4033937499999998 -1.65919375 0.5912 -0.4356125 1.27639375 -0.726375 2.00045625 -0.8488875 0.7240625 -0.1225125 1.46675 -0.07335625 2.1683749999999997 0.14351875" stroke-width="1"></path></svg>