<svg xmlns="http://www.w3.org/2000/svg" fill="none" viewBox="-0.5 -0.5 16 16" id="Alert-Octagon-1--Streamline-Ultimate.svg" height="16" width="16"><desc>Alert Octagon 1 Streamline Icon: https://streamlinehq.com</desc><path stroke="#ffffff" stroke-linecap="round" stroke-linejoin="round" stroke-miterlimit="10" d="M10.40625 0.500030625h-5.8125L0.46875 4.56253125v5.87503125l4.125 4.0625h5.8125l4.125 -4.0625V4.56253125L10.40625 0.500030625Z" stroke-width="1"></path><path stroke="#ffffff" stroke-linecap="round" stroke-linejoin="round" stroke-miterlimit="10" d="M7.46875 11.5625c0.51775 0 0.9375 -0.4196875 0.9375 -0.9375 0 -0.51775 -0.41974999999999996 -0.9375 -0.9375 -0.9375 -0.5178125 0 -0.9375 0.41974999999999996 -0.9375 0.9375 0 0.5178125 0.4196875 0.9375 0.9375 0.9375Z" stroke-width="1"></path><path stroke="#ffffff" stroke-linecap="round" stroke-linejoin="round" stroke-miterlimit="10" d="M8.71875 4.375c0 0.6875 -1.25 3.4375 -1.25 3.4375S6.21871875 5.0625 6.21871875 4.375c0 -0.6875 0.56253125 -1.25 1.25003125 -1.25 0.6875 0 1.25 0.5625 1.25 1.25Z" stroke-width="1"></path></svg>