<svg xmlns="http://www.w3.org/2000/svg" fill="none" viewBox="-0.5 -0.5 16 16" id="Arrange-Number-Descending--Streamline-Ultimate.svg" height="16" width="16"><desc>Arrange Number Descending Streamline Icon: https://streamlinehq.com</desc><path stroke="#ffffff" stroke-linecap="round" stroke-linejoin="round" d="M10.37125 3.28125c0.1846875 0 0.3675 -0.036375000000000005 0.538125 -0.10704375000000001s0.3256875 -0.17425625 0.45625 -0.3048375c0.1305625 -0.13058125 0.2341875 -0.28560625 0.30481250000000004 -0.45621875 0.0706875 -0.1706125 0.1070625 -0.35348125 0.1070625 -0.53815s-0.036375000000000005 -0.3675375 -0.1070625 -0.53815c-0.07062500000000001 -0.1706125 -0.17425 -0.3256375 -0.30481250000000004 -0.45621875 -0.1305625 -0.13058125 -0.285625 -0.23416875 -0.45625 -0.304836875C10.73875 0.50512375 10.5559375 0.46875 10.37125 0.46875c-0.37293750000000003 0 -0.7306250000000001 0.148158125 -0.994375 0.41188125 -0.26375 0.263725 -0.411875 0.6214062499999999 -0.411875 0.9943687499999999 0 0.37296250000000003 0.148125 0.73064375 0.411875 0.9943687499999999 0.26375 0.263725 0.6214375 0.41188125 0.994375 0.41188125Z" stroke-width="1"></path><path stroke="#ffffff" stroke-linecap="round" stroke-linejoin="round" d="M9.9025 6.09371875c0.49724999999999997 0 0.9741875 -0.19754375000000002 1.3258125 -0.549175 0.35162499999999997 -0.35163125000000006 0.5491875 -0.8285437499999999 0.5491875 -1.325825v-2.3425000000000002" stroke-width="1"></path><path stroke="#ffffff" stroke-linecap="round" stroke-linejoin="round" d="M9.0825 14.528749999999999h3.5149999999999997" stroke-width="1"></path><path stroke="#ffffff" stroke-linecap="round" stroke-linejoin="round" d="M10.84 14.5300625v-5.2725c0.000125 -0.0661875 -0.0184375 -0.131125 -0.053625 -0.1871875 -0.035187500000000003 -0.056125 -0.0855 -0.10118749999999999 -0.145125 -0.1299375 -0.059625 -0.0286875 -0.1261875 -0.04 -0.19199999999999998 -0.0325625 -0.0658125 0.0074375000000000005 -0.1281875 0.0333125 -0.179875 0.07468749999999999l-1.1875 0.9481249999999999" stroke-width="1"></path><path stroke="#ffffff" stroke-linecap="round" stroke-linejoin="round" d="M4.27749375 2.8125v9.375" stroke-width="1"></path><path stroke="#ffffff" stroke-linecap="round" stroke-linejoin="round" d="m2.4024937499999997 10.3125 1.875 1.875 1.875 -1.875" stroke-width="1"></path></svg>