<svg xmlns="http://www.w3.org/2000/svg" fill="none" viewBox="-0.5 -0.5 16 16" id="Arrange-Letter--Streamline-Ultimate.svg" height="16" width="16"><desc>Arrange Letter Streamline Icon: https://streamlinehq.com</desc><path stroke="#ffffff" stroke-linecap="round" stroke-linejoin="round" d="M5.15625 14.530000000000001V0.467529375" stroke-width="1"></path><path stroke="#ffffff" stroke-linecap="round" stroke-linejoin="round" d="m2.34375 11.717500000000001 2.8125 2.8125 2.8125 -2.8125" stroke-width="1"></path><path stroke="#ffffff" stroke-linecap="round" stroke-linejoin="round" d="M9.84375 8.905h2.25c0.0919375 0 0.1824375 0.0225 0.2636875 0.0655625 0.0811875 0.043062500000000004 0.150625 0.105375 0.20218750000000002 0.1815 0.051562500000000004 0.0760625 0.0836875 0.163625 0.09356249999999999 0.2550625 0.009875000000000002 0.091375 -0.0028125 0.1838125 -0.0369375 0.269125l-2.7325 4.081875c-0.03425 0.0854375 -0.047 0.1779375 -0.0371875 0.269375 0.009812499999999998 0.0915 0.041875 0.1791875 0.09343749999999999 0.255375 0.051562500000000004 0.07618749999999999 0.1210625 0.1385625 0.20237499999999997 0.181625 0.08125 0.043125000000000004 0.171875 0.065625 0.263875 0.0655h2.25" stroke-width="1"></path><path stroke="#ffffff" stroke-linecap="round" stroke-linejoin="round" d="M12.65625 6.092499999999999V1.875c0 -0.37296250000000003 -0.1481875 -0.73064375 -0.411875 -0.9943687499999999C11.980625 0.6169081249999999 11.622937499999999 0.46875 11.25 0.46875s-0.7306250000000001 0.148158125 -0.994375 0.41188125c-0.2636875 0.263725 -0.411875 0.6214062499999999 -0.411875 0.9943687499999999v4.21875" stroke-width="1"></path><path stroke="#ffffff" stroke-linecap="round" stroke-linejoin="round" d="M9.84375 4.21753125h2.8125" stroke-width="1"></path></svg>