<svg xmlns="http://www.w3.org/2000/svg" fill="none" viewBox="-0.5 -0.5 16 16" id="Attachment--Streamline-Ultimate.svg" height="16" width="16"><desc>Attachment Streamline Icon: https://streamlinehq.com</desc><path stroke="#ffffff" stroke-linecap="round" stroke-linejoin="round" d="M14.53125 6.18751875 7.670624999999999 13.04875c-0.7911875 0.7911875 -1.8642500000000002 1.2356875 -2.9831374999999998 1.2356875 -1.1188875 0 -2.19195 -0.4445 -2.983125 -1.2356875C0.9131875 12.257625 0.468711875 11.184562499999998 0.468711875 10.065625c0 -1.118875 0.44447562500000004 -2.1919375 1.2356506250000001 -2.983125L7.339375 1.4481437499999998c0.2594375 -0.26861875 0.56975 -0.48288125000000004 0.9129375000000001 -0.63028125 0.343125 -0.1474 0.7121875 -0.22498812499999998 1.085625 -0.228233125 0.37343750000000003 -0.0032449999999999996 0.7437499999999999 0.067914375 1.0894375 0.20933312499999998 0.345625 0.1414125 0.6596249999999999 0.35025 0.92375 0.614325 0.2640625 0.26406875 0.47287500000000005 0.5780937500000001 0.6143125 0.9237375000000001 0.141375 0.34564375 0.21256250000000002 0.7159937500000001 0.20931249999999998 1.0894375 -0.00325 0.37344374999999996 -0.0808125 0.7424999999999999 -0.22825 1.08563125 -0.147375 0.3431375 -0.361625 0.65348125 -0.63025 0.912925L5.6818625 11.0625c-0.26518125 0.25625 -0.62038125 0.398 -0.9890937499999999 0.39487500000000003 -0.36871875 -0.003125 -0.7214437499999999 -0.151 -0.98221875 -0.4116875 -0.26076875 -0.2606875 -0.40871875 -0.613375 -0.41198125 -0.9820625 -0.0032624999999999998 -0.36874999999999997 0.13842500000000002 -0.7239375000000001 0.39454374999999997 -0.98925L9.328125 3.4375187499999997" stroke-width="1"></path></svg>