<svg xmlns="http://www.w3.org/2000/svg" fill="none" viewBox="-0.5 -0.5 16 16" id="Bin-1--Streamline-Ultimate.svg" height="16" width="16"><desc>Bin 1 Streamline Icon: https://streamlinehq.com</desc><path stroke="#ffffff" stroke-linecap="round" stroke-linejoin="round" d="M0.625 3.125h13.75" stroke-width="1"></path><path stroke="#ffffff" stroke-linecap="round" stroke-linejoin="round" d="M8.90625 0.625h-2.8125c-0.2486375 0 -0.48710000000000003 0.098775 -0.6629125 0.2745875C5.255025 1.0754 5.15625 1.3138625000000002 5.15625 1.5625V3.125h4.6875V1.5625c0 -0.2486375 -0.09875 -0.48710000000000003 -0.27456250000000004 -0.6629125C9.393375 0.723775 9.154875 0.625 8.90625 0.625Z" stroke-width="1"></path><path stroke="#ffffff" stroke-linecap="round" stroke-linejoin="round" d="M6.09375 11.09375v-4.6875" stroke-width="1"></path><path stroke="#ffffff" stroke-linecap="round" stroke-linejoin="round" d="M8.90625 11.09375v-4.6875" stroke-width="1"></path><path stroke="#ffffff" stroke-linecap="round" stroke-linejoin="round" d="M11.7875 13.512500000000001c-0.017374999999999998 0.234875 -0.12312500000000001 0.4544375 -0.29593749999999996 0.6144999999999999 -0.17275 0.16 -0.3998125 0.24862499999999998 -0.6353125 0.248H4.14375c-0.23551875 0.000625 -0.46253750000000005 -0.08800000000000001 -0.6353312499999999 -0.248 -0.17279375 -0.1600625 -0.27853125 -0.37962500000000005 -0.29591875 -0.6144999999999999L2.34375 3.125h10.3125l-0.8687499999999999 10.387500000000001Z" stroke-width="1"></path></svg>