<svg xmlns="http://www.w3.org/2000/svg" fill="none" viewBox="-0.5 -0.5 16 16" id="Binocular--Streamline-Ultimate.svg" height="16" width="16"><desc>Binocular Streamline Icon: https://streamlinehq.com</desc><path stroke="#ffffff" stroke-linecap="round" stroke-linejoin="round" d="M0.46875 11.25c0 0.3693125 0.07274749999999999 0.7350625 0.21408750000000001 1.0763125 0.14134375 0.34118750000000003 0.3485125 0.65125 0.609675 0.9124375 0.2611625 0.261125 0.5712125 0.46831249999999996 0.9124375 0.6096875 0.34123125 0.1413125 0.70695625 0.21406250000000002 1.0763 0.21406250000000002 0.36934374999999997 0 0.7350687499999999 -0.07275000000000001 1.0763 -0.21406250000000002 0.341225 -0.141375 0.651275 -0.3485625 0.9124375 -0.6096875 0.2611625 -0.2611875 0.46833125000000003 -0.57125 0.609675 -0.9124375C6.021 11.985062500000002 6.09375 11.619312500000001 6.09375 11.25s-0.07275000000000001 -0.7350625 -0.21408750000000001 -1.0763125c-0.14134375 -0.34118750000000003 -0.3485125 -0.65125 -0.609675 -0.9124375 -0.2611625 -0.261125 -0.5712125 -0.46831249999999996 -0.9124375 -0.6096875C4.01631875 8.510250000000001 3.65059375 8.4375 3.28125 8.4375c-0.36934374999999997 0 -0.7350687499999999 0.07275000000000001 -1.0763 0.21406250000000002 -0.341225 0.141375 -0.651275 0.3485625 -0.9124375 0.6096875 -0.2611625 0.2611875 -0.46833125000000003 0.57125 -0.609675 0.9124375C0.5414975000000001 10.514937499999998 0.46875 10.880687499999999 0.46875 11.25Z" stroke-width="1"></path><path stroke="#ffffff" stroke-linecap="round" stroke-linejoin="round" d="M6.09375625 11.2500625V2.57815625c0.0005812500000000001 -0.3973 -0.14303125 -0.7813125 -0.40416874999999997 -1.0807375 -0.26113125000000004 -0.299425 -0.62205 -0.49391875 -1.0157375 -0.54736875 -0.39369374999999995 -0.05344375 -0.7933999999999999 0.037781249999999995 -1.12491875 0.25674375 -0.3315125 0.21896875 -0.57230625 0.55079375 -0.6776749999999999 0.9338625L0.569381875 10.5031875" stroke-width="1"></path><path stroke="#ffffff" stroke-linecap="round" stroke-linejoin="round" d="M8.90625 11.25c0 0.3693125 0.07275000000000001 0.7350625 0.21406250000000002 1.0763125 0.141375 0.34118750000000003 0.3485625 0.65125 0.6096875 0.9124375 0.2611875 0.261125 0.57125 0.46831249999999996 0.9124375 0.6096875 0.34125000000000005 0.1413125 0.707 0.21406250000000002 1.0763125 0.21406250000000002s0.7350625 -0.07275000000000001 1.0763125 -0.21406250000000002c0.34118750000000003 -0.141375 0.65125 -0.3485625 0.9124375 -0.6096875 0.261125 -0.2611875 0.46831249999999996 -0.57125 0.6096875 -0.9124375 0.1413125 -0.34125000000000005 0.21406250000000002 -0.707 0.21406250000000002 -1.0763125s-0.07275000000000001 -0.7350625 -0.21406250000000002 -1.0763125c-0.141375 -0.34118750000000003 -0.3485625 -0.65125 -0.6096875 -0.9124375 -0.2611875 -0.261125 -0.57125 -0.46831249999999996 -0.9124375 -0.6096875 -0.34125000000000005 -0.1413125 -0.707 -0.21406250000000002 -1.0763125 -0.21406250000000002s-0.7350625 0.07275000000000001 -1.0763125 0.21406250000000002c-0.34118750000000003 0.141375 -0.65125 0.3485625 -0.9124375 0.6096875 -0.261125 0.2611875 -0.46831249999999996 0.57125 -0.6096875 0.9124375 -0.1413125 0.34125000000000005 -0.21406250000000002 0.707 -0.21406250000000002 1.0763125Z" stroke-width="1"></path><path stroke="#ffffff" stroke-linecap="round" stroke-linejoin="round" d="M8.90625 11.2500625V2.57815625c-0.0005625 -0.3973 0.14306249999999998 -0.7813125 0.40418750000000003 -1.0807375 0.261125 -0.299425 0.6220625 -0.49391875 1.01575 -0.54736875 0.3936875 -0.05344375 0.793375 0.037781249999999995 1.124875 0.25674375 0.3315 0.21896875 0.5723125 0.55079375 0.6776875 0.9338625l2.301875 8.36065625" stroke-width="1"></path><path stroke="#ffffff" stroke-linecap="round" stroke-linejoin="round" d="M6.09375 5.625h2.8125v1.875h-2.8125V5.625Z" stroke-width="1"></path></svg>