<svg xmlns="http://www.w3.org/2000/svg" fill="none" viewBox="-0.5 -0.5 16 16" id="Bookmarks-Document--Streamline-Ultimate.svg" height="16" width="16"><desc>Bookmarks Document Streamline Icon: https://streamlinehq.com</desc><path stroke="#ffffff" stroke-linecap="round" stroke-linejoin="round" d="M3.28125 1.4056374999999999h-1.875c-0.2486375 0 -0.48710000000000003 0.098775 -0.6629125 0.2745875C0.5675218750000001 1.85604375 0.46875 2.0945 0.46875 2.3431375V13.593124999999999c0 0.24862499999999998 0.09877187500000001 0.487125 0.2745875 0.6629375 0.17581249999999998 0.17581249999999998 0.414275 0.27456250000000004 0.6629125 0.27456250000000004h12.1875c0.24862499999999998 0 0.487125 -0.09875 0.6629375 -0.27456250000000004s0.27456250000000004 -0.41431250000000003 0.27456250000000004 -0.6629375V2.3431375c0 -0.2486375 -0.09875 -0.48709375 -0.27456250000000004 -0.6629125 -0.17581249999999998 -0.17581249999999998 -0.41431250000000003 -0.2745875 -0.6629375 -0.2745875h-6.5625" stroke-width="1"></path><path stroke="#ffffff" stroke-linecap="round" stroke-linejoin="round" d="m7.03125 7.030625000000001 -1.875 -1.4056125 -1.875 1.4062375V0.9375125c-0.00008125 -0.06160625 0.011981249999999999 -0.12263125 0.035500000000000004 -0.179575 0.023525 -0.05694375 0.0580375 -0.10868749999999999 0.101575 -0.15228312500000002 0.04353125 -0.04359375 0.09523749999999999 -0.0781775 0.15215 -0.10177375000000001C3.6273875 0.480285 3.6883937500000004 0.468139375 3.75 0.468139375h2.8125c0.12431249999999999 0 0.2435625 0.04938625000000001 0.3314375 0.13729375 0.0879375 0.087910625 0.1373125 0.20713562500000002 0.1373125 0.33145437499999997V7.030625000000001Z" stroke-width="1"></path><path stroke="#ffffff" stroke-linecap="round" stroke-linejoin="round" d="M3.28125 11.718124999999999h6.5625" stroke-width="1"></path><path stroke="#ffffff" stroke-linecap="round" stroke-linejoin="round" d="M3.28125 8.905625h8.4375" stroke-width="1"></path><path stroke="#ffffff" stroke-linecap="round" stroke-linejoin="round" d="M11.71875 6.0931375h-2.8125" stroke-width="1"></path></svg>