<svg xmlns="http://www.w3.org/2000/svg" fill="none" viewBox="-0.5 -0.5 16 16" id="Brightness--Streamline-Ultimate.svg" height="16" width="16"><desc>Brightness Streamline Icon: https://streamlinehq.com</desc><path stroke="#ffffff" stroke-linecap="round" stroke-linejoin="round" d="M4.6881125 7.5c0 0.7459375 0.29631250000000003 1.4613125 0.8237625 1.98875 0.52744375 0.5274375 1.2428124999999999 0.82375 1.98875 0.82375s1.4612500000000002 -0.29631250000000003 1.98875 -0.82375c0.5274375 -0.5274375 0.82375 -1.2428124999999999 0.82375 -1.98875 0 -0.3693125 -0.07275000000000001 -0.7350625 -0.214125 -1.0763125 -0.1413125 -0.3412125 -0.3485 -0.6512625 -0.6096250000000001 -0.912425 -0.2611875 -0.2611625 -0.57125 -0.46833125000000003 -0.9124375 -0.609675C8.2356875 4.76025 7.869937500000001 4.6875 7.500624999999999 4.6875c-0.369375 0 -0.7350625 0.07275000000000001 -1.0763125 0.21408750000000001 -0.341225 0.14134375 -0.651275 0.3485125 -0.9124375 0.609675 -0.26116875 0.2611625 -0.4683375 0.5712125 -0.609675 0.912425 -0.14134375 0.34125000000000005 -0.21408750000000001 0.707 -0.21408750000000001 1.0763125Z" stroke-width="1"></path><path stroke="#ffffff" stroke-linecap="round" stroke-linejoin="round" d="M7.500624999999999 0.9375v1.875" stroke-width="1"></path><path stroke="#ffffff" stroke-linecap="round" stroke-linejoin="round" d="M7.500624999999999 12.1875v1.875" stroke-width="1"></path><path stroke="#ffffff" stroke-linecap="round" stroke-linejoin="round" d="M14.063125000000001 7.5h-1.875" stroke-width="1"></path><path stroke="#ffffff" stroke-linecap="round" stroke-linejoin="round" d="M2.8131125 7.5h-1.875" stroke-width="1"></path><path stroke="#ffffff" stroke-linecap="round" stroke-linejoin="round" d="m12.140625 2.8600312500000005 -1.325625 1.325625" stroke-width="1"></path><path stroke="#ffffff" stroke-linecap="round" stroke-linejoin="round" d="m4.185618750000001 10.815 -1.325625 1.325625" stroke-width="1"></path><path stroke="#ffffff" stroke-linecap="round" stroke-linejoin="round" d="m12.140625 12.140625 -1.325625 -1.325625" stroke-width="1"></path><path stroke="#ffffff" stroke-linecap="round" stroke-linejoin="round" d="m4.185618750000001 4.18565625 -1.325625 -1.325625" stroke-width="1"></path></svg>