<svg xmlns="http://www.w3.org/2000/svg" fill="none" viewBox="-0.5 -0.5 16 16" id="Button-Zigzag-1--Streamline-Ultimate.svg" height="16" width="16"><desc>Button Zigzag 1 Streamline Icon: https://streamlinehq.com</desc><path stroke="#ffffff" stroke-linecap="round" stroke-linejoin="round" d="M2.8125 13.592500000000001V2.8125c0 -0.6216 0.24693125 -1.2177437500000001 0.68646875 -1.65728125S4.53465 0.46875 5.15625 0.46875c0.6216 0 1.2177499999999999 0.24693125 1.6573125 0.68646875C7.2530625 1.59475625 7.5 2.1909 7.5 2.8125v9.375c0 0.621625 0.2469375 1.2177499999999999 0.6864375 1.6573125 0.4395625 0.4395 1.0356875 0.6864375 1.6573125 0.6864375 0.621625 0 1.2177499999999999 -0.2469375 1.6573125 -0.6864375 0.4395 -0.4395625 0.6864375 -1.0356875 0.6864375 -1.6573125V1.4050000000000002" stroke-width="1"></path><path stroke="#ffffff" stroke-linecap="round" stroke-linejoin="round" d="m9.84375 3.74878125 2.34375 -2.34375 2.34375 2.34375" stroke-width="1"></path><path stroke="#ffffff" stroke-linecap="round" stroke-linejoin="round" d="m5.15625 11.248750000000001 -2.34375 2.34375 -2.34375 -2.34375" stroke-width="1"></path></svg>