<svg xmlns="http://www.w3.org/2000/svg" fill="none" viewBox="-0.5 -0.5 16 16" id="Button-Play--Streamline-Ultimate.svg" height="16" width="16"><desc>Button Play Streamline Icon: https://streamlinehq.com</desc><path stroke="#ffffff" stroke-linecap="round" stroke-linejoin="round" d="M0.46875 7.498749999999999c0 1.8648124999999998 0.7407874999999999 3.65325 2.05940625 4.971875C3.84676875 13.78925 5.635193750000001 14.530000000000001 7.5 14.530000000000001c1.8648124999999998 0 3.65325 -0.74075 4.971875 -2.059375 1.3185625 -1.318625 2.059375 -3.1070625 2.059375 -4.971875 0 -1.8647749999999998 -0.7408125 -3.6532 -2.059375 -4.9718125C11.15325 1.20831875 9.364812500000001 0.467529375 7.5 0.467529375c-1.86480625 0 -3.65323125 0.740789375 -4.97184375 2.059408125C1.2095375 3.84555 0.46875 5.6339749999999995 0.46875 7.498749999999999Z" stroke-width="1"></path><path stroke="#ffffff" stroke-linecap="round" stroke-linejoin="round" d="M5.625 9.758125c0.0001625 0.19625 0.056812499999999995 0.38837499999999997 0.16318749999999999 0.5533125 0.10636875000000001 0.16493750000000001 0.25796875 0.2958125 0.4366875 0.3769375 0.17875 0.081125 0.377 0.10906249999999999 0.5711875000000001 0.0805625 0.19418749999999999 -0.028562499999999998 0.3760625 -0.1123125 0.5239375000000001 -0.24143749999999997L10.78125 7.5l-3.46125 -3.0293687499999997c-0.14775 -0.1293625 -0.32968749999999997 -0.21340625 -0.5239375000000001 -0.24207499999999998 -0.1943125 -0.028675 -0.39275 -0.0007499999999999999 -0.57155 0.08041875000000001 -0.17882499999999998 0.081175 -0.330475 0.21215625 -0.43679999999999997 0.37726875 -0.10631875 0.16511874999999998 -0.1628125 0.357375 -0.1627125 0.5537625V9.758125Z" stroke-width="1"></path></svg>