<svg xmlns="http://www.w3.org/2000/svg" fill="none" viewBox="-0.5 -0.5 16 16" id="Button-Fast-Forward-1--Streamline-Ultimate.svg" height="16" width="16"><desc>Button Fast Forward 1 Streamline Icon: https://streamlinehq.com</desc><path stroke="#ffffff" stroke-linecap="round" stroke-linejoin="round" d="M0.46875 7.5c0 1.8648124999999998 0.7407874999999999 3.65325 2.05940625 4.971875C3.84676875 13.7904375 5.635193750000001 14.53125 7.5 14.53125c1.8648124999999998 0 3.65325 -0.7408125 4.971875 -2.059375 1.3185625 -1.318625 2.059375 -3.1070625 2.059375 -4.971875 0 -1.86480625 -0.7408125 -3.65323125 -2.059375 -4.97184375C11.15325 1.2095375 9.364812500000001 0.46875 7.5 0.46875c-1.86480625 0 -3.65323125 0.7407874999999999 -4.97184375 2.05940625C1.2095375 3.84676875 0.46875 5.635193750000001 0.46875 7.5Z" stroke-width="1"></path><path stroke="#ffffff" stroke-linecap="round" stroke-linejoin="round" d="M9.200000000000001 5c-0.1896875 -0.18309375 -0.44262500000000005 -0.28605625 -0.7062499999999999 -0.28750000000000003 -0.2593125 -0.00008125 -0.5083125000000001 0.101175 -0.6940000000000001 0.28216874999999997 -0.18562499999999998 0.18099375 -0.29325 0.42738125000000005 -0.29975 0.68658125v0.88125L5.91875 5c-0.18566875 -0.1922625 -0.43909375 -0.3044 -0.7062499999999999 -0.3125 -0.26355625 0 -0.5163249999999999 0.1047 -0.7026875 0.2910625 -0.1863625 0.1863625 -0.2910625 0.43913125 -0.2910625 0.7026875v3.6375c0 0.26356250000000003 0.1047 0.5163125 0.2910625 0.7026875 0.1863625 0.186375 0.43913125 0.2910625 0.7026875 0.2910625 0.1325 -0.0029999999999999996 0.2631 -0.0321875 0.3843 -0.0858125 0.1212 -0.053625 0.2306125 -0.130625 0.32195 -0.22668750000000001L7.5 8.4375v0.88125c0 0.26356250000000003 0.1046875 0.5163125 0.2910625 0.7026875 0.186375 0.186375 0.439125 0.2910625 0.7026875 0.2910625 0.1325 -0.0029999999999999996 0.263125 -0.0321875 0.3843125 -0.0858125 0.12118749999999999 -0.053625 0.230625 -0.130625 0.3219375 -0.22668750000000001L11.25 7.9437500000000005c0.0585625 -0.058124999999999996 0.1050625 -0.12725 0.1368125 -0.20337500000000003 0.03175 -0.07618749999999999 0.048062499999999994 -0.157875 0.048062499999999994 -0.240375s-0.0163125 -0.1641875 -0.048062499999999994 -0.240375c-0.03175 -0.076125 -0.07825 -0.14525 -0.1368125 -0.20337500000000003L9.200000000000001 5Z" stroke-width="1"></path></svg>