<svg xmlns="http://www.w3.org/2000/svg" fill="none" viewBox="-0.5 -0.5 16 16" id="Calendar-Edit-1--Streamline-Ultimate.svg" height="16" width="16"><desc>Calendar Edit 1 Streamline Icon: https://streamlinehq.com</desc><path stroke="#ffffff" stroke-linecap="round" stroke-linejoin="round" d="M14.143749999999999 9.241249999999999 9.375 14.01l-2.34375 0.46875 0.46875 -2.34375 4.76875 -4.76875c0.248 -0.2479375 0.5843125 -0.3871875 0.935 -0.3871875s0.6869999999999999 0.13924999999999998 0.935 0.3871875l0.005 0.005c0.1229375 0.12275 0.2204375 0.26849999999999996 0.2869375 0.4289375 0.0665625 0.16043749999999998 0.1008125 0.33237500000000003 0.1008125 0.5060625 0 0.1736875 -0.03425 0.34568750000000004 -0.1008125 0.5061249999999999 -0.0665 0.16043749999999998 -0.164 0.3061875 -0.2869375 0.428875Z" stroke-width="1"></path><path stroke="#ffffff" stroke-linecap="round" stroke-linejoin="round" d="M5.625 10.78125H1.40625c-0.2486375 0 -0.48710000000000003 -0.09875 -0.6629125 -0.27456250000000004C0.5675218750000001 10.330874999999999 0.46875 10.092375 0.46875 9.84375V2.35313125c0 -0.2486375 0.09877187500000001 -0.48709375 0.2745875 -0.6629125 0.17581249999999998 -0.17581249999999998 0.414275 -0.2745875 0.6629125 -0.2745875h8.4375c0.24862499999999998 0 0.487125 0.098775 0.6629375 0.2745875 0.17581249999999998 0.17581875 0.27456250000000004 0.414275 0.27456250000000004 0.6629125v2.803125" stroke-width="1"></path><path stroke="#ffffff" stroke-linejoin="round" d="M0.46875 4.21875h10.3125" stroke-width="1"></path><path stroke="#ffffff" stroke-linecap="round" stroke-linejoin="round" d="M3.2768625 2.34375v-1.875" stroke-width="1"></path><path stroke="#ffffff" stroke-linecap="round" stroke-linejoin="round" d="M7.964375 2.34375v-1.875" stroke-width="1"></path></svg>