<svg xmlns="http://www.w3.org/2000/svg" fill="none" viewBox="-0.5 -0.5 16 16" id="Calendar-3--Streamline-Ultimate.svg" height="16" width="16"><desc>Calendar 3 Streamline Icon: https://streamlinehq.com</desc><path stroke="#ffffff" stroke-linecap="round" stroke-linejoin="round" d="M13.59375 2.34375H1.40625c-0.51776875 0 -0.9375 0.41973125 -0.9375 0.9375v10.3125c0 0.51775 0.41973125 0.9375 0.9375 0.9375h12.1875c0.51775 0 0.9375 -0.41974999999999996 0.9375 -0.9375V3.28125c0 -0.51776875 -0.41974999999999996 -0.9375 -0.9375 -0.9375Z" stroke-width="1"></path><path stroke="#ffffff" stroke-linecap="round" stroke-linejoin="round" d="M0.46875 6.09375h14.0625" stroke-width="1"></path><path stroke="#ffffff" stroke-linecap="round" stroke-linejoin="round" d="M4.21875 3.75V0.46875" stroke-width="1"></path><path stroke="#ffffff" stroke-linecap="round" stroke-linejoin="round" d="M10.78125 3.75V0.46875" stroke-width="1"></path><path stroke="#ffffff" d="M3.515625 8.90625c-0.12944375 0 -0.234375 -0.10493749999999999 -0.234375 -0.234375s0.10493125 -0.234375 0.234375 -0.234375" stroke-width="1"></path><path stroke="#ffffff" d="M3.515625 8.90625c0.12944375 0 0.234375 -0.10493749999999999 0.234375 -0.234375s-0.10493125 -0.234375 -0.234375 -0.234375" stroke-width="1"></path><path stroke="#ffffff" d="M3.515625 12.1875c-0.12944375 0 -0.234375 -0.10493749999999999 -0.234375 -0.234375s0.10493125 -0.234375 0.234375 -0.234375" stroke-width="1"></path><path stroke="#ffffff" d="M3.515625 12.1875c0.12944375 0 0.234375 -0.10493749999999999 0.234375 -0.234375s-0.10493125 -0.234375 -0.234375 -0.234375" stroke-width="1"></path><path stroke="#ffffff" d="M7.5 8.90625c-0.1294375 0 -0.234375 -0.10493749999999999 -0.234375 -0.234375s0.10493749999999999 -0.234375 0.234375 -0.234375" stroke-width="1"></path><path stroke="#ffffff" d="M7.5 8.90625c0.1294375 0 0.234375 -0.10493749999999999 0.234375 -0.234375S7.6294375 8.4375 7.5 8.4375" stroke-width="1"></path><path stroke="#ffffff" d="M7.5 12.1875c-0.1294375 0 -0.234375 -0.10493749999999999 -0.234375 -0.234375s0.10493749999999999 -0.234375 0.234375 -0.234375" stroke-width="1"></path><path stroke="#ffffff" d="M7.5 12.1875c0.1294375 0 0.234375 -0.10493749999999999 0.234375 -0.234375s-0.10493749999999999 -0.234375 -0.234375 -0.234375" stroke-width="1"></path><path stroke="#ffffff" d="M11.484375 8.90625c-0.1294375 0 -0.234375 -0.10493749999999999 -0.234375 -0.234375s0.10493749999999999 -0.234375 0.234375 -0.234375" stroke-width="1"></path><path stroke="#ffffff" d="M11.484375 8.90625c0.1294375 0 0.234375 -0.10493749999999999 0.234375 -0.234375s-0.10493749999999999 -0.234375 -0.234375 -0.234375" stroke-width="1"></path><path stroke="#ffffff" d="M11.484375 12.1875c-0.1294375 0 -0.234375 -0.10493749999999999 -0.234375 -0.234375s0.10493749999999999 -0.234375 0.234375 -0.234375" stroke-width="1"></path><path stroke="#ffffff" d="M11.484375 12.1875c0.1294375 0 0.234375 -0.10493749999999999 0.234375 -0.234375s-0.10493749999999999 -0.234375 -0.234375 -0.234375" stroke-width="1"></path></svg>