<svg xmlns="http://www.w3.org/2000/svg" fill="none" viewBox="-0.5 -0.5 16 16" id="Check-Double--Streamline-Ultimate.svg" height="16" width="16"><desc>Check Double Streamline Icon: https://streamlinehq.com</desc><path stroke="#ffffff" stroke-linejoin="round" d="m5.1549812500000005 13.051312500000002 -4.144375 -4.145c-0.33139375 -0.34981249999999997 -0.513216875 -0.815125 -0.506786875 -1.2969374999999999 0.00643 -0.481875 0.200605625 -0.9421875000000001 0.541218125 -1.283 0.3406125 -0.340875 0.80078125 -0.53538125 1.28260625 -0.54215625 0.48182500000000006 -0.006775000000000001 0.9472750000000001 0.1747125 1.2973375 0.50584375l2.6362687499999997 2.63625 4.9375 -6.5831125c0.1456875 -0.19448125 0.3283125 -0.35835 0.537375 -0.4822625 0.2090625 -0.12390625000000001 0.4405 -0.20542500000000002 0.6810624999999999 -0.2399 0.2405625 -0.03446875 0.48550000000000004 -0.021224999999999997 0.721 0.03898125 0.2354375 0.060212499999999995 0.4566875 0.16620625 0.6511875 0.31193125 0.19443749999999999 0.145725 0.35831250000000003 0.32833124999999996 0.48224999999999996 0.5373875 0.12387499999999999 0.2090625 0.2054375 0.44047500000000006 0.23987499999999998 0.6810375000000001 0.0345 0.2405625 0.02125 0.48555624999999997 -0.0389375 0.721 -0.06025 0.23544375 -0.16625 0.45671875 -0.3119375 0.6512L7.9437500000000005 12.8531875c-0.159125 0.2120625 -0.36187499999999995 0.3874375 -0.5946875 0.5143125 -0.23275 0.12687500000000002 -0.4900625 0.20224999999999999 -0.7545000000000001 0.2210625 -0.2644375 0.01875 -0.5298125 -0.0194375 -0.77818125 -0.112125 -0.24836875000000003 -0.09268749999999999 -0.473925 -0.23768750000000002 -0.6614 -0.42512500000000003Z" stroke-width="1"></path></svg>