<svg xmlns="http://www.w3.org/2000/svg" fill="none" viewBox="-0.5 -0.5 16 16" id="Check-Square--Streamline-Ultimate.svg" height="16" width="16"><desc>Check Square Streamline Icon: https://streamlinehq.com</desc><path stroke="#ffffff" stroke-linecap="round" stroke-linejoin="round" d="m4.21875 5.6250124999999995 2.05875 2.8818624999999995c0.08474999999999999 0.1186875 0.1955625 0.21631250000000002 0.3239375 0.2854375 0.128375 0.069125 0.2709375 0.107875 0.41662499999999997 0.1133125 0.1456875 0.0054375 0.2906875 -0.022625000000000003 0.423875 -0.082s0.25093750000000004 -0.1485 0.34431249999999997 -0.2605L14.53125 0.468139375" stroke-width="1"></path><path stroke="#ffffff" stroke-linecap="round" stroke-linejoin="round" d="M13.59375 6.5625v6.09375c0 0.49724999999999997 -0.1975625 0.9741875 -0.5491875 1.3258125 -0.35162499999999997 0.35162499999999997 -0.8285625000000001 0.5491875 -1.3258125 0.5491875h-9.375c-0.49728125 0 -0.97419375 -0.1975625 -1.325825 -0.5491875C0.66629375 13.630437500000001 0.46875 13.153500000000001 0.46875 12.65625v-9.375c0 -0.49728125 0.19754375000000002 -0.97419375 0.549175 -1.325825C1.36955625 1.60379375 1.8464687499999999 1.40625 2.34375 1.40625H10.3125" stroke-width="1"></path></svg>