<svg xmlns="http://www.w3.org/2000/svg" fill="none" viewBox="-0.5 -0.5 16 16" id="Cog-Search-1--Streamline-Ultimate.svg" height="16" width="16"><desc>Cog Search 1 Streamline Icon: https://streamlinehq.com</desc><path stroke="#ffffff" stroke-linecap="round" stroke-linejoin="round" d="m10.87 10.871875 3.66 3.66" stroke-width="1"></path><path stroke="#ffffff" stroke-linecap="round" stroke-linejoin="round" d="M5.62374375 6.563124999999999c0 0.24862499999999998 0.09876875 0.4870625 0.2745875 0.662875 0.17581249999999998 0.17581249999999998 0.41429374999999996 0.274625 0.66291875 0.274625 0.24862499999999998 0 0.4870625 -0.0988125 0.662875 -0.274625 0.175875 -0.17581249999999998 0.274625 -0.41424999999999995 0.274625 -0.662875 0 -0.24862499999999998 -0.09875 -0.48711249999999995 -0.274625 -0.662925 -0.17581249999999998 -0.17581875 -0.41424999999999995 -0.2745875 -0.662875 -0.2745875 -0.24862499999999998 0 -0.48710625 0.09876875 -0.66291875 0.2745875 -0.17581875 0.17581249999999998 -0.2745875 0.4143 -0.2745875 0.662925Z" stroke-width="1"></path><path stroke="#ffffff" stroke-linecap="round" stroke-linejoin="round" d="M5.765000000000001 2.93755c0.0513375 -0.17126875 0.1565375 -0.32142499999999996 0.299975 -0.42817500000000003 0.1434375 -0.10675000000000001 0.3174625 -0.16440625 0.49627499999999997 -0.16440625s0.3528125 0.05765625 0.49625 0.16440625c0.1435 0.10675000000000001 0.24868749999999998 0.25690625 0.3 0.42817500000000003l0.27625 0.9081250000000001c0.045562500000000006 0.15073124999999998 0.1466875 0.27852499999999997 0.2829375 0.3575375 0.13618750000000002 0.0790125 0.2973125 0.10335 0.45081250000000006 0.0680875l0.9199999999999999 -0.213125c0.17443750000000002 -0.039575 0.35700000000000004 -0.02218125 0.5208125 0.0496375 0.1638125 0.0718125 0.30025 0.19426875 0.389375 0.34937500000000005 0.08906249999999999 0.1551 0.1260625 0.33468749999999997 0.1055625 0.512375 -0.0205 0.17769375 -0.09743750000000001 0.34413125 -0.2195 0.4748625l-0.64625 0.693125c-0.1075625 0.11563749999999999 -0.1673125 0.2677 -0.1673125 0.4256375s0.059750000000000004 0.31 0.1673125 0.42562500000000003l0.64375 0.694375c0.1220625 0.13075 0.199 0.2971875 0.2195 0.47487500000000005 0.0205 0.1776875 -0.0165 0.35725 -0.1055625 0.512375 -0.08912500000000001 0.1550625 -0.2255625 0.2775625 -0.389375 0.34937500000000005 -0.1638125 0.0718125 -0.346375 0.0891875 -0.5208125 0.049625l-0.9199999999999999 -0.213125c-0.1535 -0.03525 -0.314625 -0.010937500000000001 -0.45081250000000006 0.0680625 -0.13625 0.07906250000000001 -0.237375 0.2068125 -0.2829375 0.3575625l-0.27375 0.905625c-0.051312500000000004 0.17125 -0.1565 0.3214375 -0.3 0.42818750000000005 -0.1434375 0.10675000000000001 -0.31743750000000004 0.164375 -0.49625 0.164375s-0.3528375 -0.057625 -0.49627499999999997 -0.164375c-0.1434375 -0.10675000000000001 -0.2486375 -0.25693750000000004 -0.299975 -0.42818750000000005l-0.276875 -0.9081250000000001c-0.045456250000000004 -0.1506875 -0.14645625 -0.27849999999999997 -0.28256875000000004 -0.3575 -0.1361125 -0.07900000000000001 -0.2971625 -0.103375 -0.45055625 -0.068125l-0.920625 0.213125c-0.17443750000000002 0.0395625 -0.35696875000000006 0.0221875 -0.5207875 -0.049625 -0.16381875 -0.0718125 -0.30029375 -0.1943125 -0.3893875 -0.34937500000000005 -0.0890875 -0.155125 -0.1261 -0.33468749999999997 -0.10559374999999999 -0.512375 0.02050625 -0.1776875 0.09744375 -0.344125 0.21951874999999998 -0.47487500000000005l0.6443749999999999 -0.694375c0.10754375 -0.115625 0.167325 -0.2676875 0.167325 -0.42562500000000003 0 -0.15793749999999998 -0.05978125 -0.31 -0.167325 -0.4256375l-0.6443749999999999 -0.691875c-0.12207499999999999 -0.13073125 -0.19901249999999998 -0.29716875 -0.21951874999999998 -0.4748625 -0.02050625 -0.1776875 0.01650625 -0.357275 0.10559374999999999 -0.512375 0.08909375 -0.15510625 0.22556875 -0.27755625 0.3893875 -0.34937500000000005 0.16381875 -0.07181875 0.34635 -0.0892125 0.5207875 -0.0496375l0.920625 0.213125c0.15339375 0.0352375 0.31444374999999997 0.010881249999999999 0.45055625 -0.0681375 0.1361125 -0.079025 0.2371125 -0.20680625000000002 0.28256875000000004 -0.3574875l0.276875 -0.9068750000000001Z" stroke-width="1"></path><path stroke="#ffffff" stroke-linecap="round" stroke-linejoin="round" d="M0.46749125 6.563124999999999c0 0.80025 0.15762125 1.592625 0.46385875 2.3319375 0.3062375 0.739375 0.7550999999999999 1.411125 1.32095625 1.9769999999999999 0.5658624999999999 0.5658125 1.23763125 1.0146875 1.9769562500000002 1.3209375 0.73933125 0.30625 1.5317375 0.463875 2.3319875000000003 0.463875 0.80025 0 1.592625 -0.157625 2.3319375 -0.463875 0.739375 -0.30625 1.411125 -0.7551249999999999 1.9769999999999999 -1.3209375 0.5658125 -0.565875 1.0146875 -1.237625 1.3209375 -1.9769999999999999 0.30625 -0.7393125 0.463875 -1.5316874999999999 0.463875 -2.3319375 0 -0.80025625 -0.157625 -1.5926624999999999 -0.463875 -2.3319937499999996 -0.30625 -0.739325 -0.7551249999999999 -1.41109375 -1.3209375 -1.97695 -0.565875 -0.5658624999999999 -1.237625 -1.0147249999999999 -1.9769999999999999 -1.3209625 -0.7393125 -0.3062375 -1.5316874999999999 -0.463858125 -2.3319375 -0.463858125 -0.80025 0 -1.5926562499999999 0.15762062500000001 -2.3319875000000003 0.463858125 -0.739325 0.3062375 -1.41109375 0.7550999999999999 -1.9769562500000002 1.3209625 -0.56585625 0.56585625 -1.0147187500000001 1.237625 -1.32095625 1.97695C0.6251125000000001 4.9704625 0.46749125 5.76286875 0.46749125 6.563124999999999Z" stroke-width="1"></path></svg>