<svg xmlns="http://www.w3.org/2000/svg" fill="none" viewBox="-0.5 -0.5 16 16" id="Cog--Streamline-Ultimate.svg" height="16" width="16"><desc>Cog Streamline Icon: https://streamlinehq.com</desc><path stroke="#ffffff" stroke-linecap="round" stroke-linejoin="round" d="M6.59125 1.523775c0.1146875 0.12730625 0.2548125 0.2291 0.411375 0.29878125 0.1565625 0.069675 0.32599999999999996 0.10568124999999999 0.49737499999999996 0.10568124999999999 0.1713125 0 0.3408125 -0.036006250000000004 0.4973125 -0.10568124999999999 0.1565625 -0.06968125 0.29675 -0.171475 0.4114375 -0.29878125l0.5912499999999999 -0.64875c0.16943750000000002 -0.1875375 0.39275 -0.31803937499999996 0.6393749999999999 -0.37359062499999995 0.24656250000000002 -0.055550625 0.50425 -0.033430625 0.7377499999999999 0.06332499999999999 0.23349999999999999 0.096753125 0.431375 0.263403125 0.566375 0.477071875 0.135 0.21366875000000002 0.2005625 0.4638875 0.18775 0.71631875l-0.044375 0.87499375c-0.008625 0.17069375 0.0186875 0.34129375000000006 0.08 0.50080625 0.061375 0.1595125 0.1555 0.30440625 0.27625 0.42534375s0.2655 0.21523750000000003 0.42493749999999997 0.27683125c0.1594375 0.0615875 0.33 0.08910625 0.5006875000000001 0.080775l0.875 -0.044375c0.25225000000000003 -0.0124375 0.5021875 0.05344375 0.7155625 0.1886125 0.2133125 0.135175 0.3796875 0.33301875000000003 0.4761875 0.566425 0.0965 0.23340625 0.1184375 0.49094375 0.062875 0.737325 -0.0555625 0.246375 -0.186 0.46953124999999996 -0.373375 0.6388874999999999l-0.65125 0.587475c-0.12718749999999998 0.11487499999999999 -0.22881249999999997 0.255125 -0.298375 0.4116875 -0.0695625 0.156625 -0.10550000000000001 0.32606250000000003 -0.10550000000000001 0.49737499999999996 0 0.171375 0.035937500000000004 0.3408125 0.10550000000000001 0.49737499999999996 0.0695625 0.156625 0.1711875 0.296875 0.298375 0.4116875l0.65125 0.5874999999999999c0.1875 0.16949999999999998 0.318 0.39281249999999995 0.3735625 0.6393749999999999 0.0555625 0.24656250000000002 0.0334375 0.5043124999999999 -0.0633125 0.7378125000000001 -0.09675 0.23349999999999999 -0.263375 0.43131250000000004 -0.4770625 0.5663125 -0.21368749999999997 0.1350625 -0.463875 0.200625 -0.7163124999999999 0.18775l-0.875 -0.044375c-0.1710625 -0.00875 -0.342125 0.0184375 -0.502 0.079875 -0.15987500000000002 0.0615 -0.3050625 0.1558125 -0.42618749999999994 0.2769375 -0.121125 0.121125 -0.2155 0.26637500000000003 -0.2769375 0.42625 -0.0615 0.15987500000000002 -0.0886875 0.330875 -0.079875 0.5019375l0.044375 0.875c0.0111875 0.2511875 -0.05525000000000001 0.4996875 -0.1901875 0.7118125 -0.13493750000000002 0.21212499999999998 -0.3319375 0.3775 -0.5641875 0.47375 -0.23224999999999998 0.0963125 -0.4885 0.1186875 -0.7339374999999999 0.06425 -0.2454375 -0.0544375 -0.4681875 -0.18312499999999998 -0.6379374999999999 -0.3685625l-0.588125 -0.650625c-0.1148125 -0.127125 -0.255 -0.22875 -0.4115625 -0.2983125 -0.1565 -0.0695625 -0.32587499999999997 -0.10550000000000001 -0.4971875 -0.10550000000000001s-0.34068750000000003 0.035937500000000004 -0.49724999999999997 0.10550000000000001c-0.1565 0.0695625 -0.2966875 0.1711875 -0.4115 0.2983125L6.003737500000001 14.125c-0.16949375 0.1863125 -0.39231875 0.3158125 -0.63809375 0.370875 -0.24578125 0.05499999999999999 -0.50255625 0.032937499999999995 -0.73531875 -0.0633125 -0.23276249999999998 -0.09618750000000001 -0.43018124999999996 -0.26187499999999997 -0.56535625 -0.474375 -0.135175 -0.21250000000000002 -0.20151249999999998 -0.46156250000000004 -0.18998125000000002 -0.7131875l0.045 -0.875c0.0088 -0.1710625 -0.0184125 -0.3420625 -0.079875 -0.5019375 -0.06146875 -0.15987500000000002 -0.1558125 -0.30512500000000004 -0.2769375 -0.42625 -0.121125 -0.121125 -0.26633125 -0.2154375 -0.42621875 -0.2769375 -0.1598875 -0.0614375 -0.3309 -0.08862500000000001 -0.5019687500000001 -0.079875l-0.875 0.044375c-0.252325 0.013187500000000001 -0.5025375 -0.0520625 -0.7162875000000001 -0.1868125 -0.21375624999999998 -0.1346875 -0.38056874999999996 -0.33225 -0.47753625 -0.5655625 -0.09697 -0.233375 -0.11934375 -0.49093749999999997 -0.06404875 -0.7374999999999999 0.05529437499999999 -0.24656250000000002 0.18554749999999998 -0.4699375 0.3728725 -0.6395000000000001l0.650625 -0.5874999999999999c0.12715625 -0.1148125 0.2288 -0.2550625 0.29836874999999996 -0.4116875 0.06956875 -0.1565625 0.10551875000000001 -0.32599999999999996 0.10551875000000001 -0.49737499999999996 0 -0.1713125 -0.03595 -0.34075 -0.10551875000000001 -0.49737499999999996 -0.06956875 -0.1565625 -0.17121250000000002 -0.2968125 -0.29836874999999996 -0.4116875l-0.650625 -0.5906c-0.18671875000000002 -0.169375 -0.316573125 -0.39228125 -0.37181187499999996 -0.6382500000000001 -0.05523875 -0.24596875 -0.03316625 -0.50299375 0.063200625 -0.73594375 0.0963675 -0.23295 0.26232374999999997 -0.43045 0.47518625000000003 -0.5655125 0.2128625 -0.13505625 0.46224374999999995 -0.20108125000000002 0.71405 -0.18904375l0.875 0.044375c0.17139374999999998 0.00900625 0.3427625 -0.01813125 0.5029875 -0.07966875 0.16021875000000002 -0.061531249999999996 0.30570625 -0.156075 0.42700625 -0.27749375 0.1213 -0.12141874999999999 0.21570625 -0.267 0.27708125 -0.427275 0.061375 -0.16028125000000001 0.08835000000000001 -0.33168125 0.079175 -0.5030625l-0.041875 -0.8756312500000001c-0.01180625 -0.25170624999999996 0.05433125 -0.50093125 0.18939999999999999 -0.71365625 0.13506875 -0.21273125 0.3324875 -0.37860625000000003 0.5653125 -0.47498875 0.232825 -0.09638374999999999 0.48971875 -0.11858312500000001 0.735625 -0.06356875 0.24590625000000002 0.05501375 0.46885000000000004 0.18456375 0.6384125 0.37096999999999997l0.5875125 0.64875Z" stroke-width="1"></path><path stroke="#ffffff" stroke-linecap="round" stroke-linejoin="round" d="M4.6875 7.500624999999999c0 0.7459375 0.29631874999999996 1.4612500000000002 0.8237625 1.98875 0.52744375 0.5274375 1.2428 0.82375 1.9887374999999998 0.82375 0.7459375 0 1.4613125 -0.29631250000000003 1.98875 -0.82375 0.5274375 -0.5275 0.82375 -1.2428124999999999 0.82375 -1.98875s-0.29631250000000003 -1.4613062499999998 -0.82375 -1.98875c-0.5274375 -0.52745 -1.2428124999999999 -0.8237625 -1.98875 -0.8237625s-1.46129375 0.29631250000000003 -1.9887374999999998 0.8237625C4.983818749999999 6.03931875 4.6875 6.754687499999999 4.6875 7.500624999999999Z" stroke-width="1"></path></svg>