<svg xmlns="http://www.w3.org/2000/svg" fill="none" viewBox="-0.5 -0.5 16 16" id="Cog-Hand-Give-1--Streamline-Ultimate.svg" height="16" width="16"><desc>Cog Hand Give 1 Streamline Icon: https://streamlinehq.com</desc><path stroke="#ffffff" stroke-linecap="round" stroke-linejoin="round" d="M0.46875 8.90625v5.625" stroke-width="1"></path><path stroke="#ffffff" stroke-linecap="round" stroke-linejoin="round" d="M0.46875 13.59375h10.3125c0 -0.49724999999999997 -0.1975625 -0.9741875 -0.5491875 -1.3258125 -0.35162499999999997 -0.35162499999999997 -0.8285625000000001 -0.5491875 -1.3258125 -0.5491875H6.5625c0 -0.49724999999999997 -0.1975625 -0.9741875 -0.549175 -1.3258125C5.6616937499999995 10.0413125 5.18478125 9.84375 4.6875 9.84375H0.46875" stroke-width="1"></path><path stroke="#ffffff" stroke-linecap="round" stroke-linejoin="round" d="M4.21875 11.71875h2.34375" stroke-width="1"></path><path stroke="#ffffff" stroke-linecap="round" stroke-linejoin="round" d="M9.918375000000001 1.0812187500000001c0.06675 0.07274375 0.147875 0.130825 0.23825 0.17055625000000002 0.09037500000000001 0.03973125 0.188 0.06025 0.28675 0.06025 0.09868750000000001 0 0.196375 -0.02051875 0.28675 -0.06025s0.17149999999999999 -0.0978125 0.23825 -0.17055625000000002l0.3375 -0.38125c0.09862499999999999 -0.108674375 0.2286875 -0.18392312500000002 0.3720625 -0.215285625 0.143375 -0.0313625 0.2929375 -0.01728125 0.42793749999999997 0.040286875 0.13493750000000002 0.054813125000000004 0.24925 0.1507175 0.32662499999999994 0.27411125000000003 0.07743749999999999 0.12340000000000001 0.114 0.268025 0.104625 0.4133875v0.5062500000000001c-0.0030625 0.09880625000000001 0.0135625 0.197225 0.049 0.28951875 0.0354375 0.09228750000000001 0.088875 0.17659375000000002 0.15725 0.24798125000000001 0.071375 0.06837499999999999 0.15568749999999998 0.12183125 0.248 0.15724375 0.09225 0.0354125 0.19068749999999998 0.052075 0.2895 0.049006249999999994h0.5062500000000001c0.145375 -0.00939375 0.29000000000000004 0.02720625 0.413375 0.1046125 0.123375 0.0774 0.2193125 0.19168125000000003 0.274125 0.32663749999999997 0.0575625 0.135 0.071625 0.28458125 0.04025 0.42795625 -0.0313125 0.14336875000000002 -0.1065625 0.2734125 -0.21525 0.37204375l-0.38125 0.3375c-0.07275000000000001 0.06674374999999999 -0.1308125 0.14788125 -0.17056249999999998 0.23825625 -0.03975 0.09037500000000001 -0.06025 0.18801874999999998 -0.06025 0.28674374999999996s0.0205 0.196375 0.06025 0.28675c0.03975 0.09037500000000001 0.0978125 0.17150625 0.17056249999999998 0.23825l0.38125 0.3375c0.10868749999999999 0.09863749999999999 0.1839375 0.228675 0.21525 0.37205 0.031375 0.14336875000000002 0.017312499999999998 0.29295000000000004 -0.04025 0.42795 -0.0548125 0.13496875 -0.15075 0.24921875 -0.274125 0.32665625 -0.123375 0.077375 -0.268 0.114 -0.413375 0.104625h-0.5062500000000001c-0.09912499999999999 -0.0054375 -0.19824999999999998 0.0100625 -0.2909375 0.045562500000000006 -0.09268749999999999 0.0354375 -0.17687499999999998 0.0900625 -0.247 0.16018749999999998 -0.0701875 0.0701875 -0.12481249999999999 0.15437499999999998 -0.16025 0.2470625 -0.0354375 0.09268749999999999 -0.051000000000000004 0.1918125 -0.045562500000000006 0.2909375v0.5062500000000001c0.009375 0.1453125 -0.027187499999999996 0.28993749999999996 -0.104625 0.413375 -0.077375 0.123375 -0.19168749999999998 0.2193125 -0.32662499999999994 0.274125 -0.135 0.0575625 -0.2845625 0.071625 -0.42793749999999997 0.04025 -0.143375 -0.031375 -0.2734375 -0.106625 -0.3720625 -0.21525l-0.3375 -0.38125c-0.06675 -0.07275000000000001 -0.147875 -0.130875 -0.23825 -0.17056249999999998 -0.09037500000000001 -0.03975 -0.1880625 -0.06025 -0.28675 -0.06025 -0.09875 0 -0.196375 0.0205 -0.28675 0.06025 -0.09037500000000001 0.0396875 -0.17149999999999999 0.0978125 -0.23825 0.17056249999999998l-0.3375 0.38125c-0.09862499999999999 0.108625 -0.2286875 0.183875 -0.3720625 0.21525 -0.143375 0.031375 -0.2929375 0.017312499999999998 -0.42793749999999997 -0.04025 -0.13493750000000002 -0.0548125 -0.24925 -0.15075 -0.32662499999999994 -0.274125 -0.07743749999999999 -0.1234375 -0.114 -0.2680625 -0.104625 -0.413375v-0.5062500000000001c0.0054375 -0.09912499999999999 -0.010124999999999999 -0.19824999999999998 -0.045562500000000006 -0.2909375 -0.035500000000000004 -0.09268749999999999 -0.0900625 -0.17687499999999998 -0.16025 -0.2470625 -0.0701875 -0.07012499999999999 -0.15437499999999998 -0.12475 -0.2470625 -0.16018749999999998 -0.09268749999999999 -0.035500000000000004 -0.1918125 -0.051000000000000004 -0.290875 -0.045562500000000006h-0.5062500000000001c-0.145375 0.009375 -0.29000000000000004 -0.02725 -0.413375 -0.104625 -0.1234375 -0.07743749999999999 -0.2193125 -0.19168749999999998 -0.274125 -0.32665625 -0.0575625 -0.135 -0.0716875 -0.28458125 -0.0403125 -0.42795 0.031375 -0.143375 0.106625 -0.2734125 0.2153125 -0.37205l0.38125 -0.3375c0.07275000000000001 -0.06674374999999999 0.1308125 -0.147875 0.17056249999999998 -0.23825 0.0396875 -0.09037500000000001 0.06025 -0.188025 0.06025 -0.28675s-0.020562499999999997 -0.19636875 -0.06025 -0.28674374999999996c-0.03975 -0.09037500000000001 -0.0978125 -0.1715125 -0.17056249999999998 -0.23825625l-0.38125 -0.3375c-0.10868749999999999 -0.09863125 -0.1839375 -0.228675 -0.2153125 -0.37204375 -0.031375 -0.143375 -0.01725 -0.29295625 0.0403125 -0.42795625 0.0548125 -0.13495625 0.1506875 -0.2492375 0.274125 -0.32663749999999997 0.123375 -0.07740625 0.268 -0.11400624999999999 0.413375 -0.1046125h0.5062500000000001c0.0988125 0.0030687500000000003 0.19718750000000002 -0.013593749999999998 0.2895 -0.049006249999999994 0.09231249999999999 -0.0354125 0.176625 -0.08886875000000001 0.248 -0.15724375 0.06837499999999999 -0.0713875 0.12181249999999999 -0.15569375 0.15725 -0.24798125000000001 0.035375 -0.09229375 0.0520625 -0.1907125 0.049 -0.28951875v-0.5062500000000001c-0.009375 -0.1453625 0.027187499999999996 -0.2899875 0.104625 -0.4133875 0.077375 -0.12339375 0.19168749999999998 -0.219298125 0.32662499999999994 -0.27411125000000003 0.135 -0.057568125 0.2845625 -0.071649375 0.42793749999999997 -0.040286875s0.2734375 0.10661125 0.3720625 0.215285625l0.3375 0.38125Z" stroke-width="1"></path><path stroke="#ffffff" stroke-linecap="round" stroke-linejoin="round" d="M9.349625 4.53125c0 0.29008125 0.1151875 0.56828125 0.3203125 0.7734000000000001 0.205125 0.20511875 0.4833125 0.32035 0.7734375 0.32035 0.2900625 0 0.56825 -0.11523125000000001 0.773375 -0.32035 0.205125 -0.20511875 0.32037499999999997 -0.48331875 0.32037499999999997 -0.7734000000000001 0 -0.29008125 -0.11525 -0.56828125 -0.32037499999999997 -0.7734000000000001 -0.205125 -0.20511875 -0.4833125 -0.32035 -0.773375 -0.32035 -0.290125 0 -0.5683125 0.11523125000000001 -0.7734375 0.32035 -0.205125 0.20511875 -0.3203125 0.48331875 -0.3203125 0.7734000000000001Z" stroke-width="1"></path></svg>