<svg xmlns="http://www.w3.org/2000/svg" fill="none" viewBox="-0.5 -0.5 16 16" id="Command-Button-Keyboard--Streamline-Ultimate.svg" height="16" width="16"><desc>Command Button Keyboard Streamline Icon: https://streamlinehq.com</desc><path stroke="#ffffff" stroke-linecap="round" stroke-linejoin="round" stroke-miterlimit="10" d="M12.53125 0.46875H2.4687375C1.3437374999999998 0.46875 0.46875 1.34379375 0.46875 2.46879375V12.53125c0 1.125 0.8749875 2 1.9999875 2H12.53125c1.125 0 2 -0.875 2 -2V2.46879375c0 -1.0625 -0.875 -2.00004375 -2 -2.00004375Z" stroke-width="1"></path><path stroke="#ffffff" stroke-linecap="round" stroke-linejoin="round" stroke-miterlimit="10" d="M10.34375 8.90625c0.75 0 1.375 0.6250625 1.375 1.3750624999999999s-0.625 1.3749375 -1.375 1.3749375c-0.75 0 -1.375 -0.6249375 -1.375 -1.3749375V4.65629375c0 -0.75 0.625 -1.3750437500000001 1.375 -1.3750437500000001 0.75 0 1.375 0.62504375 1.375 1.3750437500000001 0 0.75 -0.625 1.3749687499999999 -1.375 1.3749687499999999H4.718725c-0.75 0 -1.3749875 -0.62496875 -1.3749875 -1.3749687499999999 0 -0.75 0.6249875 -1.3750437500000001 1.3749875 -1.3750437500000001 0.75 0 1.3750062499999998 0.62504375 1.3750062499999998 1.3750437500000001v5.625018750000001c0 0.75 -0.62500625 1.3749375 -1.3750062499999998 1.3749375 -0.75 0 -1.3749875 -0.6249375 -1.3749875 -1.3749375S3.968725 8.90625 4.718725 8.90625H10.34375Z" stroke-width="1"></path></svg>