<svg xmlns="http://www.w3.org/2000/svg" fill="none" viewBox="-0.5 -0.5 16 16" id="Delete-2--Streamline-Ultimate.svg" height="16" width="16"><desc>Delete 2 Streamline Icon: https://streamlinehq.com</desc><path stroke="#ffffff" stroke-linecap="round" stroke-linejoin="round" d="M0.46749125 7.5c0 1.8648124999999998 0.7407900000000001 3.65325 2.0594025 4.971875C3.8455125 13.7904375 5.6339375 14.53125 7.498749999999999 14.53125c1.8648124999999998 0 3.65325 -0.7408125 4.9718125 -2.059375 1.318625 -1.318625 2.0594375 -3.1070625 2.0594375 -4.971875 0 -1.86480625 -0.7408125 -3.65323125 -2.0594375 -4.97184375C11.152 1.2095375 9.3635625 0.46875 7.498749999999999 0.46875c-1.8648124999999998 0 -3.6532375 0.7407874999999999 -4.97185625 2.05940625C1.20828125 3.84676875 0.46749125 5.635193750000001 0.46749125 7.5Z" stroke-width="1"></path><path stroke="#ffffff" stroke-linecap="round" stroke-linejoin="round" d="M2.526875 12.471874999999999 12.47 2.52815" stroke-width="1"></path><path stroke="#ffffff" stroke-linecap="round" stroke-linejoin="round" d="M12.47 12.471874999999999 2.526875 2.52815" stroke-width="1"></path></svg>