<svg xmlns="http://www.w3.org/2000/svg" fill="none" viewBox="-0.5 -0.5 16 16" id="Dial-Pad--Streamline-Ultimate.svg" height="16" width="16"><desc>Dial Pad Streamline Icon: https://streamlinehq.com</desc><path stroke="#ffffff" stroke-linecap="round" stroke-linejoin="round" d="M0.46875 1.875c0 0.18466875 0.036373749999999996 0.3675375 0.107044375 0.53815 0.070668125 0.1706125 0.17425562499999997 0.3256375 0.304836875 0.45621875 0.13058125 0.13058125 0.28560625 0.23416875 0.45621875 0.3048375S1.69033125 3.28125 1.875 3.28125s0.3675375 -0.036375000000000005 0.53815 -0.10704375000000001 0.3256375 -0.17425625 0.45621875 -0.3048375c0.13058125 -0.13058125 0.23416875 -0.28560625 0.3048375 -0.45621875S3.28125 2.05966875 3.28125 1.875s-0.036375000000000005 -0.3675375 -0.10704375000000001 -0.53815 -0.17425625 -0.3256375 -0.3048375 -0.45621875c-0.13058125 -0.13058125 -0.28560625 -0.23416875 -0.45621875 -0.304836875C2.2425375 0.50512375 2.05966875 0.46875 1.875 0.46875s-0.3675375 0.036373749999999996 -0.53815 0.107044375c-0.1706125 0.070668125 -0.3256375 0.17425562499999997 -0.45621875 0.304836875 -0.13058125 0.13058125 -0.23416875 0.28560625 -0.304836875 0.45621875C0.50512375 1.5074625 0.46875 1.69033125 0.46875 1.875Z" stroke-width="1"></path><path stroke="#ffffff" stroke-linecap="round" stroke-linejoin="round" d="M6.09375 1.875c0 0.37296250000000003 0.14815625000000002 0.73064375 0.411875 0.9943687499999999 0.26375 0.263725 0.6214375 0.41188125 0.994375 0.41188125s0.7306250000000001 -0.14815625000000002 0.994375 -0.41188125c0.2636875 -0.263725 0.411875 -0.6214062499999999 0.411875 -0.9943687499999999 0 -0.37296250000000003 -0.1481875 -0.73064375 -0.411875 -0.9943687499999999C8.230625 0.6169081249999999 7.8729375 0.46875 7.5 0.46875s-0.7306250000000001 0.148158125 -0.994375 0.41188125C6.2419062499999995 1.14435625 6.09375 1.5020375 6.09375 1.875Z" stroke-width="1"></path><path stroke="#ffffff" stroke-linecap="round" stroke-linejoin="round" d="M11.71875 1.875c0 0.37296250000000003 0.1481875 0.73064375 0.411875 0.9943687499999999 0.26375 0.263725 0.6214375 0.41188125 0.994375 0.41188125s0.7306250000000001 -0.14815625000000002 0.994375 -0.41188125c0.2636875 -0.263725 0.411875 -0.6214062499999999 0.411875 -0.9943687499999999 0 -0.37296250000000003 -0.1481875 -0.73064375 -0.411875 -0.9943687499999999C13.855625 0.6169081249999999 13.497937499999999 0.46875 13.125 0.46875s-0.7306250000000001 0.148158125 -0.994375 0.41188125c-0.2636875 0.263725 -0.411875 0.6214062499999999 -0.411875 0.9943687499999999Z" stroke-width="1"></path><path stroke="#ffffff" stroke-linecap="round" stroke-linejoin="round" d="M0.46875 7.5c0 0.1846875 0.036373749999999996 0.36756249999999996 0.107044375 0.538125 0.070668125 0.17062500000000003 0.17425562499999997 0.3256875 0.304836875 0.45625 0.13058125 0.1305625 0.28560625 0.2341875 0.45621875 0.30481250000000004 0.1706125 0.0706875 0.35348125 0.1070625 0.53815 0.1070625s0.3675375 -0.036375000000000005 0.53815 -0.1070625c0.1706125 -0.07062500000000001 0.3256375 -0.17425 0.45621875 -0.30481250000000004 0.13058125 -0.1305625 0.23416875 -0.285625 0.3048375 -0.45625 0.07066875 -0.17056249999999998 0.10704375000000001 -0.3534375 0.10704375000000001 -0.538125s-0.036375000000000005 -0.36756249999999996 -0.10704375000000001 -0.538125c-0.07066875 -0.17062500000000003 -0.17425625 -0.3256875 -0.3048375 -0.45625 -0.13058125 -0.1305625 -0.28560625 -0.2341875 -0.45621875 -0.30483125C2.2425375 6.130125 2.05966875 6.09375 1.875 6.09375s-0.3675375 0.036375000000000005 -0.53815 0.10704375000000001c-0.1706125 0.07064375 -0.3256375 0.17426875000000003 -0.45621875 0.30483125 -0.13058125 0.1305625 -0.23416875 0.285625 -0.304836875 0.45625C0.50512375 7.1324375 0.46875 7.315312499999999 0.46875 7.5Z" stroke-width="1"></path><path stroke="#ffffff" stroke-linecap="round" stroke-linejoin="round" d="M6.09375 7.5c0 0.37293750000000003 0.14815625000000002 0.7306250000000001 0.411875 0.994375 0.26375 0.2636875 0.6214375 0.411875 0.994375 0.411875s0.7306250000000001 -0.1481875 0.994375 -0.411875c0.2636875 -0.26375 0.411875 -0.6214375 0.411875 -0.994375s-0.1481875 -0.7306250000000001 -0.411875 -0.994375c-0.26375 -0.26371875 -0.6214375 -0.411875 -0.994375 -0.411875s-0.7306250000000001 0.14815625000000002 -0.994375 0.411875c-0.26371875 0.26375 -0.411875 0.6214375 -0.411875 0.994375Z" stroke-width="1"></path><path stroke="#ffffff" stroke-linecap="round" stroke-linejoin="round" d="M11.71875 7.5c0 0.37293750000000003 0.1481875 0.7306250000000001 0.411875 0.994375 0.26375 0.2636875 0.6214375 0.411875 0.994375 0.411875s0.7306250000000001 -0.1481875 0.994375 -0.411875c0.2636875 -0.26375 0.411875 -0.6214375 0.411875 -0.994375s-0.1481875 -0.7306250000000001 -0.411875 -0.994375c-0.26375 -0.26371875 -0.6214375 -0.411875 -0.994375 -0.411875s-0.7306250000000001 0.14815625000000002 -0.994375 0.411875c-0.2636875 0.26375 -0.411875 0.6214375 -0.411875 0.994375Z" stroke-width="1"></path><path stroke="#ffffff" stroke-linecap="round" stroke-linejoin="round" d="M6.09375 13.125c0 0.37293750000000003 0.14815625000000002 0.7306250000000001 0.411875 0.994375 0.26375 0.2636875 0.6214375 0.411875 0.994375 0.411875s0.7306250000000001 -0.1481875 0.994375 -0.411875c0.2636875 -0.26375 0.411875 -0.6214375 0.411875 -0.994375s-0.1481875 -0.7306250000000001 -0.411875 -0.994375c-0.26375 -0.2636875 -0.6214375 -0.411875 -0.994375 -0.411875s-0.7306250000000001 0.1481875 -0.994375 0.411875c-0.26371875 0.26375 -0.411875 0.6214375 -0.411875 0.994375Z" stroke-width="1"></path></svg>