<svg xmlns="http://www.w3.org/2000/svg" fill="none" viewBox="-0.5 -0.5 16 16" id="Dial-Finger-1--Streamline-Ultimate.svg" height="16" width="16"><desc>Dial Finger 1 Streamline Icon: https://streamlinehq.com</desc><path stroke="#ffffff" stroke-linecap="round" stroke-linejoin="round" d="m4.21875625 14.0625 -1.1875 -2.0793749999999998c-0.1795625 -0.3184375 -0.22884374999999998 -0.6940625 -0.13751249999999998 -1.0480625000000001 0.09133749999999999 -0.3539375 0.3161875 -0.6588125 0.6274000000000001 -0.8506875 0.31121875 -0.1918125 0.68461875 -0.2556875 1.04189375 -0.1781875 0.357275 0.0775 0.670675 0.29031250000000003 0.8744687499999999 0.5938125L6.5625 12.1875V5.15625c0 -0.37296250000000003 0.1481875 -0.73064375 0.411875 -0.9943687499999999C7.238125 3.89815625 7.5958125 3.75 7.96875 3.75s0.7306250000000001 0.14815625000000002 0.994375 0.41188125c0.26375 0.263725 0.411875 0.6214062499999999 0.411875 0.9943687499999999v5.15625h2.111875c0.696625 0.0339375 1.35325 0.33543749999999994 1.8330625 0.8415625 0.47981250000000003 0.5061249999999999 0.7458125 1.177875 0.7425625 1.8753125000000002V14.0625" stroke-width="1"></path><path stroke="#ffffff" d="M1.171875 1.40625c-0.12944375 0 -0.234375 -0.10493125 -0.234375 -0.234375s0.10493125 -0.234375 0.234375 -0.234375" stroke-width="1"></path><path stroke="#ffffff" d="M1.171875 1.40625c0.12944375 0 0.234375 -0.10493125 0.234375 -0.234375S1.30131875 0.9375 1.171875 0.9375" stroke-width="1"></path><path stroke="#ffffff" d="M4.453125 1.40625c-0.12944375 0 -0.234375 -0.10493125 -0.234375 -0.234375s0.10493125 -0.234375 0.234375 -0.234375" stroke-width="1"></path><path stroke="#ffffff" d="M4.453125 1.40625c0.12944375 0 0.234375 -0.10493125 0.234375 -0.234375S4.58256875 0.9375 4.453125 0.9375" stroke-width="1"></path><path stroke="#ffffff" d="M1.171875 4.6875c-0.12944375 0 -0.234375 -0.10493125 -0.234375 -0.234375s0.10493125 -0.234375 0.234375 -0.234375" stroke-width="1"></path><path stroke="#ffffff" d="M1.171875 4.6875c0.12944375 0 0.234375 -0.10493125 0.234375 -0.234375s-0.10493125 -0.234375 -0.234375 -0.234375" stroke-width="1"></path><path stroke="#ffffff" d="M4.453125 4.6875c-0.12944375 0 -0.234375 -0.10493125 -0.234375 -0.234375s0.10493125 -0.234375 0.234375 -0.234375" stroke-width="1"></path><path stroke="#ffffff" d="M4.453125 4.6875c0.12944375 0 0.234375 -0.10493125 0.234375 -0.234375s-0.10493125 -0.234375 -0.234375 -0.234375" stroke-width="1"></path><path stroke="#ffffff" d="M1.171875 7.96875c-0.12944375 0 -0.234375 -0.10493749999999999 -0.234375 -0.234375S1.0424312500000001 7.5 1.171875 7.5" stroke-width="1"></path><path stroke="#ffffff" d="M1.171875 7.96875c0.12944375 0 0.234375 -0.10493749999999999 0.234375 -0.234375S1.30131875 7.5 1.171875 7.5" stroke-width="1"></path><path stroke="#ffffff" d="M4.453125 7.96875c-0.12944375 0 -0.234375 -0.10493749999999999 -0.234375 -0.234375S4.32368125 7.5 4.453125 7.5" stroke-width="1"></path><path stroke="#ffffff" d="M4.453125 7.96875c0.12944375 0 0.234375 -0.10493749999999999 0.234375 -0.234375S4.58256875 7.5 4.453125 7.5" stroke-width="1"></path><path stroke="#ffffff" d="M7.734375 1.40625c-0.1294375 0 -0.234375 -0.10493125 -0.234375 -0.234375s0.10493749999999999 -0.234375 0.234375 -0.234375" stroke-width="1"></path><path stroke="#ffffff" d="M7.734375 1.40625c0.1294375 0 0.234375 -0.10493125 0.234375 -0.234375s-0.10493749999999999 -0.234375 -0.234375 -0.234375" stroke-width="1"></path></svg>