<svg xmlns="http://www.w3.org/2000/svg" fill="none" viewBox="-0.5 -0.5 16 16" id="Direction-Button-2--Streamline-Ultimate.svg" height="16" width="16"><desc>Direction Button 2 Streamline Icon: https://streamlinehq.com</desc><path stroke="#ffffff" stroke-linecap="round" stroke-linejoin="round" d="M5.625 7.498749999999999c0 0.4973125 0.19754375000000002 0.97425 0.549175 1.325875 0.3516375 0.35162499999999997 0.8285750000000001 0.5491250000000001 1.325825 0.5491250000000001 0.49724999999999997 0 0.9741875 -0.1975 1.3258125 -0.5491250000000001 0.35162499999999997 -0.35162499999999997 0.5491875 -0.8285625000000001 0.5491875 -1.325875 0 -0.49724999999999997 -0.1975625 -0.9741875 -0.5491875 -1.3257937499999999 -0.35162499999999997 -0.35163125000000006 -0.8285625000000001 -0.549175 -1.3258125 -0.549175 -0.49724999999999997 0 -0.9741875 0.19754375000000002 -1.325825 0.549175C5.8225437499999995 6.5245625 5.625 7.0015 5.625 7.498749999999999Z" stroke-width="1"></path><path stroke="#ffffff" stroke-linecap="round" stroke-linejoin="round" d="M0.64124375 7.105625c-0.054338750000000005 0.049937499999999996 -0.09771625 0.11068750000000001 -0.1273875 0.17831249999999998 -0.029671875 0.067625 -0.044991875 0.140625 -0.044991875 0.2145 0 0.0738125 0.01532 0.1468125 0.044991875 0.2144375 0.029671250000000003 0.067625 0.07304875 0.128375 0.1273875 0.178375l1.94875 1.7862500000000001c0.058918750000000006 0.054000000000000006 0.13225625 0.08968749999999999 0.21110625 0.1028125 0.07884375 0.013125000000000001 0.1598 0.0030625 0.233025 -0.028999999999999998 0.07321875 -0.0320625 0.13555625 -0.0846875 0.17943125000000001 -0.1515 0.04386875 -0.0668125 0.0673875 -0.1449375 0.0676875 -0.22481250000000003V5.62496875c-0.00005625000000000001 -0.08003125 -0.0234 -0.15831874999999998 -0.06718125 -0.22531875 -0.043775 -0.067 -0.1061 -0.11981875 -0.17936875000000002 -0.1520125 -0.07327499999999999 -0.0322 -0.15433125 -0.0423875 -0.23328749999999998 -0.02931875 -0.0789625 0.0130625 -0.15241875 0.04881875 -0.2114125 0.1029l-1.94875 1.78440625Z" stroke-width="1"></path><path stroke="#ffffff" stroke-linecap="round" stroke-linejoin="round" d="M14.358125 7.891249999999999c0.0545 -0.049874999999999996 0.09806250000000001 -0.11056250000000001 0.1278125 -0.1781875 0.0298125 -0.067625 0.045187500000000005 -0.1406875 0.045187500000000005 -0.21462499999999998 0 -0.073875 -0.015375 -0.1469375 -0.045187500000000005 -0.2145625 -0.029750000000000002 -0.067625 -0.0733125 -0.1283125 -0.1278125 -0.17825000000000002l-1.948125 -1.78623125c-0.059125000000000004 -0.05419375 -0.13275 -0.08998124999999998 -0.211875 -0.10298125 -0.079125 -0.013006249999999999 -0.1603125 -0.00265625 -0.2336875 0.02976875 -0.0733125 0.03243125 -0.135625 0.08553125 -0.17925 0.15281875 -0.043687500000000004 0.06728125 -0.06675 0.145825 -0.06643750000000001 0.22601875V9.375c-0.000125 0.0800625 0.023125 0.15837500000000002 0.0668125 0.2254375 0.043687500000000004 0.0670625 0.106 0.11993749999999999 0.17925 0.152125 0.07325 0.03225 0.15431250000000002 0.0424375 0.23324999999999999 0.0293125 0.07900000000000001 -0.013125000000000001 0.15237499999999998 -0.048937499999999995 0.21131250000000001 -0.10312500000000001l1.94875 -1.7874999999999999Z" stroke-width="1"></path><path stroke="#ffffff" stroke-linecap="round" stroke-linejoin="round" d="M7.1075 14.356875c0.049812499999999996 0.05462500000000001 0.110375 0.0981875 0.178 0.1280625 0.0675625 0.0298125 0.140625 0.045187500000000005 0.2145 0.045187500000000005s0.1469375 -0.015375 0.2145 -0.045187500000000005c0.067625 -0.029875000000000002 0.12825 -0.07343749999999999 0.178 -0.1280625l1.7862500000000001 -1.94875c0.0541875 -0.058875000000000004 0.09 -0.1323125 0.10312500000000001 -0.21125000000000002 0.0130625 -0.0789375 0.0029375 -0.16 -0.0293125 -0.2333125 -0.03225 -0.07325 -0.0850625 -0.1355 -0.152125 -0.17925 -0.0670625 -0.043687500000000004 -0.145375 -0.066875 -0.2254375 -0.0668125H5.62500625c-0.07996875 0.0000625 -0.15819375 0.023375 -0.22516250000000002 0.0670625 -0.06696875 0.043687500000000004 -0.11979375 0.1059375 -0.15204374999999998 0.179125 -0.03225 0.0731875 -0.0425375 0.154125 -0.02960625 0.2330625 0.01293125 0.078875 0.04851875 0.15237499999999998 0.10243749999999999 0.211375l1.78686875 1.94875Z" stroke-width="1"></path><path stroke="#ffffff" stroke-linecap="round" stroke-linejoin="round" d="M7.8925 0.64001875c-0.049874999999999996 -0.054411875 -0.11050000000000001 -0.097855625 -0.17812499999999998 -0.127575 -0.0675625 -0.029719999999999996 -0.14056249999999998 -0.045066875000000006 -0.214375 -0.045066875000000006 -0.0738125 0 -0.1468125 0.015346875 -0.214375 0.045066875000000006 -0.0675625 0.029719375000000003 -0.12825 0.073163125 -0.17812499999999998 0.127575l-1.7862437500000001 1.94875c-0.05408125 0.05899375 -0.0898375 0.13244375 -0.1029 0.21140625 -0.01306875 0.0789625 -0.00288125 0.1600125 0.02931875 0.23328749999999998 0.03219375 0.07326875 0.0850125 0.13559375 0.1520125 0.17937499999999998 0.067 0.043775 0.1452875 0.06711875 0.22531875 0.067175H9.375c0.0800625 -0.00005625000000000001 0.15831250000000002 -0.0234 0.2253125 -0.067175 0.067 -0.04378125 0.1198125 -0.10610625 0.152 -0.17937499999999998 0.03225 -0.07327499999999999 0.0424375 -0.154325 0.029375 -0.23328749999999998 -0.0130625 -0.0789625 -0.048875 -0.1524125 -0.10293750000000002 -0.21140625l-1.7862500000000001 -1.94875Z" stroke-width="1"></path></svg>