<svg xmlns="http://www.w3.org/2000/svg" fill="none" viewBox="-0.5 -0.5 16 16" id="Direction-Button-3--Streamline-Ultimate.svg" height="16" width="16"><desc>Direction Button 3 Streamline Icon: https://streamlinehq.com</desc><path stroke="#ffffff" stroke-linecap="round" stroke-linejoin="round" d="M8.4375 14.5299375h-1.875c-0.24862499999999998 0 -0.48710000000000003 -0.09875 -0.6629125 -0.27456250000000004C5.723775 14.0795625 5.625 13.841125000000002 5.625 13.5924375v-2.6187500000000004c0.00008125 -0.124125 0.0492875 -0.2431875 0.136875 -0.33125000000000004l1.40625 -1.40625c0.0435625 -0.0435 0.09525 -0.07806249999999999 0.152125 -0.10168750000000001 0.056874999999999995 -0.0235625 0.117875 -0.0356875 0.17943750000000003 -0.0356875 0.061562500000000006 0 0.12256249999999999 0.012125 0.17943750000000003 0.0356875 0.056874999999999995 0.023625 0.10856249999999999 0.0581875 0.152125 0.10168750000000001l1.40625 1.40625c0.0435625 0.0435 0.078125 0.095125 0.10175000000000001 0.1519375 0.0235625 0.056874999999999995 0.035750000000000004 0.1178125 0.035750000000000004 0.17931249999999999v2.6187500000000004c0 0.24868749999999998 -0.09875 0.487125 -0.27456250000000004 0.6629375s-0.41431250000000003 0.27456250000000004 -0.6629375 0.27456250000000004Z" stroke-width="1"></path><path stroke="#ffffff" stroke-linecap="round" stroke-linejoin="round" d="M6.5625 0.467529375h1.875c0.12312500000000001 0 0.245 0.024249375 0.35874999999999996 0.071363125 0.11374999999999999 0.04711375 0.21712499999999998 0.11617000000000001 0.3041875 0.20322625 0.087 0.08704999999999999 0.1560625 0.1904 0.2031875 0.30414375 0.047125 0.11374375 0.071375 0.23565 0.071375 0.35876875v2.618125c0.0000625 0.06155 -0.0120625 0.12250625 -0.0356875 0.17935 -0.0235625 0.05685 -0.0581875 0.10847499999999999 -0.1018125 0.1519l-1.40625 1.40625c-0.0435625 0.043556250000000005 -0.09525 0.0781125 -0.152125 0.10168750000000001 -0.056874999999999995 0.023575 -0.117875 0.0357125 -0.17943750000000003 0.0357125 -0.061562500000000006 0 -0.12256249999999999 -0.012137499999999999 -0.17943750000000003 -0.0357125 -0.056874999999999995 -0.023575 -0.10856249999999999 -0.058131249999999995 -0.152125 -0.10168750000000001l-1.40625 -1.40625c-0.08770625000000001 -0.087925 -0.13693125 -0.20706249999999998 -0.136875 -0.33125000000000004v-2.618125c0 -0.24864375 0.098775 -0.48710000000000003 0.2745875 -0.6629125C6.0754 0.56630125 6.3138749999999995 0.467529375 6.5625 0.467529375Z" stroke-width="1"></path><path stroke="#ffffff" stroke-linecap="round" stroke-linejoin="round" d="M14.53125 6.5625v1.875c0 0.24862499999999998 -0.09875 0.487125 -0.27456250000000004 0.6629375S13.842375 9.375 13.59375 9.375h-2.618125c-0.1244375 0 -0.243875 -0.0495 -0.33187500000000003 -0.1375l-1.40625 -1.40625c-0.0435625 -0.0435625 -0.078125 -0.09525 -0.10168750000000001 -0.152125 -0.0235625 -0.056874999999999995 -0.0356875 -0.117875 -0.0356875 -0.17943750000000003 0 -0.061562500000000006 0.012125 -0.12256249999999999 0.0356875 -0.17943750000000003 0.0235625 -0.056874999999999995 0.058124999999999996 -0.10856249999999999 0.10168750000000001 -0.152125l1.40625 -1.40625c0.08825 -0.087625 0.2075625 -0.136825 0.33187500000000003 -0.136875h2.618125c0.24862499999999998 0 0.487125 0.098775 0.6629375 0.2745875s0.27456250000000004 0.41428750000000003 0.27456250000000004 0.6629125Z" stroke-width="1"></path><path stroke="#ffffff" stroke-linecap="round" stroke-linejoin="round" d="M0.468751875 8.905v-2.8125c0.00033062499999999997 -0.12410625 0.049863125 -0.2430125 0.137734375 -0.33065C0.69435625 5.674212499999999 0.8133999999999999 5.625 0.9375 5.625h3.086875c0.12418749999999999 -0.00005625000000000001 0.243325 0.049168750000000004 0.33125000000000004 0.136875l1.40625 1.40625c0.0435625 0.0435625 0.07811875 0.09525 0.10169375 0.152125 0.023575 0.056874999999999995 0.03570625 0.117875 0.03570625 0.17943750000000003 0 0.061562500000000006 -0.01213125 0.12256249999999999 -0.03570625 0.17943750000000003 -0.023575 0.056874999999999995 -0.058131249999999995 0.10856249999999999 -0.10169375 0.152125l-1.40625 1.40625c-0.043425 0.043625 -0.09504375000000001 0.07825 -0.15189375 0.1018125 -0.05685 0.023625 -0.1178 0.035750000000000004 -0.17935625 0.0356875H0.9375c-0.061662499999999995 0 -0.12271875 -0.0121875 -0.17966875 -0.0358125 -0.05695625 -0.023625 -0.10868749999999999 -0.05825 -0.15222875 -0.1019375 -0.04354375 -0.043625 -0.078045625 -0.09543750000000001 -0.10152875 -0.1525 -0.023483125 -0.057 -0.035486250000000004 -0.11806250000000001 -0.035321875 -0.17975000000000002Z" stroke-width="1"></path></svg>