<svg xmlns="http://www.w3.org/2000/svg" fill="none" viewBox="-0.5 -0.5 16 16" id="Division-Math-Symbol-Circle--Streamline-Ultimate.svg" height="16" width="16"><desc>Division Math Symbol Circle Streamline Icon: https://streamlinehq.com</desc><path stroke="#ffffff" stroke-linecap="round" stroke-linejoin="round" stroke-miterlimit="10" d="M7.5 14.375c3.7969375 0 6.875 -3.0780000000000003 6.875 -6.8749375C14.375 3.70308125 11.296937499999999 0.625 7.5 0.625 3.7030374999999998 0.625 0.625 3.70308125 0.625 7.5000625 0.625 11.296999999999999 3.7030374999999998 14.375 7.5 14.375Z" stroke-width="1"></path><path stroke="#ffffff" stroke-linecap="round" stroke-linejoin="round" stroke-miterlimit="10" d="M4.04724375 7.4695H10.95275" stroke-width="1"></path><path stroke="#ffffff" stroke-linecap="round" stroke-linejoin="round" stroke-miterlimit="10" d="M7.4694375 4.1693125c-0.2444375 0 -0.42775 0.1833 -0.42775 0.42775 0 0.24444375000000002 0.1833125 0.42781874999999997 0.42775 0.42781874999999997" stroke-width="1"></path><path stroke="#ffffff" stroke-linecap="round" stroke-linejoin="round" stroke-miterlimit="10" d="M7.4694375 4.1693125c0.2445 0 0.4278125 0.1833 0.4278125 0.42775 0 0.24444375000000002 -0.1833125 0.42781874999999997 -0.4278125 0.42781874999999997" stroke-width="1"></path><path stroke="#ffffff" stroke-linecap="round" stroke-linejoin="round" stroke-miterlimit="10" d="M7.4694375 10.708375c-0.2444375 0 -0.42775 -0.18325000000000002 -0.42775 -0.42775 0 -0.2444375 0.1833125 -0.42775 0.42775 -0.42775" stroke-width="1"></path><path stroke="#ffffff" stroke-linecap="round" stroke-linejoin="round" stroke-miterlimit="10" d="M7.4694375 10.708375c0.2445 0 0.4278125 -0.18325000000000002 0.4278125 -0.42775 0 -0.2444375 -0.1833125 -0.42775 -0.4278125 -0.42775" stroke-width="1"></path></svg>