<svg xmlns="http://www.w3.org/2000/svg" fill="none" viewBox="-0.5 -0.5 16 16" id="Expand-Full--Streamline-Ultimate.svg" height="16" width="16"><desc>Expand Full Streamline Icon: https://streamlinehq.com</desc><path stroke="#ffffff" stroke-linecap="round" stroke-linejoin="round" d="M0.46875 5.1550312499999995v-3.75c0 -0.24864375 0.09877187500000001 -0.48710000000000003 0.2745875 -0.6629125C0.9191499999999999 0.56630125 1.1576125 0.467529375 1.40625 0.467529375h3.75" stroke-width="1"></path><path stroke="#ffffff" stroke-linecap="round" stroke-linejoin="round" d="M14.53125 5.1550312499999995v-3.75c0 -0.24864375 -0.09875 -0.48710000000000003 -0.27456250000000004 -0.6629125 -0.17581249999999998 -0.17581750000000002 -0.41431250000000003 -0.27458937499999997 -0.6629375 -0.27458937499999997h-3.75" stroke-width="1"></path><path stroke="#ffffff" stroke-linecap="round" stroke-linejoin="round" d="M0.46875 9.8425v3.75c0 0.24868749999999998 0.09877187500000001 0.487125 0.2745875 0.6629375 0.17581249999999998 0.17581249999999998 0.414275 0.27456250000000004 0.6629125 0.27456250000000004h3.75" stroke-width="1"></path><path stroke="#ffffff" stroke-linecap="round" stroke-linejoin="round" d="M14.53125 9.8425v3.75c0 0.24868749999999998 -0.09875 0.487125 -0.27456250000000004 0.6629375s-0.41431250000000003 0.27456250000000004 -0.6629375 0.27456250000000004h-3.75" stroke-width="1"></path><path stroke="#ffffff" stroke-linecap="round" stroke-linejoin="round" d="M3.28125 3.28003125h8.4375V11.717500000000001H3.28125V3.28003125Z" stroke-width="1"></path></svg>