<svg xmlns="http://www.w3.org/2000/svg" fill="none" viewBox="-0.5 -0.5 16 16" id="Face-Id-1--Streamline-Ultimate.svg" height="16" width="16"><desc>Face Id 1 Streamline Icon: https://streamlinehq.com</desc><path stroke="#ffffff" stroke-linecap="round" stroke-linejoin="round" d="M0.46875 7.5c0 1.8648124999999998 0.7407874999999999 3.65325 2.05940625 4.971875C3.84676875 13.7904375 5.635193750000001 14.53125 7.5 14.53125c1.8648124999999998 0 3.65325 -0.7408125 4.971875 -2.059375 1.3185625 -1.318625 2.059375 -3.1070625 2.059375 -4.971875 0 -1.86480625 -0.7408125 -3.65323125 -2.059375 -4.97184375C11.15325 1.2095375 9.364812500000001 0.46875 7.5 0.46875c-1.86480625 0 -3.65323125 0.7407874999999999 -4.97184375 2.05940625C1.2095375 3.84676875 0.46875 5.635193750000001 0.46875 7.5Z" stroke-width="1"></path><path stroke="#ffffff" stroke-linecap="round" stroke-linejoin="round" d="M4.6875 10.629375000000001c0.7689875 0.7009375 1.772 1.0894375 2.8125 1.0894375s2.0435 -0.3885 2.8125 -1.0894375" stroke-width="1"></path><path stroke="#ffffff" stroke-linecap="round" stroke-linejoin="round" d="M4.21875 4.21875V5.625" stroke-width="1"></path><path stroke="#ffffff" stroke-linecap="round" stroke-linejoin="round" d="M10.78125 4.21875V5.625" stroke-width="1"></path><path stroke="#ffffff" stroke-linecap="round" stroke-linejoin="round" d="M7.5 4.21875V7.5c0 0.24862499999999998 -0.09875 0.487125 -0.27456250000000004 0.6629375S6.8111250000000005 8.4375 6.5625 8.4375h-0.46875" stroke-width="1"></path></svg>