<svg xmlns="http://www.w3.org/2000/svg" fill="none" viewBox="-0.5 -0.5 16 16" id="Filter-1--Streamline-Ultimate.svg" height="16" width="16"><desc>Filter 1 Streamline Icon: https://streamlinehq.com</desc><path stroke="#ffffff" stroke-linecap="round" stroke-linejoin="round" d="M14.5 1.28369375c0.0041875 -0.0640125 -0.0048125 -0.1282 -0.026375000000000003 -0.1886 -0.021625 -0.06040625 -0.055375 -0.11574374999999999 -0.09918750000000001 -0.16259374999999998 -0.0438125 -0.046856249999999995 -0.09675 -0.0842375 -0.1555625 -0.10983124999999999 -0.058812500000000004 -0.02559375 -0.12225 -0.03885625 -0.186375 -0.038974999999999996H0.93748125c-0.06416875 0.000025 -0.12765 0.01323125 -0.18651250000000003 0.03879375 -0.0588625 0.0255625 -0.11185 0.0629375 -0.15567562499999998 0.1098125 -0.043827500000000005 0.046875 -0.07756375 0.10225 -0.099118125 0.16269375 -0.021554999999999998 0.060443750000000004 -0.030469375 0.12466875000000001 -0.02619125 0.1887 0.109925625 1.530625 0.7174037499999999 2.9833125 1.72981 4.13654375 1.01240625 1.1532 2.3741875 1.9436999999999998 3.8776875 2.25095v6.171875c0.0000375 0.08906249999999999 0.02544375 0.1763125 0.07325625 0.2514375 0.04780625 0.075125 0.1160125 0.135125 0.19669999999999999 0.172875 0.0806875 0.0378125 0.1704375 0.0518125 0.25875 0.040437499999999994 0.088375 -0.0114375 0.171625 -0.04775 0.2400625 -0.10475l1.875 -1.5625c0.052812500000000005 -0.043937500000000004 0.09537500000000002 -0.0989375 0.1245625 -0.1611875 0.029125 -0.06218750000000001 0.04425 -0.1300625 0.0441875 -0.1988125v-4.609375c1.504 -0.306625 2.8663749999999997 -1.0968749999999998 3.8793125 -2.2501937499999998C13.782187500000001 4.2677 14.39 2.8147 14.5 1.28369375Z" stroke-width="1"></path></svg>