<svg xmlns="http://www.w3.org/2000/svg" fill="none" viewBox="-0.5 -0.5 16 16" id="Flash-Off--Streamline-Ultimate.svg" height="16" width="16"><desc>Flash Off Streamline Icon: https://streamlinehq.com</desc><path stroke="#ffffff" stroke-linecap="round" stroke-linejoin="round" d="m9.6 9.6 1.5562500000000001 -2.5c0.054875 -0.095 0.08375 -0.2028125 0.08375 -0.3125s-0.028874999999999998 -0.21749999999999997 -0.08375 -0.3125c-0.0446875 -0.106375 -0.118 -0.19837500000000002 -0.21175 -0.26564375 -0.09381250000000001 -0.06729375 -0.204375 -0.10730625 -0.3195 -0.11560625h-2.1875v-5.625L5.400006250000001 5.4" stroke-width="1"></path><path stroke="#ffffff" stroke-linecap="round" stroke-linejoin="round" d="m4.37503125 7.03125 -0.55625 0.8999999999999999c-0.05485625 0.095 -0.08373749999999999 0.2028125 -0.08373749999999999 0.3125s0.02888125 0.21749999999999997 0.08373749999999999 0.3125c0.05446875 0.0995625 0.135025 0.1824375 0.233025 0.2396875 0.09799375 0.05725 0.2097375 0.08675000000000001 0.323225 0.08531250000000001H6.5625v5.625L8.58125 11.25" stroke-width="1"></path><path stroke="#ffffff" stroke-linecap="round" stroke-linejoin="round" d="m1.40625 1.40625 12.1875 12.1875" stroke-width="1"></path></svg>