<svg xmlns="http://www.w3.org/2000/svg" fill="none" viewBox="-0.5 -0.5 16 16" id="Flip-Vertical-Down--Streamline-Ultimate.svg" height="16" width="16"><desc>Flip Vertical Down Streamline Icon: https://streamlinehq.com</desc><path stroke="#ffffff" stroke-linecap="round" stroke-linejoin="round" d="m5.714381250000001 10.7799375 2.75249375 0.32937500000000003 0.415625 -2.779375" stroke-width="1"></path><path stroke="#ffffff" stroke-linecap="round" stroke-linejoin="round" d="M0.46875 6.0925312499999995v-4.6875c0 -0.24864375 0.09877187500000001 -0.48710000000000003 0.2745875 -0.6629125C0.9191499999999999 0.56630125 1.1576125 0.467529375 1.40625 0.467529375h12.1875c0.24862499999999998 0 0.487125 0.09877187500000001 0.6629375 0.27458937499999997 0.17581249999999998 0.17581249999999998 0.27456250000000004 0.41426875 0.27456250000000004 0.6629125v4.6875" stroke-width="1"></path><path stroke="#ffffff" stroke-linecap="round" stroke-linejoin="round" d="M0.46875 7.967499999999999h2.8125" stroke-width="1"></path><path stroke="#ffffff" stroke-linecap="round" stroke-linejoin="round" d="M10.78125 7.967499999999999h3.75" stroke-width="1"></path><path stroke="#ffffff" stroke-linecap="round" stroke-linejoin="round" d="M0.46875 10.780000000000001v-0.9375" stroke-width="1"></path><path stroke="#ffffff" stroke-linecap="round" stroke-linejoin="round" d="M14.53125 10.780000000000001v-0.9375" stroke-width="1"></path><path stroke="#ffffff" stroke-linecap="round" stroke-linejoin="round" d="M3.28125 14.530000000000001h0.9375" stroke-width="1"></path><path stroke="#ffffff" stroke-linecap="round" stroke-linejoin="round" d="M7.03125 14.530000000000001h0.9375" stroke-width="1"></path><path stroke="#ffffff" stroke-linecap="round" stroke-linejoin="round" d="M10.78125 14.530000000000001h0.9375" stroke-width="1"></path><path stroke="#ffffff" stroke-linecap="round" stroke-linejoin="round" d="M1.40625 14.530000000000001c-0.2486375 0 -0.48710000000000003 -0.09875 -0.6629125 -0.27456250000000004C0.5675218750000001 14.079625 0.46875 13.8411875 0.46875 13.592500000000001" stroke-width="1"></path><path stroke="#ffffff" stroke-linecap="round" stroke-linejoin="round" d="M14.53125 13.592500000000001c0 0.24868749999999998 -0.09875 0.487125 -0.27456250000000004 0.6629375s-0.41431250000000003 0.27456250000000004 -0.6629375 0.27456250000000004" stroke-width="1"></path><path stroke="#ffffff" stroke-linecap="round" stroke-linejoin="round" d="M9.375 3.5206625000000003c-0.8226875 0.29114999999999996 -1.534875 0.83015 -2.0385625 1.54279375 -0.5036875 0.71265 -0.7740625 1.56391875 -0.7739375 2.43660625 0.010375 0.7093125 0.18825000000000003 1.4061875 0.51925 2.033625 0.3309375 0.6275 0.8055625 1.167875 1.3851250000000002 1.577" stroke-width="1"></path></svg>