<svg xmlns="http://www.w3.org/2000/svg" fill="none" viewBox="-0.5 -0.5 16 16" id="Flow-Chart-Hierachy--Streamline-Ultimate.svg" height="16" width="16"><desc>Flow Chart Hierachy Streamline Icon: https://streamlinehq.com</desc><path stroke="#ffffff" stroke-linecap="round" stroke-linejoin="round" stroke-miterlimit="10" d="M10.09375 4.0000124999999995H4.968775c-1 0 -1.7500125 -0.812525 -1.7500125 -1.750025 0 -1 0.8125125 -1.749956875 1.7500125 -1.749956875H10.09375c1 0 1.75 0.812456875 1.75 1.749956875s-0.8125 1.750025 -1.75 1.750025Z" stroke-width="1"></path><path stroke="#ffffff" stroke-linecap="round" stroke-linejoin="round" stroke-miterlimit="10" d="M13.0936875 9.9375H1.9062062499999999c-0.1875 0 -0.3125 -0.125 -0.3125 -0.3125v-2.9375c0 -0.1875 0.125 -0.3125 0.3125 -0.3125H13.0936875c0.1875 0 0.3125 0.125 0.3125 0.3125v2.9375c0 0.1875 -0.125 0.3125 -0.3125 0.3125Z" stroke-width="1"></path><path stroke="#ffffff" stroke-linecap="round" stroke-linejoin="round" stroke-miterlimit="10" d="M7.5311875 4.00009375v2.37496875" stroke-width="1"></path><path stroke="#ffffff" stroke-linecap="round" stroke-linejoin="round" stroke-miterlimit="10" d="M7.5311875 9.9375625v4.5625" stroke-width="1"></path><path stroke="#ffffff" stroke-linecap="round" stroke-linejoin="round" stroke-miterlimit="10" d="m9.46875 12.5 -1.9375 2L5.5312375000000005 12.5" stroke-width="1"></path></svg>