<svg xmlns="http://www.w3.org/2000/svg" fill="none" viewBox="-0.5 -0.5 16 16" id="Font-Size--Streamline-Ultimate.svg" height="16" width="16"><desc>Font Size Streamline Icon: https://streamlinehq.com</desc><path stroke="#ffffff" stroke-linecap="round" stroke-linejoin="round" d="M0.46875 7.968125000000001h6.5625" stroke-width="1"></path><path stroke="#ffffff" stroke-linecap="round" stroke-linejoin="round" d="M9.84375 10.780624999999999h4.6875" stroke-width="1"></path><path stroke="#ffffff" stroke-linecap="round" stroke-linejoin="round" d="M9.84375 13.593124999999999V8.4375c0 -0.621625 0.2469375 -1.2177499999999999 0.6864375 -1.6573125 0.4395625 -0.4395 1.0356875 -0.6864375 1.6573125 -0.6864375 0.621625 0 1.2177499999999999 0.2469375 1.6573125 0.6864375 0.4395 0.4395625 0.6864375 1.0356875 0.6864375 1.6573125v5.15625" stroke-width="1"></path><path stroke="#ffffff" stroke-linecap="round" stroke-linejoin="round" d="M0.46875 13.593124999999999V4.6875c0 -0.87024375 0.34569999999999995 -1.7048375 0.96105625 -2.32019375C2.0451625 1.75195 2.8797562500000002 1.40625 3.75 1.40625c0.87024375 0 1.7048375 0.34569999999999995 2.32019375 0.96105625C6.6855625 2.9826625 7.03125 3.8172562500000002 7.03125 4.6875v8.90625" stroke-width="1"></path></svg>