<svg xmlns="http://www.w3.org/2000/svg" fill="none" viewBox="-0.5 -0.5 16 16" id="Gauge-Dashboard--Streamline-Ultimate.svg" height="16" width="16"><desc>Gauge Dashboard Streamline Icon: https://streamlinehq.com</desc><path stroke="#ffffff" stroke-linecap="round" stroke-linejoin="round" d="M7.5000625 2.8125c-0.9304999999999999 0.007031249999999999 -1.8504625 0.19728125 -2.70740625 0.5598875 -0.85694375 0.36260624999999996 -1.6340625 0.8904624999999999 -2.2869875 1.55343125C1.85274375 5.58878125 1.33680625 6.373875 0.98731875 7.23625s-0.52567875 1.7851249999999999 -0.51851125 2.7156249999999997V11.25c0 0.24862499999999998 0.09877250000000001 0.487125 0.27458625000000003 0.6629375 0.17581875 0.17581249999999998 0.414275 0.27456250000000004 0.6629125 0.27456250000000004H13.5938125c0.24862499999999998 0 0.4870625 -0.09875 0.6629375 -0.27456250000000004 0.17581249999999998 -0.17581249999999998 0.27456250000000004 -0.41431250000000003 0.27456250000000004 -0.6629375v-1.3c0.014 -1.878875 -0.7189375 -3.6863125 -2.0375625 -5.02484375C11.1751875 3.5866375 9.3789375 2.8266999999999998 7.5000625 2.8125Z" stroke-width="1"></path><path stroke="#ffffff" stroke-linecap="round" stroke-linejoin="round" d="M5.625 12.1875v-0.46875c0 -0.49724999999999997 0.19754375000000002 -0.9741875 0.549175 -1.3258125C6.5258125 10.0413125 7.00275 9.84375 7.5 9.84375c0.49724999999999997 0 0.9741875 0.1975625 1.3258125 0.5491875 0.35162499999999997 0.35162499999999997 0.5491875 0.8285625000000001 0.5491875 1.3258125v0.46875" stroke-width="1"></path><path stroke="#ffffff" stroke-linecap="round" stroke-linejoin="round" d="M8.90625 5.6268312499999995 7.5 9.8455625" stroke-width="1"></path><path stroke="#ffffff" d="M3.046875 9.84375c-0.12944375 0 -0.234375 -0.10493749999999999 -0.234375 -0.234375S2.91743125 9.375 3.046875 9.375" stroke-width="1"></path><path stroke="#ffffff" d="M3.046875 9.84375c0.12944375 0 0.234375 -0.10493749999999999 0.234375 -0.234375S3.17631875 9.375 3.046875 9.375" stroke-width="1"></path><path stroke="#ffffff" d="M3.984375 7.5018125c-0.12944375 0 -0.234375 -0.10493749999999999 -0.234375 -0.234375s0.10493125 -0.234375 0.234375 -0.234375" stroke-width="1"></path><path stroke="#ffffff" d="M3.984375 7.5018125c0.12944375 0 0.234375 -0.10493749999999999 0.234375 -0.234375s-0.10493125 -0.234375 -0.234375 -0.234375" stroke-width="1"></path><path stroke="#ffffff" d="M5.859375 5.6268312499999995c-0.12944375 0 -0.234375 -0.10493125 -0.234375 -0.234375s0.10493125 -0.234375 0.234375 -0.234375" stroke-width="1"></path><path stroke="#ffffff" d="M5.859375 5.6268312499999995c0.12944375 0 0.234375 -0.10493125 0.234375 -0.234375s-0.10493125 -0.234375 -0.234375 -0.234375" stroke-width="1"></path><path stroke="#ffffff" d="M11.015625 7.5c-0.1294375 0 -0.234375 -0.10493749999999999 -0.234375 -0.234375s0.10493749999999999 -0.234375 0.234375 -0.234375" stroke-width="1"></path><path stroke="#ffffff" d="M11.015625 7.5c0.1294375 0 0.234375 -0.10493749999999999 0.234375 -0.234375s-0.10493749999999999 -0.234375 -0.234375 -0.234375" stroke-width="1"></path><path stroke="#ffffff" d="M11.953125 9.8455625c-0.1294375 0 -0.234375 -0.10493749999999999 -0.234375 -0.234375s0.10493749999999999 -0.234375 0.234375 -0.234375" stroke-width="1"></path><path stroke="#ffffff" d="M11.953125 9.8455625c0.1294375 0 0.234375 -0.10493749999999999 0.234375 -0.234375s-0.10493749999999999 -0.234375 -0.234375 -0.234375" stroke-width="1"></path></svg>