<svg xmlns="http://www.w3.org/2000/svg" fill="none" viewBox="-0.5 -0.5 16 16" id="Gesture-Double-Tap--Streamline-Ultimate.svg" height="16" width="16"><desc>Gesture Double Tap Streamline Icon: https://streamlinehq.com</desc><path stroke="#ffffff" stroke-linecap="round" stroke-linejoin="round" d="m7.113437500000001 14.3895 -2.3212875 -1.8944375c-0.3063125 -0.245 -0.4415625 -0.6461250000000001 -0.3460625 -1.0265625 0.15568749999999998 -0.6224375 0.8475625 -0.9408125 1.4215625 -0.654125l0.7190375 0.36075v-4.1343125c0 -0.507375 0.411375 -0.9186812499999999 0.91875 -0.9186812499999999s0.91875 0.41130625 0.91875 0.9186812499999999v2.7561875000000002l1.2206875 0.20400000000000001c0.886 0.1475625 1.5354375 0.914125 1.5354999999999999 1.8123125v2.577375" stroke-width="1"></path><path stroke="#ffffff" stroke-linecap="round" stroke-linejoin="round" d="M12.1775625 9.0226875C14.414750000000002 5.4219687500000004 11.915 0.7495875000000001 7.6780625 0.6125275 4.56685625 0.5119025 1.99066875 3.0079624999999997 1.9931062499999999 6.120775c0.00037499999999999995 1.1484125 0.36256249999999995 2.267475 1.0350625 3.1984125000000003" stroke-width="1"></path><path stroke="#ffffff" stroke-linecap="round" stroke-linejoin="round" d="M10.1391875 7.95825c1.4201875 -2.02738125 0.11306250000000001 -4.83194375 -2.352875 -5.04813125 -2.4658875 -0.21618749999999998 -4.241075 2.318125 -3.1953875 4.56169375 0.07925 0.1700625 0.17325000000000002 0.33281249999999996 0.280875 0.48643749999999997" stroke-width="1"></path></svg>