<svg xmlns="http://www.w3.org/2000/svg" fill="none" viewBox="-0.5 -0.5 16 16" id="Go-Backward-30-Control--Streamline-Ultimate.svg" height="16" width="16"><desc>Go Backward 30 Control Streamline Icon: https://streamlinehq.com</desc><path stroke="#ffffff" stroke-linecap="round" stroke-linejoin="round" d="M4.443725 2.9288937500000003C2.6348937500000003 3.9825500000000003 1.4191437500000001 5.942825000000001 1.4191437500000001 8.1870625c0 3.358375 2.7225062500000003 6.080875 6.0809187499999995 6.080875 3.358375 0 6.080875 -2.7225 6.080875 -6.080875 0 -3.3583875 -2.7225 -6.08089375 -6.080875 -6.08089375h-1.2115" stroke-width="1"></path><path stroke="#ffffff" stroke-linecap="round" stroke-linejoin="round" d="M7.5 0.7321187499999999 6.12594375 2.10616875 7.5 3.480225" stroke-width="1"></path><path stroke="#ffffff" stroke-linecap="round" stroke-linejoin="round" d="M4.48425 9.6454375c0.15015 0.4248125 0.617525 0.7291875000000001 1.09375 0.7291875000000001 0.6040625000000001 0 1.09375 -0.4896875 1.09375 -1.09375v-0.18231250000000002c0 -0.6040625000000001 -0.4896875 -1.09375 -1.09375 -1.09375h-0.036449999999999996c0.52351875 0 0.9478875 -0.42437500000000006 0.9478875 -0.9479375v-0.1458125c0 -0.503375 -0.40805625 -0.91145625 -0.9114374999999999 -0.91145625 -0.29819375 0 -0.56294375 0.14319375 -0.72923125 0.36458125" stroke-width="1"></path><path stroke="#ffffff" stroke-linecap="round" stroke-linejoin="round" d="M8.32825 7.0478125v2.2785625c0 0.5789375 0.4693125 1.04825 1.0481875 1.04825h0.09112500000000001c0.578875 0 1.0481875 -0.4693125 1.0481875 -1.04825v-2.2785625c0 -0.5789375 -0.4693125 -1.04820625 -1.0481875 -1.04820625h-0.09112500000000001c-0.578875 0 -1.0481875 0.46926875 -1.0481875 1.04820625Z" stroke-width="1"></path></svg>