<svg xmlns="http://www.w3.org/2000/svg" fill="none" viewBox="-0.5 -0.5 16 16" id="Graph-Stats-Circle--Streamline-Ultimate.svg" height="16" width="16"><desc>Graph Stats Circle Streamline Icon: https://streamlinehq.com</desc><path stroke="#ffffff" stroke-linecap="round" stroke-linejoin="round" d="M0.46875 7.5c0 1.8648124999999998 0.7407874999999999 3.65325 2.05940625 4.971875C3.84676875 13.7904375 5.635193750000001 14.53125 7.5 14.53125c1.8648124999999998 0 3.65325 -0.7408125 4.971875 -2.059375 1.3185625 -1.318625 2.059375 -3.1070625 2.059375 -4.971875 0 -1.86480625 -0.7408125 -3.65323125 -2.059375 -4.97184375C11.15325 1.2095375 9.364812500000001 0.46875 7.5 0.46875c-1.86480625 0 -3.65323125 0.7407874999999999 -4.97184375 2.05940625C1.2095375 3.84676875 0.46875 5.635193750000001 0.46875 7.5Z" stroke-width="1"></path><path stroke="#ffffff" stroke-linecap="round" stroke-linejoin="round" d="M2.34375 7.96875h1.875l1.4124999999999999 -3.531275c0.035556250000000005 -0.08803125 0.09704375 -0.163175 0.17629375 -0.21545000000000003 0.07925625 -0.05228125 0.17253125000000002 -0.079225 0.26745625 -0.07725625 0.094925 0.00196875 0.187 0.03275 0.264 0.08826250000000001 0.0770625 0.055518750000000006 0.135375 0.1331375 0.16725 0.22256874999999998l2.0575 5.82815c0.029875000000000002 0.08462499999999999 0.0834375 0.158875 0.15431250000000002 0.2139375 0.0708125 0.055125 0.156 0.0886875 0.245375 0.09675 0.089375 0.008125 0.17925 -0.009625 0.2588125 -0.0510625 0.079625 -0.0414375 0.145625 -0.104875 0.19025 -0.18275l1.36875 -2.3918749999999998h1.875" stroke-width="1"></path></svg>