<svg xmlns="http://www.w3.org/2000/svg" fill="none" viewBox="-0.5 -0.5 16 16" id="Graph-Stats-Descend--Streamline-Ultimate.svg" height="16" width="16"><desc>Graph Stats Descend Streamline Icon: https://streamlinehq.com</desc><path stroke="#ffffff" stroke-linecap="round" stroke-linejoin="round" d="M14.53125 7.03125V11.25H10.3125" stroke-width="1"></path><path stroke="#ffffff" stroke-linecap="round" stroke-linejoin="round" d="m14.53125 11.25 -4.961875 -4.961875c-0.0870625 -0.08711875 -0.1904375 -0.156225 -0.30425 -0.20338124999999999 -0.11374999999999999 -0.04715 -0.2356875 -0.07141875 -0.35887500000000006 -0.07141875 -0.1231875 0 -0.24512499999999998 0.024268750000000002 -0.35887500000000006 0.07141875 -0.11381250000000001 0.047156250000000004 -0.21718749999999998 0.11626249999999999 -0.30425 0.20338124999999999l-1.955 1.955c-0.0870625 0.087125 -0.1904375 0.15625 -0.30421875 0.20337500000000003 -0.11378125 0.047125 -0.23574375000000003 0.0714375 -0.35890625000000004 0.0714375s-0.24512499999999998 -0.024312499999999997 -0.35890625000000004 -0.0714375c-0.11378125 -0.047125 -0.21715625 -0.11624999999999999 -0.30421875 -0.20337500000000003L0.46875 3.75" stroke-width="1"></path></svg>