<svg xmlns="http://www.w3.org/2000/svg" fill="none" viewBox="-0.5 -0.5 16 16" id="Hand-Drag--Streamline-Ultimate.svg" height="16" width="16"><desc>Hand Drag Streamline Icon: https://streamlinehq.com</desc><path stroke="#ffffff" stroke-linecap="round" stroke-linejoin="round" d="M11.007875 3.3540312500000002V2.179025c0 -0.311625 -0.12381249999999999 -0.6104937500000001 -0.3441875 -0.8308500000000001 -0.22037500000000002 -0.22035 -0.5191875 -0.34415 -0.8308125 -0.34415 -0.3116875 0 -0.6105 0.12380000000000001 -0.8308749999999999 0.34415 -0.22037500000000002 0.22035625 -0.344125 0.519225 -0.344125 0.8308500000000001v-0.5874999999999999c-0.021687500000000002 -0.2960125 -0.1545 -0.572875 -0.37187499999999996 -0.77495625 -0.2174375 -0.2020775 -0.50325 -0.314401875 -0.8 -0.314401875 -0.2968125 0 -0.5826250000000001 0.11232437499999999 -0.8 0.314401875 -0.2174375 0.20208125 -0.35025 0.47894375 -0.37187499999999996 0.77495625v0.5874999999999999c-0.021687500000000002 -0.2960125 -0.15451875 -0.572875 -0.37190625 -0.77495625 -0.2173875 -0.202075 -0.50319375 -0.3144 -0.8 -0.3144 -0.29680625 0 -0.5826125 0.112325 -0.8 0.3144 -0.2173875 0.20208125 -0.35024375 0.47894375 -0.37187499999999996 0.77495625v4.099975000000001c-0.3083125 0 -0.61359375 0.060875 -0.89835625 0.17906249999999999 -0.28476875 0.11812500000000001 -0.54341875 0.29131250000000003 -0.7611374999999999 0.509625 -0.21771875 0.2183125 -0.39022500000000004 0.4774375 -0.50764375 0.7625 -0.11741875 0.2850625 -0.17743124999999998 0.5905 -0.1766125 0.8988125 0.00074375 1.1473125 0.35901875 2.2658125 1.025 3.2l0.8562500000000001 1.1937499999999999c0.32530625 0.4559375 0.75475 0.827625 1.252625 1.0841874999999999 0.49786875 0.25656249999999997 1.04979375 0.39056250000000003 1.6099062499999999 0.3908125h2.99375c0.5258125 0.000875 1.0466250000000001 -0.10200000000000001 1.532625 -0.3026875 0.486 -0.200625 0.9276875 -0.49512500000000004 1.2998124999999998 -0.866625 0.37212500000000004 -0.3715625 0.6673125000000001 -0.81275 0.8686875 -1.2985 0.2014375 -0.4856875 0.30512500000000004 -1.006375 0.30512500000000004 -1.5321874999999998V3.3540312500000002c0.01175 -0.16109374999999998 -0.009812499999999998 -0.32288125 -0.063375 -0.47525625000000005 -0.0535625 -0.15238125 -0.1379375 -0.2920875 -0.2479375 -0.4103875 -0.1099375 -0.1183 -0.243125 -0.21265625 -0.3911875 -0.277175 -0.148125 -0.064525 -0.307875 -0.097825 -0.469375 -0.097825 -0.1615625 0 -0.3213125 0.0333 -0.469375 0.097825 -0.148125 0.06451875 -0.28125 0.158875 -0.39125 0.277175s-0.194375 0.25800625 -0.2479375 0.4103875c-0.0535625 0.15237499999999998 -0.075125 0.3141625 -0.0633125 0.47525625000000005h-0.01875Z" stroke-width="1"></path><path stroke="#ffffff" stroke-linecap="round" stroke-linejoin="round" d="M3.9703375000000003 6.279v1.7625" stroke-width="1"></path><path stroke="#ffffff" stroke-linecap="round" stroke-linejoin="round" d="M6.3140624999999995 5.110281250000001v-2.9312500000000004" stroke-width="1"></path><path stroke="#ffffff" stroke-linecap="round" stroke-linejoin="round" d="M8.657812499999999 5.110281250000001v-2.9312500000000004" stroke-width="1"></path><path stroke="#ffffff" stroke-linecap="round" stroke-linejoin="round" d="M11.0078125 5.1102875v-1.75625" stroke-width="1"></path></svg>