<svg xmlns="http://www.w3.org/2000/svg" fill="none" viewBox="-0.5 -0.5 16 16" id="Headphones-Customer-Support-Question--Streamline-Ultimate.svg" height="16" width="16"><desc>Headphones Customer Support Question Streamline Icon: https://streamlinehq.com</desc><path stroke="#ffffff" stroke-linecap="round" stroke-linejoin="round" d="M2.8125 11.25h-0.46875c-0.49728125 0 -0.97419375 -0.1975625 -1.325825 -0.5491875C0.66629375 10.349187500000001 0.46875 9.872250000000001 0.46875 9.375v-1.875c0 -0.49724999999999997 0.19754375000000002 -0.9741875 0.549175 -1.325825C1.36955625 5.8225437499999995 1.8464687499999999 5.625 2.34375 5.625h0.46875c0.12431875 0 0.24355000000000002 0.0493875 0.33145625 0.13729375 0.08790624999999999 0.08790624999999999 0.13729375 0.2071375 0.13729375 0.33145625v4.6875c0 0.12431249999999999 -0.0493875 0.2435625 -0.13729375 0.3314375C3.05605 11.200624999999999 2.9368187499999996 11.25 2.8125 11.25Z" stroke-width="1"></path><path stroke="#ffffff" stroke-linecap="round" stroke-linejoin="round" d="M12.65625 11.25h-0.46875c-0.12431249999999999 0 -0.2435625 -0.049375 -0.3314375 -0.1373125 -0.0879375 -0.08787500000000001 -0.1373125 -0.20712499999999998 -0.1373125 -0.3314375v-4.6875c0 -0.12431875 0.049375 -0.24355000000000002 0.1373125 -0.33145625C11.943937499999999 5.6743875 12.063187500000002 5.625 12.1875 5.625h0.46875c0.49724999999999997 0 0.9741875 0.19754375000000002 1.3258125 0.549175 0.35162499999999997 0.3516375 0.5491875 0.8285750000000001 0.5491875 1.325825v1.875c0 0.49724999999999997 -0.1975625 0.9741875 -0.5491875 1.3258125 -0.35162499999999997 0.35162499999999997 -0.8285625000000001 0.5491875 -1.3258125 0.5491875Z" stroke-width="1"></path><path stroke="#ffffff" stroke-linecap="round" stroke-linejoin="round" d="M2.34375 5.625c0 -1.367525 0.54324375 -2.6790374999999997 1.5102312500000001 -3.64601875C4.8209625 1.01199375 6.1324749999999995 0.46875 7.5 0.46875c1.3675000000000002 0 2.6790625 0.54324375 3.646 1.5102312500000001C12.113 2.9459625000000003 12.65625 4.257475 12.65625 5.625" stroke-width="1"></path><path stroke="#ffffff" stroke-linecap="round" stroke-linejoin="round" d="M9.375 13.59375h1.40625c0.49724999999999997 0 0.9741875 -0.1975625 1.3258125 -0.5491875 0.35162499999999997 -0.35162499999999997 0.5491875 -0.8285625000000001 0.5491875 -1.3258125V11.25" stroke-width="1"></path><path stroke="#ffffff" stroke-linecap="round" stroke-linejoin="round" d="M8.4375 14.53125H7.5c-0.24862499999999998 0 -0.487125 -0.09875 -0.6629375 -0.27456250000000004S6.5625 13.842375 6.5625 13.59375c0 -0.24862499999999998 0.09875 -0.487125 0.27456250000000004 -0.6629375S7.2513749999999995 12.65625 7.5 12.65625h0.9375c0.24862499999999998 0 0.487125 0.09875 0.6629375 0.27456250000000004S9.375 13.345125 9.375 13.59375c0 0.24862499999999998 -0.09875 0.487125 -0.27456250000000004 0.6629375s-0.41431250000000003 0.27456250000000004 -0.6629375 0.27456250000000004Z" stroke-width="1"></path><path stroke="#ffffff" stroke-linecap="round" stroke-linejoin="round" d="M5.625 5.156275c0.00006875 -0.34373125 0.09461875 -0.68083125 0.273325 -0.9744562499999999s0.434675 -0.532475 0.7399875 -0.69045c0.30525 -0.15796875 0.648125 -0.22898124999999997 0.9909999999999999 -0.20526875 0.3429375 0.023706249999999998 0.67275 0.141225 0.9533750000000001 0.33970625 0.280625 0.19848125 0.5013125 0.4702875 0.637875 0.7857124999999999 0.136625 0.315425 0.183875 0.66233125 0.136625 1.0028 -0.04725 0.34046875 -0.18712499999999999 0.66140625 -0.4044375 0.9277437500000001 -0.21731250000000002 0.2663125 -0.5036875 0.46775 -0.82775 0.5823125 -0.182875 0.0646875 -0.34118750000000003 0.18443749999999998 -0.453125 0.34281249999999996 -0.11193750000000001 0.1584375 -0.172 0.347625 -0.171875 0.5415625000000001v0.16" stroke-width="1"></path><path stroke="#ffffff" d="M7.5 10.3125c-0.1294375 0 -0.234375 -0.10493749999999999 -0.234375 -0.234375s0.10493749999999999 -0.234375 0.234375 -0.234375" stroke-width="1"></path><path stroke="#ffffff" d="M7.5 10.3125c0.1294375 0 0.234375 -0.10493749999999999 0.234375 -0.234375s-0.10493749999999999 -0.234375 -0.234375 -0.234375" stroke-width="1"></path></svg>