<svg xmlns="http://www.w3.org/2000/svg" fill="none" viewBox="-0.5 -0.5 16 16" id="Help-Question-Network--Streamline-Ultimate.svg" height="16" width="16"><desc>Help Question Network Streamline Icon: https://streamlinehq.com</desc><path stroke="#ffffff" stroke-linecap="round" stroke-linejoin="round" d="M1.875 14.53125c0.77665 0 1.40625 -0.6296250000000001 1.40625 -1.40625S2.65165 11.71875 1.875 11.71875 0.46875 12.348375 0.46875 13.125 1.09835 14.53125 1.875 14.53125Z" stroke-width="1"></path><path stroke="#ffffff" stroke-linecap="round" stroke-linejoin="round" d="m2.9249562499999997 12.1875 1.29375 -0.9375" stroke-width="1"></path><path stroke="#ffffff" stroke-linecap="round" stroke-linejoin="round" d="M1.875 3.28125c0.77665 0 1.40625 -0.6296 1.40625 -1.40625S2.65165 0.46875 1.875 0.46875 0.46875 1.09835 0.46875 1.875 1.09835 3.28125 1.875 3.28125Z" stroke-width="1"></path><path stroke="#ffffff" stroke-linecap="round" stroke-linejoin="round" d="m2.9249562499999997 2.8125 1.29375 0.9375" stroke-width="1"></path><path stroke="#ffffff" stroke-linecap="round" stroke-linejoin="round" d="M13.125 14.53125c0.7766249999999999 0 1.40625 -0.6296250000000001 1.40625 -1.40625s-0.6296250000000001 -1.40625 -1.40625 -1.40625 -1.40625 0.6296250000000001 -1.40625 1.40625 0.6296250000000001 1.40625 1.40625 1.40625Z" stroke-width="1"></path><path stroke="#ffffff" stroke-linecap="round" stroke-linejoin="round" d="M12.075 12.1875 10.78125 11.25" stroke-width="1"></path><path stroke="#ffffff" stroke-linecap="round" stroke-linejoin="round" d="M13.125 3.28125c0.7766249999999999 0 1.40625 -0.6296 1.40625 -1.40625S13.901625 0.46875 13.125 0.46875 11.71875 1.09835 11.71875 1.875 12.348375 3.28125 13.125 3.28125Z" stroke-width="1"></path><path stroke="#ffffff" stroke-linecap="round" stroke-linejoin="round" d="M12.075 2.8125 10.78125 3.75" stroke-width="1"></path><path stroke="#ffffff" d="M7.46475 11.878124999999999c-0.1294375 0 -0.234375 -0.10493749999999999 -0.234375 -0.234375s0.10493749999999999 -0.234375 0.234375 -0.234375" stroke-width="1"></path><path stroke="#ffffff" d="M7.46475 11.878124999999999c0.1294375 0 0.234375 -0.10493749999999999 0.234375 -0.234375s-0.10493749999999999 -0.234375 -0.234375 -0.234375" stroke-width="1"></path><path stroke="#ffffff" stroke-linecap="round" stroke-linejoin="round" d="M5.625 6.71875c0.00018125 -0.34368750000000003 0.09483125 -0.6807375 0.2736125 -0.9742875 0.17877500000000002 -0.29355625 0.434825 -0.5323125 0.740075 -0.6901999999999999 0.3053125 -0.15788125 0.648125 -0.22880625000000002 0.9909999999999999 -0.205025 0.3429375 0.023774999999999998 0.6726875 0.14134375 0.9532499999999999 0.33985624999999997 0.2805625 0.1985125 0.5011875 0.47033125000000003 0.63775 0.7857500000000001 0.1365625 0.31540625 0.18375 0.6622812499999999 0.1365 1.0027187499999999 -0.04725 0.34043749999999995 -0.1871875 0.661375 -0.40449999999999997 0.9276249999999999 -0.21731250000000002 0.2663125 -0.503625 0.46775 -0.8276875 0.5823125 -0.183375 0.0648125 -0.342 0.1850625 -0.454 0.344125 -0.112 0.159 -0.17174999999999999 0.34887500000000005 -0.171 0.5433749999999999v0.4" stroke-width="1"></path></svg>