<svg xmlns="http://www.w3.org/2000/svg" fill="none" viewBox="-0.5 -0.5 16 16" id="Hierarchy-5-Organize--Streamline-Ultimate.svg" height="16" width="16"><desc>Hierarchy 5 Organize Streamline Icon: https://streamlinehq.com</desc><path stroke="#ffffff" stroke-linecap="round" stroke-linejoin="round" d="M11.40625 0.46875H3.59375c-0.25888125 0 -0.46875 0.20986875 -0.46875 0.46875v3.125c0 0.25888125 0.20986875 0.46875 0.46875 0.46875h7.8125c0.258875 0 0.46875 -0.20986875 0.46875 -0.46875v-3.125c0 -0.25888125 -0.20987499999999998 -0.46875 -0.46875 -0.46875Z" stroke-width="1"></path><path stroke="#ffffff" stroke-linecap="round" stroke-linejoin="round" d="M7.5 4.53125v7.1875" stroke-width="1"></path><path stroke="#ffffff" stroke-linecap="round" stroke-linejoin="round" d="M1.875 11.71875v-2.5c0 -0.24862499999999998 0.098775 -0.487125 0.2745875 -0.6629375S2.5638625 8.28125 2.8125 8.28125h9.375c0.24862499999999998 0 0.487125 0.09875 0.6629375 0.27456250000000004S13.125 8.970125 13.125 9.21875v2.5" stroke-width="1"></path><path stroke="#ffffff" stroke-linecap="round" stroke-linejoin="round" d="M1.875 14.53125c0.77665 0 1.40625 -0.6296250000000001 1.40625 -1.40625S2.65165 11.71875 1.875 11.71875 0.46875 12.348375 0.46875 13.125 1.09835 14.53125 1.875 14.53125Z" stroke-width="1"></path><path stroke="#ffffff" stroke-linecap="round" stroke-linejoin="round" d="M7.5 14.53125c0.7766249999999999 0 1.40625 -0.6296250000000001 1.40625 -1.40625s-0.6296250000000001 -1.40625 -1.40625 -1.40625S6.09375 12.348375 6.09375 13.125s0.6296250000000001 1.40625 1.40625 1.40625Z" stroke-width="1"></path><path stroke="#ffffff" stroke-linecap="round" stroke-linejoin="round" d="M13.125 14.53125c0.7766249999999999 0 1.40625 -0.6296250000000001 1.40625 -1.40625s-0.6296250000000001 -1.40625 -1.40625 -1.40625 -1.40625 0.6296250000000001 -1.40625 1.40625 0.6296250000000001 1.40625 1.40625 1.40625Z" stroke-width="1"></path></svg>