<svg xmlns="http://www.w3.org/2000/svg" fill="none" viewBox="-0.5 -0.5 16 16" id="House-1--Streamline-Ultimate.svg" height="16" width="16"><desc>House 1 Streamline Icon: https://streamlinehq.com</desc><path stroke="#ffffff" stroke-linecap="round" stroke-linejoin="round" d="M2.34561875 8.715v5.15625h3.75v-3.75c0 -0.24868749999999998 0.098775 -0.487125 0.27456875 -0.6629375 0.17581249999999998 -0.17581249999999998 0.41431250000000003 -0.27456250000000004 0.6629375 -0.27456250000000004h0.9375c0.24862499999999998 0 0.4870625 0.09875 0.6629375 0.27456250000000004 0.17581249999999998 0.17581249999999998 0.27456250000000004 0.41424999999999995 0.27456250000000004 0.6629375v3.75h3.75v-5.15625" stroke-width="1"></path><path stroke="#ffffff" stroke-linecap="round" stroke-linejoin="round" d="M0.47061937499999995 7.777500000000001 6.83875 1.4093687499999998c0.0870625 -0.08711875 0.1904375 -0.15623125 0.3041875 -0.20338124999999999 0.11381250000000001 -0.04715 0.23575 -0.07141875 0.3589375 -0.07141875 0.1231875 0 0.24512499999999998 0.024268750000000002 0.35887500000000006 0.07141875 0.11381250000000001 0.04715 0.21718749999999998 0.11626249999999999 0.30425 0.20338124999999999L14.533125 7.777500000000001" stroke-width="1"></path></svg>