<svg xmlns="http://www.w3.org/2000/svg" fill="none" viewBox="-0.5 -0.5 16 16" id="Information-Circle--Streamline-Ultimate.svg" height="16" width="16"><desc>Information Circle Streamline Icon: https://streamlinehq.com</desc><path stroke="#ffffff" stroke-linecap="round" stroke-linejoin="round" d="M8.90625 10.3125h-0.46875c-0.24862499999999998 0 -0.487125 -0.09875 -0.6629375 -0.27456250000000004S7.5 9.623625 7.5 9.375v-2.34375c0 -0.12431249999999999 -0.049375 -0.2435625 -0.1373125 -0.3314375 -0.08787500000000001 -0.0879375 -0.20712499999999998 -0.1373125 -0.3314375 -0.1373125h-0.46875" stroke-width="1"></path><path stroke="#ffffff" d="M7.265625 4.6875c-0.1294375 0 -0.234375 -0.10493125 -0.234375 -0.234375s0.10493749999999999 -0.234375 0.234375 -0.234375" stroke-width="1"></path><path stroke="#ffffff" d="M7.265625 4.6875c0.1294375 0 0.234375 -0.10493125 0.234375 -0.234375s-0.10493749999999999 -0.234375 -0.234375 -0.234375" stroke-width="1"></path><path stroke="#ffffff" stroke-linecap="round" stroke-linejoin="round" d="M7.5 14.53125c3.88325 0 7.03125 -3.148 7.03125 -7.03125S11.38325 0.46875 7.5 0.46875 0.46875 3.61675 0.46875 7.5 3.61675 14.53125 7.5 14.53125Z" stroke-width="1"></path></svg>