<svg xmlns="http://www.w3.org/2000/svg" fill="none" viewBox="-0.5 -0.5 16 16" id="Iris-Scan-1--Streamline-Ultimate.svg" height="16" width="16"><desc>Iris Scan 1 Streamline Icon: https://streamlinehq.com</desc><path stroke="#ffffff" stroke-linecap="round" stroke-linejoin="round" d="M2.1875 7.5S4.3125 4.375 7.5 4.375s5.3125 3.125 5.3125 3.125 -2.125 3.125 -5.3125 3.125 -5.3125 -3.125 -5.3125 -3.125Z" stroke-width="1"></path><path stroke="#ffffff" stroke-linecap="round" stroke-linejoin="round" d="M7.5 6.25s1.25 0 1.25 1.25c0 0 0 1.25 -1.25 1.25 0 0 -1.25 0 -1.25 -1.25 0 0 0 -1.25 1.25 -1.25Z" stroke-width="1"></path><path stroke="#ffffff" stroke-linecap="round" stroke-linejoin="round" d="M0.46875 2.8125V1.40625c0 -0.2486375 0.09877187500000001 -0.48710000000000003 0.2745875 -0.6629125C0.9191499999999999 0.5675218750000001 1.1576125 0.46875 1.40625 0.46875H2.8125" stroke-width="1"></path><path stroke="#ffffff" stroke-linecap="round" stroke-linejoin="round" d="M14.53125 2.8125V1.40625c0 -0.2486375 -0.09875 -0.48710000000000003 -0.27456250000000004 -0.6629125C14.080874999999999 0.5675218750000001 13.842375 0.46875 13.59375 0.46875H12.1875" stroke-width="1"></path><path stroke="#ffffff" stroke-linecap="round" stroke-linejoin="round" d="M0.46875 12.1875v1.40625c0 0.24862499999999998 0.09877187500000001 0.487125 0.2745875 0.6629375 0.17581249999999998 0.17581249999999998 0.414275 0.27456250000000004 0.6629125 0.27456250000000004H2.8125" stroke-width="1"></path><path stroke="#ffffff" stroke-linecap="round" stroke-linejoin="round" d="M14.53125 12.1875v1.40625c0 0.24862499999999998 -0.09875 0.487125 -0.27456250000000004 0.6629375s-0.41431250000000003 0.27456250000000004 -0.6629375 0.27456250000000004H12.1875" stroke-width="1"></path></svg>