<svg xmlns="http://www.w3.org/2000/svg" fill="none" viewBox="-0.5 -0.5 16 16" id="Keyboard-Eject--Streamline-Ultimate.svg" height="16" width="16"><desc>Keyboard Eject Streamline Icon: https://streamlinehq.com</desc><path stroke="#ffffff" stroke-linecap="round" stroke-linejoin="round" d="M2.8125 0.9356687499999999h9.375s1.875 0 1.875 1.875V12.1856875s0 1.875 -1.875 1.875h-9.375s-1.875 0 -1.875 -1.875V2.81066875s0 -1.875 1.875 -1.875Z" stroke-width="1"></path><path stroke="#ffffff" stroke-linecap="round" stroke-linejoin="round" d="M4.21875 9.3731875h6.5625s0.46875 0 0.46875 0.46875v0.9375s0 0.46875 -0.46875 0.46875H4.21875s-0.46875 0 -0.46875 -0.46875v-0.9375s0 -0.46875 0.46875 -0.46875Z" stroke-width="1"></path><path stroke="#ffffff" stroke-linecap="round" stroke-linejoin="round" d="M7.16875 4.07935 4.1499999999999995 7.098125c-0.03273125 0.03275 -0.055025 0.0745 -0.06405 0.11993749999999999 -0.009025 0.0454375 -0.00438125 0.0925 0.0133375 0.1353125 0.017725 0.0428125 0.047731249999999996 0.079375 0.0862375 0.1051875 0.03850625 0.025750000000000002 0.08377499999999999 0.03950000000000001 0.1301 0.0395625H10.6875c0.0463125 -0.0000625 0.09162500000000001 -0.013812500000000002 0.130125 -0.0395625 0.0385 -0.025812500000000002 0.0685 -0.062375 0.0861875 -0.1051875 0.017750000000000002 -0.0428125 0.022375 -0.08987500000000001 0.013375 -0.1353125 -0.009062500000000001 -0.0454375 -0.0313125 -0.0871875 -0.0640625 -0.11993749999999999l-3.01875 -3.018775c-0.0435 -0.044012499999999996 -0.09537500000000002 -0.07894999999999999 -0.1525 -0.10279999999999999 -0.057124999999999995 -0.023843750000000004 -0.11837500000000001 -0.03611875 -0.1803125 -0.03611875 -0.061875 0 -0.1231875 0.012275000000000001 -0.1803125 0.03611875 -0.057124999999999995 0.02385 -0.1089375 0.058787500000000006 -0.1525 0.10279999999999999Z" stroke-width="1"></path></svg>