<svg xmlns="http://www.w3.org/2000/svg" fill="none" viewBox="-0.5 -0.5 16 16" id="Keyhole-Square--Streamline-Ultimate.svg" height="16" width="16"><desc>Keyhole Square Streamline Icon: https://streamlinehq.com</desc><path stroke="#ffffff" stroke-linecap="round" stroke-linejoin="round" d="M1.40625 0.46875h12.1875s0.9375 0 0.9375 0.9375v12.1875s0 0.9375 -0.9375 0.9375H1.40625s-0.9375 0 -0.9375 -0.9375V1.40625s0 -0.9375 0.9375 -0.9375Z" stroke-width="1"></path><path stroke="#ffffff" stroke-linecap="round" stroke-linejoin="round" d="M6.09375 6.09375c0 0.37293750000000003 0.14815625000000002 0.7306250000000001 0.411875 0.994375 0.26375 0.2636875 0.6214375 0.411875 0.994375 0.411875s0.7306250000000001 -0.1481875 0.994375 -0.411875c0.2636875 -0.26375 0.411875 -0.6214375 0.411875 -0.994375 0 -0.37296250000000003 -0.1481875 -0.73064375 -0.411875 -0.9943687499999999C8.230625 4.8356562499999995 7.8729375 4.6875 7.5 4.6875s-0.7306250000000001 0.14815625000000002 -0.994375 0.41188125c-0.26371875 0.263725 -0.411875 0.6214062499999999 -0.411875 0.9943687499999999Z" stroke-width="1"></path><path stroke="#ffffff" stroke-linecap="round" stroke-linejoin="round" d="M7.5 7.5v2.8125" stroke-width="1"></path></svg>