<svg xmlns="http://www.w3.org/2000/svg" fill="none" viewBox="-0.5 -0.5 16 16" id="Laptop-Help-Message--Streamline-Ultimate.svg" height="16" width="16"><desc>Laptop Help Message Streamline Icon: https://streamlinehq.com</desc><path stroke="#ffffff" stroke-linecap="round" stroke-linejoin="round" d="M13.59375 9.84375v1.875" stroke-width="1"></path><path stroke="#ffffff" stroke-linecap="round" stroke-linejoin="round" d="M1.40625 11.71875V5.15625c0 -0.2486375 0.098775 -0.48710000000000003 0.2745875 -0.6629125 0.17581249999999998 -0.17581249999999998 0.414275 -0.2745875 0.6629125 -0.2745875H4.6875" stroke-width="1"></path><path stroke="#ffffff" stroke-linecap="round" stroke-linejoin="round" d="M9.115 11.71875c-0.16268749999999998 0.28475 -0.39775 0.521375 -0.6813750000000001 0.6859999999999999 -0.283625 0.16462500000000002 -0.6056874999999999 0.2513125 -0.933625 0.2513125s-0.65 -0.0866875 -0.933625 -0.2513125 -0.5186999999999999 -0.40125 -0.6813750000000001 -0.6859999999999999H0.46875v0.9375c0 0.49724999999999997 0.19754375000000002 0.9741875 0.549175 1.3258125 0.35163125000000006 0.35162499999999997 0.8285437499999999 0.5491875 1.325825 0.5491875h10.3125c0.49724999999999997 0 0.9741875 -0.1975625 1.3258125 -0.5491875 0.35162499999999997 -0.35162499999999997 0.5491875 -0.8285625000000001 0.5491875 -1.3258125v-0.9375h-5.41625Z" stroke-width="1"></path><path stroke="#ffffff" stroke-linecap="round" stroke-linejoin="round" d="M11.7224375 0.6352437499999999c-0.7354375000000001 -0.21975625 -1.5186875 -0.222015 -2.2553125 -0.006506250000000001 -0.7366875 0.2155125 -1.3951875 0.6395875 -1.8961875 1.22105625 -0.501 0.58146875 -0.823 1.29548125 -0.92725 2.0559 -0.10418749999999999 0.7604187499999999 0.013875 1.53474375 0.34 2.2295499999999997L5.693662499999999 8.753375l2.9519 -0.80625c0.260375 0.1491875 0.5369375 0.2680625 0.824375 0.354375 1.0106875 0.27949999999999997 2.0908125 0.1503125 3.007125 -0.3595625 0.9163749999999999 -0.509875 1.5955 -1.3596249999999999 1.8908749999999999 -2.3658125 0.2953125 -1.0062125 0.1831875 -2.0882 -0.31224999999999997 -3.01245625 -0.495375 -0.9242625 -1.3343125 -1.6166687499999999 -2.33575 -1.9278l0.0025 -0.000625Z" stroke-width="1"></path><path stroke="#ffffff" stroke-linecap="round" stroke-linejoin="round" d="M9.44 3.53896875c0 -0.231775 0.06875 -0.45834374999999994 0.1975 -0.65105625 0.12875 -0.1927125 0.3118125 -0.34291875 0.5259375000000001 -0.43161249999999995 0.214125 -0.08869375 0.44975 -0.11190624999999998 0.6770624999999999 -0.0666875 0.22731250000000003 0.04521875 0.436125 0.15683124999999998 0.6 0.32071875 0.16393749999999999 0.16388750000000002 0.2755 0.3727 0.32075 0.60001875 0.045187500000000005 0.22731874999999999 0.022000000000000002 0.46294375 -0.0666875 0.67708125 -0.0886875 0.21413125000000002 -0.23893749999999997 0.39715 -0.431625 0.52591875 -0.1926875 0.12876875 -0.41931250000000003 0.19749375 -0.6510625000000001 0.19749375" stroke-width="1"></path><path stroke="#ffffff" d="M10.611875 6.585875c-0.1294375 0 -0.234375 -0.10493749999999999 -0.234375 -0.234375 0 -0.12946875 0.10493749999999999 -0.23440624999999998 0.234375 -0.23440624999999998" stroke-width="1"></path><path stroke="#ffffff" d="M10.611875 6.585875c0.1294375 0 0.234375 -0.10493749999999999 0.234375 -0.234375 0 -0.12946875 -0.10493749999999999 -0.23440624999999998 -0.234375 -0.23440624999999998" stroke-width="1"></path></svg>