<svg xmlns="http://www.w3.org/2000/svg" fill="none" viewBox="-0.5 -0.5 16 16" id="Layout-Content--Streamline-Ultimate.svg" height="16" width="16"><desc>Layout Content Streamline Icon: https://streamlinehq.com</desc><path stroke="#ffffff" stroke-linecap="round" stroke-linejoin="round" d="M6.25 5.6875c0 0.14918125000000002 -0.0592625 0.29225625 -0.16475 0.39775C5.97975625 6.1907375 5.83668125 6.25 5.6875 6.25H1.1875c-0.14918125000000002 0 -0.29225625 -0.0592625 -0.39775 -0.16475C0.6842625 5.97975625 0.625 5.83668125 0.625 5.6875V1.1875c0 -0.14918125000000002 0.0592625 -0.29225625 0.16475 -0.39775C0.89524375 0.6842625 1.03831875 0.625 1.1875 0.625h4.5c0.14918125000000002 0 0.29225625 0.0592625 0.39775 0.16475 0.10548750000000001 0.10549375 0.16475 0.24856875 0.16475 0.39775v4.5Z" stroke-width="1"></path><path stroke="#ffffff" stroke-linecap="round" stroke-linejoin="round" d="M6.25 13.8125c0 0.1491875 -0.0592625 0.29225 -0.16475 0.39775C5.97975625 14.315750000000001 5.83668125 14.375 5.6875 14.375H1.1875c-0.14918125000000002 0 -0.29225625 -0.05925 -0.39775 -0.16475C0.6842625 14.10475 0.625 13.9616875 0.625 13.8125v-4.5c0 -0.1491875 0.0592625 -0.29225 0.16475 -0.39775C0.89524375 8.809249999999999 1.03831875 8.75 1.1875 8.75h4.5c0.14918125000000002 0 0.29225625 0.05925 0.39775 0.16475 0.10548750000000001 0.10550000000000001 0.16475 0.2485625 0.16475 0.39775v4.5Z" stroke-width="1"></path><path stroke="#ffffff" stroke-linecap="round" stroke-linejoin="round" d="M8.1231875 1.40625h6.25" stroke-width="1"></path><path stroke="#ffffff" stroke-linecap="round" stroke-linejoin="round" d="M8.1231875 3.4375h6.25" stroke-width="1"></path><path stroke="#ffffff" stroke-linecap="round" stroke-linejoin="round" d="M8.1231875 5.46875h6.25" stroke-width="1"></path><path stroke="#ffffff" stroke-linecap="round" stroke-linejoin="round" d="M8.1231875 9.53125h6.25" stroke-width="1"></path><path stroke="#ffffff" stroke-linecap="round" stroke-linejoin="round" d="M8.1231875 11.5625h6.25" stroke-width="1"></path><path stroke="#ffffff" stroke-linecap="round" stroke-linejoin="round" d="M8.1231875 13.59375h6.25" stroke-width="1"></path></svg>