<svg xmlns="http://www.w3.org/2000/svg" fill="none" viewBox="-0.5 -0.5 16 16" id="Layout-Dashboard-1--Streamline-Ultimate.svg" height="16" width="16"><desc>Layout Dashboard 1 Streamline Icon: https://streamlinehq.com</desc><path stroke="#ffffff" stroke-linecap="round" stroke-linejoin="round" d="M3.4375 2.96875h2.65625s0.46875 0 0.46875 0.46875v3.59375s0 0.46875 -0.46875 0.46875H3.4375s-0.46875 0 -0.46875 -0.46875V3.4375s0 -0.46875 0.46875 -0.46875Z" stroke-width="1"></path><path stroke="#ffffff" stroke-linecap="round" stroke-linejoin="round" d="M3.4375 9.375h2.65625s0.46875 0 0.46875 0.46875v1.71875s0 0.46875 -0.46875 0.46875H3.4375s-0.46875 0 -0.46875 -0.46875v-1.71875s0 -0.46875 0.46875 -0.46875Z" stroke-width="1"></path><path stroke="#ffffff" stroke-linecap="round" stroke-linejoin="round" d="M8.90625 7.5h2.65625s0.46875 0 0.46875 0.46875v3.59375s0 0.46875 -0.46875 0.46875h-2.65625s-0.46875 0 -0.46875 -0.46875v-3.59375s0 -0.46875 0.46875 -0.46875Z" stroke-width="1"></path><path stroke="#ffffff" stroke-linecap="round" stroke-linejoin="round" d="M8.90625 2.96875h2.65625s0.46875 0 0.46875 0.46875v1.71875s0 0.46875 -0.46875 0.46875h-2.65625s-0.46875 0 -0.46875 -0.46875V3.4375s0 -0.46875 0.46875 -0.46875Z" stroke-width="1"></path><path stroke="#ffffff" stroke-linecap="round" stroke-linejoin="round" d="M1.40625 0.46875h12.1875s0.9375 0 0.9375 0.9375v12.1875s0 0.9375 -0.9375 0.9375H1.40625s-0.9375 0 -0.9375 -0.9375V1.40625s0 -0.9375 0.9375 -0.9375Z" stroke-width="1"></path></svg>