<svg xmlns="http://www.w3.org/2000/svg" fill="none" viewBox="-0.5 -0.5 16 16" id="List-Numbers--Streamline-Ultimate.svg" height="16" width="16"><desc>List Numbers Streamline Icon: https://streamlinehq.com</desc><path stroke="#ffffff" stroke-linecap="round" stroke-linejoin="round" d="M5.15625 1.875h9.375" stroke-width="1"></path><path stroke="#ffffff" stroke-linecap="round" stroke-linejoin="round" d="M5.15625 7.5h9.375" stroke-width="1"></path><path stroke="#ffffff" stroke-linecap="round" stroke-linejoin="round" d="M5.15625 13.125h9.375" stroke-width="1"></path><path stroke="#ffffff" stroke-linecap="round" stroke-linejoin="round" d="M0.500030625 11.475c0.04547125 -0.168875 0.137275625 -0.3216875 0.26503187500000003 -0.441125 0.12775625000000002 -0.1194375 0.286375 -0.20074999999999998 0.45793124999999996 -0.23475 0.17155 -0.033999999999999996 0.34919375 -0.0193125 0.51285 0.042312499999999996 0.1636625 0.0616875 0.30680625 0.167875 0.41326250000000003 0.3066875 0.10645 0.13875 0.17196875 0.3045 0.18915 0.4785625 0.017175 0.174 -0.014675 0.3494375 -0.09195 0.5063125s-0.19689374999999998 0.289 -0.3453375 0.38150000000000006c-0.14845 0.0924375 -0.31980000000000003 0.1415625 -0.4946875 0.14175 0.17454375 0.0005 0.34547500000000003 0.04975 0.49355625000000003 0.142125 0.1480875 0.09237499999999998 0.2674375 0.22425 0.3446125 0.3808125 0.07718125 0.1565625 0.109125 0.3315625 0.09223125 0.50525 -0.0168875 0.17375000000000002 -0.08194375000000001 0.3393125 -0.18783125 0.4780625 -0.10589375 0.13875 -0.24841249999999998 0.2451875 -0.41151875 0.3073125 -0.1631125 0.062125 -0.340325 0.0775 -0.5116937500000001 0.044375 -0.17136875 -0.033125 -0.33008750000000003 -0.1134375 -0.45828125 -0.231875 -0.1282 -0.1184375 -0.22078062499999998 -0.2703125 -0.267325625 -0.43856249999999997" stroke-width="1"></path><path stroke="#ffffff" stroke-linecap="round" stroke-linejoin="round" d="M0.46875 7.03125c0 -0.24862499999999998 0.09877187500000001 -0.487125 0.2745875 -0.6629375 0.17581249999999998 -0.1757875 0.414275 -0.27456250000000004 0.6629125 -0.27456250000000004 0.2486375 0 0.48710000000000003 0.098775 0.6629125 0.27456250000000004 0.17581249999999998 0.17581249999999998 0.2745875 0.41431250000000003 0.2745875 0.6629375 -0.00073125 0.3043125 -0.10424375 0.5994375 -0.29374999999999996 0.8375L0.46875 8.90625h1.875" stroke-width="1"></path><path stroke="#ffffff" stroke-linecap="round" stroke-linejoin="round" d="M0.46875 0.46875h0.46875c0.12381875 0.00161875 0.24210625 0.051524375 0.32966875 0.13908375 0.08755625 0.08756 0.1374625 0.2058475 0.13908125 0.32966625v3.28125" stroke-width="1"></path><path stroke="#ffffff" stroke-linecap="round" stroke-linejoin="round" d="M0.46875 4.21875h1.875" stroke-width="1"></path></svg>