<svg xmlns="http://www.w3.org/2000/svg" fill="none" viewBox="-0.5 -0.5 16 16" id="Lock-5--Streamline-Ultimate.svg" height="16" width="16"><desc>Lock 5 Streamline Icon: https://streamlinehq.com</desc><path stroke="#ffffff" stroke-linecap="round" stroke-linejoin="round" d="M2.34375 9.375c0 1.3675000000000002 0.54324375 2.6790625 1.5102312500000001 3.646C4.8209625 13.988 6.1324749999999995 14.53125 7.5 14.53125c1.3675000000000002 0 2.6790625 -0.54325 3.646 -1.5102499999999999C12.113 12.0540625 12.65625 10.7425 12.65625 9.375c0 -1.3675000000000002 -0.54325 -2.6790625 -1.5102499999999999 -3.64601875C10.1790625 4.76199375 8.8675 4.21875 7.5 4.21875c-1.367525 0 -2.6790374999999997 0.54324375 -3.64601875 1.5102312500000001C2.88699375 6.695937499999999 2.34375 8.0075 2.34375 9.375Z" stroke-width="1"></path><path stroke="#ffffff" d="M6.09375 9.375c0 0.37293750000000003 0.14815625000000002 0.7306250000000001 0.411875 0.994375 0.26375 0.2636875 0.6214375 0.411875 0.994375 0.411875s0.7306250000000001 -0.1481875 0.994375 -0.411875c0.2636875 -0.26375 0.411875 -0.6214375 0.411875 -0.994375s-0.1481875 -0.7306250000000001 -0.411875 -0.994375c-0.26375 -0.2636875 -0.6214375 -0.411875 -0.994375 -0.411875s-0.7306250000000001 0.1481875 -0.994375 0.411875c-0.26371875 0.26375 -0.411875 0.6214375 -0.411875 0.994375Z" stroke-width="1"></path><path stroke="#ffffff" stroke-linecap="round" stroke-linejoin="round" d="M4.21875 5.396875V3.75c0 -0.87024375 0.34569999999999995 -1.7048375 0.96105625 -2.32019375C5.7951625 0.81445 6.62975 0.46875 7.5 0.46875c0.8702500000000001 0 1.7048125 0.34569999999999995 2.3201875 0.96105625C10.4355625 2.0451625 10.78125 2.8797562500000002 10.78125 3.75v1.6468749999999999" stroke-width="1"></path></svg>