<svg xmlns="http://www.w3.org/2000/svg" fill="none" viewBox="-0.5 -0.5 16 16" id="Lock-Unlock-4--Streamline-Ultimate.svg" height="16" width="16"><desc>Lock Unlock 4 Streamline Icon: https://streamlinehq.com</desc><path stroke="#ffffff" stroke-linecap="round" stroke-linejoin="round" d="M0.46875 6.09375V3.75c0 -0.87024375 0.34569999999999995 -1.7048375 0.96105625 -2.32019375C2.0451625 0.81445 2.8797562500000002 0.46875 3.75 0.46875c0.87024375 0 1.7048375 0.34569999999999995 2.32019375 0.96105625C6.6855625 2.0451625 7.03125 2.8797562500000002 7.03125 3.75v2.34375" stroke-width="1"></path><path stroke="#ffffff" stroke-linecap="round" stroke-linejoin="round" d="M5.15625 6.09375h8.4375s0.9375 0 0.9375 0.9375v6.5625s0 0.9375 -0.9375 0.9375H5.15625s-0.9375 0 -0.9375 -0.9375v-6.5625s0 -0.9375 0.9375 -0.9375Z" stroke-width="1"></path><path stroke="#ffffff" stroke-linecap="round" stroke-linejoin="round" d="M7.96875 10.3125c0 0.37293750000000003 0.1481875 0.7306250000000001 0.411875 0.994375 0.26375 0.2636875 0.6214375 0.411875 0.994375 0.411875s0.7306250000000001 -0.1481875 0.994375 -0.411875c0.2636875 -0.26375 0.411875 -0.6214375 0.411875 -0.994375s-0.1481875 -0.7306250000000001 -0.411875 -0.994375c-0.26375 -0.2636875 -0.6214375 -0.411875 -0.994375 -0.411875s-0.7306250000000001 0.1481875 -0.994375 0.411875c-0.2636875 0.26375 -0.411875 0.6214375 -0.411875 0.994375Z" stroke-width="1"></path></svg>