<svg xmlns="http://www.w3.org/2000/svg" fill="none" viewBox="-0.5 -0.5 16 16" id="Lock-Hierarchy--Streamline-Ultimate.svg" height="16" width="16"><desc>Lock Hierarchy Streamline Icon: https://streamlinehq.com</desc><path stroke="#ffffff" stroke-linecap="round" stroke-linejoin="round" d="M0.46875 13.125c0 0.1846875 0.036373749999999996 0.36756249999999996 0.107044375 0.538125 0.070668125 0.17062500000000003 0.17425562499999997 0.3256875 0.304836875 0.45625 0.13058125 0.1305625 0.28560625 0.2341875 0.45621875 0.30481250000000004 0.1706125 0.0706875 0.35348125 0.1070625 0.53815 0.1070625s0.3675375 -0.036375000000000005 0.53815 -0.1070625c0.1706125 -0.07062500000000001 0.3256375 -0.17425 0.45621875 -0.30481250000000004 0.13058125 -0.1305625 0.23416875 -0.285625 0.3048375 -0.45625 0.07066875 -0.17056249999999998 0.10704375000000001 -0.3534375 0.10704375000000001 -0.538125s-0.036375000000000005 -0.36756249999999996 -0.10704375000000001 -0.538125c-0.07066875 -0.17062500000000003 -0.17425625 -0.3256875 -0.3048375 -0.45625 -0.13058125 -0.1305625 -0.28560625 -0.2341875 -0.45621875 -0.30481250000000004C2.2425375 11.755125 2.05966875 11.71875 1.875 11.71875s-0.3675375 0.036375000000000005 -0.53815 0.1070625c-0.1706125 0.07062500000000001 -0.3256375 0.17425 -0.45621875 0.30481250000000004 -0.13058125 0.1305625 -0.23416875 0.285625 -0.304836875 0.45625C0.50512375 12.7574375 0.46875 12.9403125 0.46875 13.125Z" stroke-width="1"></path><path stroke="#ffffff" stroke-linecap="round" stroke-linejoin="round" d="M6.09375 13.125c0 0.37293750000000003 0.14815625000000002 0.7306250000000001 0.411875 0.994375 0.26375 0.2636875 0.6214375 0.411875 0.994375 0.411875s0.7306250000000001 -0.1481875 0.994375 -0.411875c0.2636875 -0.26375 0.411875 -0.6214375 0.411875 -0.994375s-0.1481875 -0.7306250000000001 -0.411875 -0.994375c-0.26375 -0.2636875 -0.6214375 -0.411875 -0.994375 -0.411875s-0.7306250000000001 0.1481875 -0.994375 0.411875c-0.26371875 0.26375 -0.411875 0.6214375 -0.411875 0.994375Z" stroke-width="1"></path><path stroke="#ffffff" stroke-linecap="round" stroke-linejoin="round" d="M11.71875 13.125c0 0.37293750000000003 0.1481875 0.7306250000000001 0.411875 0.994375 0.26375 0.2636875 0.6214375 0.411875 0.994375 0.411875s0.7306250000000001 -0.1481875 0.994375 -0.411875c0.2636875 -0.26375 0.411875 -0.6214375 0.411875 -0.994375s-0.1481875 -0.7306250000000001 -0.411875 -0.994375c-0.26375 -0.2636875 -0.6214375 -0.411875 -0.994375 -0.411875s-0.7306250000000001 0.1481875 -0.994375 0.411875c-0.2636875 0.26375 -0.411875 0.6214375 -0.411875 0.994375Z" stroke-width="1"></path><path stroke="#ffffff" stroke-linecap="round" stroke-linejoin="round" d="M5.625 3.75h3.75s0.9375 0 0.9375 0.9375v2.34375s0 0.9375 -0.9375 0.9375H5.625s-0.9375 0 -0.9375 -0.9375V4.6875S4.6875 3.75 5.625 3.75Z" stroke-width="1"></path><path stroke="#ffffff" stroke-linecap="round" stroke-linejoin="round" d="M7.5 11.71875v-3.75" stroke-width="1"></path><path stroke="#ffffff" stroke-linecap="round" stroke-linejoin="round" d="M1.875 11.71875v-1.875h11.25v1.875" stroke-width="1"></path><path stroke="#ffffff" stroke-linecap="round" stroke-linejoin="round" d="M5.625 3.75V2.34375c0 -0.49728125 0.19754375000000002 -0.97419375 0.549175 -1.325825C6.5258125 0.66629375 7.00275 0.46875 7.5 0.46875c0.49724999999999997 0 0.9741875 0.19754375000000002 1.3258125 0.549175C9.1774375 1.36955625 9.375 1.8464687499999999 9.375 2.34375V3.75" stroke-width="1"></path></svg>