<svg xmlns="http://www.w3.org/2000/svg" fill="none" viewBox="-0.5 -0.5 16 16" id="Lock-Shield--Streamline-Ultimate.svg" height="16" width="16"><desc>Lock Shield Streamline Icon: https://streamlinehq.com</desc><path stroke="#ffffff" stroke-linecap="round" stroke-linejoin="round" d="M9.84375 6.09375h-4.6875c-0.51776875 0 -0.9375 0.41974999999999996 -0.9375 0.9375v2.8125c0 0.51775 0.41973125 0.9375 0.9375 0.9375h4.6875c0.51775 0 0.9375 -0.41974999999999996 0.9375 -0.9375v-2.8125c0 -0.51775 -0.41974999999999996 -0.9375 -0.9375 -0.9375Z" stroke-width="1"></path><path stroke="#ffffff" d="M7.5 8.671875c-0.1294375 0 -0.234375 -0.10493749999999999 -0.234375 -0.234375s0.10493749999999999 -0.234375 0.234375 -0.234375" stroke-width="1"></path><path stroke="#ffffff" d="M7.5 8.671875c0.1294375 0 0.234375 -0.10493749999999999 0.234375 -0.234375s-0.10493749999999999 -0.234375 -0.234375 -0.234375" stroke-width="1"></path><path stroke="#ffffff" stroke-linecap="round" stroke-linejoin="round" d="M5.15625 6.09375V4.6875c0 -0.6216 0.24693125 -1.2177437500000001 0.68646875 -1.65728125C6.28225 2.59068125 6.878375 2.34375 7.5 2.34375c0.621625 0 1.2177499999999999 0.24693125 1.6573125 0.68646875C9.5968125 3.46975625 9.84375 4.0659 9.84375 4.6875v1.40625" stroke-width="1"></path><path stroke="#ffffff" stroke-linecap="round" stroke-linejoin="round" d="M7.5 14.53125C3.3274999999999997 13.418125 0.46875 10.943750000000001 0.46875 6.5625V0.46875h14.0625v6.09375c0 4.378125 -2.854375 6.854375 -7.03125 7.96875Z" stroke-width="1"></path></svg>