<svg xmlns="http://www.w3.org/2000/svg" fill="none" viewBox="-0.5 -0.5 16 16" id="Login-1--Streamline-Ultimate.svg" height="16" width="16"><desc>Login 1 Streamline Icon: https://streamlinehq.com</desc><path stroke="#ffffff" stroke-linecap="round" stroke-linejoin="round" d="M14.53125 7.5024375H4.6875" stroke-width="1"></path><path stroke="#ffffff" stroke-linecap="round" stroke-linejoin="round" d="m7.03125 9.8461875 -2.34375 -2.34375 2.34375 -2.34374375" stroke-width="1"></path><path stroke="#ffffff" stroke-linecap="round" stroke-linejoin="round" d="M9.84375 10.3125V13.125c0.0106875 0.23725 -0.0729375 0.46906249999999994 -0.23275 0.64475 -0.15975 0.1756875 -0.38256249999999997 0.2809375 -0.61975 0.29275H1.32063125c-0.23705625000000002 -0.011999999999999999 -0.4597375 -0.1173125 -0.6193625 -0.293C0.54164375 13.5938125 0.458049375 13.362125 0.46875875 13.125V1.875c-0.010875625 -0.2371625 0.072660625 -0.46897500000000003 0.2323225 -0.64468125 0.15965625 -0.1757125 0.38243125 -0.281 0.61955 -0.29281875H8.991249999999999c0.2371875 0.01181875 0.45999999999999996 0.11708750000000001 0.61975 0.29278125 0.1598125 0.1756875 0.2434375 0.40749375 0.23275 0.64471875v2.8125" stroke-width="1"></path></svg>