<svg xmlns="http://www.w3.org/2000/svg" fill="none" viewBox="-0.5 -0.5 16 16" id="Login-Key--Streamline-Ultimate.svg" height="16" width="16"><desc>Login Key Streamline Icon: https://streamlinehq.com</desc><path stroke="#ffffff" stroke-linecap="round" stroke-linejoin="round" d="M8.0125 9.06875 9.6 7.5l1.1 0.29374999999999996c0.16924999999999998 0.039625 0.3459375 0.03325 0.511875 -0.018375 0.16593750000000002 -0.0516875 0.3150625 -0.14675 0.43187499999999995 -0.275375 0.1145625 -0.12275 0.19587500000000002 -0.2726875 0.236375 -0.435625 0.040437499999999994 -0.16293749999999999 0.0386875 -0.33349999999999996 -0.005125 -0.49562500000000004l-0.29374999999999996 -1.09373125 0.5125 -0.475 1.1 0.29374999999999996c0.16924999999999998 0.0395875 0.3459375 0.033225 0.511875 -0.01841875 0.16593750000000002 -0.05165 0.3150625 -0.14670624999999998 0.43187499999999995 -0.27533124999999997 0.114625 -0.12151250000000001 0.1965 -0.27010625 0.23800000000000002 -0.43188125 0.0415625 -0.16176875000000002 0.041374999999999995 -0.33143125 -0.0005 -0.49311875l-0.29374999999999996 -1.09375c0.276 -0.2759875 0.4310625 -0.6503125 0.4310625 -1.040625 0 -0.39030624999999997 -0.1550625 -0.7646312500000001 -0.4310625 -1.040625 -0.276 -0.27598999999999996 -0.6503125 -0.43104000000000003 -1.040625 -0.43104000000000003s-0.764625 0.15505 -1.040625 0.43104000000000003L5.931268750000001 6.9875c-0.8399125000000001 -0.35675 -1.7777875 -0.41025 -2.65281875 -0.15125 -0.8750249999999999 0.259 -1.63269375 0.8143125 -2.14309375 1.5708125000000002C0.624959375 9.163499999999999 0.39362874999999997 10.074000000000002 0.48103062500000004 10.982375c0.08740187499999999 0.9083125000000001 0.488088125 1.758 1.133363125 2.40325 0.645275 0.6453125 1.49493125 1.046 2.40329375 1.133375 0.90835625 0.0874375 1.818825 -0.1439375 2.5753125 -0.6543125 0.7564375 -0.510375 1.3118125 -1.2680625 1.5708125000000002 -2.143125 0.259 -0.875 0.2055 -1.812875 -0.15131250000000002 -2.6528125000000005Z" stroke-width="1"></path><path stroke="#ffffff" stroke-linecap="round" stroke-linejoin="round" d="M2.6625062500000003 11.1500625c0 0.1559375 0.030712500000000004 0.3103125 0.09039375000000001 0.4544375 0.059675 0.1440625 0.14715 0.2749375 0.25741875000000003 0.38525 0.11026875 0.11025 0.241175 0.19775 0.38525 0.257375 0.144075 0.059687500000000004 0.29849375 0.0904375 0.4544375 0.0904375 0.15594375 0 0.3103625 -0.03075 0.4544375 -0.0904375 0.144075 -0.059625 0.27498125 -0.147125 0.38525 -0.257375 0.11026875 -0.1103125 0.19774375 -0.2411875 0.25741875000000003 -0.38525 0.059675 -0.144125 0.09039375000000001 -0.2985 0.09039375000000001 -0.4544375 0 -0.3149375 -0.1251125 -0.617 -0.34781249999999997 -0.8396874999999999 -0.2227 -0.22275 -0.52474375 -0.34781249999999997 -0.8396874999999999 -0.34781249999999997s-0.6169875 0.1250625 -0.8396874999999999 0.34781249999999997c-0.2227 0.2226875 -0.34781249999999997 0.52475 -0.34781249999999997 0.8396874999999999Z" stroke-width="1"></path></svg>