<svg xmlns="http://www.w3.org/2000/svg" fill="none" viewBox="-0.5 -0.5 16 16" id="Megaphone--Streamline-Ultimate.svg" height="16" width="16"><desc>Megaphone Streamline Icon: https://streamlinehq.com</desc><path stroke="#ffffff" stroke-linecap="round" stroke-linejoin="round" d="M4.21875 9.53125H2.8125c-0.6216 0 -1.2177437500000001 -0.2469375 -1.65728125 -0.6864375C0.7156812499999999 8.405249999999999 0.46875 7.809125 0.46875 7.1875c0 -0.621625 0.24693125 -1.2177437500000001 0.68646875 -1.65728125S2.1909 4.84375 2.8125 4.84375h1.40625v4.6875Z" stroke-width="1"></path><path stroke="#ffffff" stroke-linecap="round" stroke-linejoin="round" d="M4.21875 9.53125c2.7506874999999997 0.00025 5.439875 0.8144374999999999 7.72875 2.3400000000000003l0.70875 0.47250000000000003V2.03125l-0.70875 0.47250000000000003C9.658624999999999 4.0293375 6.9694375 4.843518749999999 4.21875 4.84375v4.6875Z" stroke-width="1"></path><path stroke="#ffffff" stroke-linecap="round" stroke-linejoin="round" d="M14.53125 6.25v1.875" stroke-width="1"></path><path stroke="#ffffff" stroke-linecap="round" stroke-linejoin="round" d="M4.21875 9.53125c-0.0004 0.6136874999999999 0.1240625 1.2210625 0.36581874999999997 1.7851875000000001 0.24175625 0.5640625 0.59574375 1.073125 1.04043125 1.4960624999999999" stroke-width="1"></path></svg>