<svg xmlns="http://www.w3.org/2000/svg" fill="none" viewBox="-0.5 -0.5 16 16" id="Move-To-Bottom--Streamline-Ultimate.svg" height="16" width="16"><desc>Move To Bottom Streamline Icon: https://streamlinehq.com</desc><path stroke="#ffffff" stroke-linecap="round" stroke-linejoin="round" d="M0.46875 0.467529375h3.75V4.21753125h-3.75V0.467529375Z" stroke-width="1"></path><path stroke="#ffffff" stroke-linecap="round" stroke-linejoin="round" d="M0.46875 6.561249999999999v-0.46871875h0.9375" stroke-width="1"></path><path stroke="#ffffff" stroke-linecap="round" stroke-linejoin="round" d="M1.40625 8.905H0.46875v-0.46875" stroke-width="1"></path><path stroke="#ffffff" stroke-linecap="round" stroke-linejoin="round" d="M4.21875 8.43625v0.46875h-0.9375" stroke-width="1"></path><path stroke="#ffffff" stroke-linecap="round" stroke-linejoin="round" d="M1.40625 14.530000000000001H0.46875v-0.9375" stroke-width="1"></path><path stroke="#ffffff" stroke-linecap="round" stroke-linejoin="round" d="M4.21875 13.592500000000001v0.9375h-0.9375" stroke-width="1"></path><path stroke="#ffffff" stroke-linecap="round" stroke-linejoin="round" d="M3.28125 6.0925312499999995h0.9375v0.46871875" stroke-width="1"></path><path stroke="#ffffff" stroke-linecap="round" stroke-linejoin="round" d="M0.46875 11.717500000000001v-0.9375h0.9375" stroke-width="1"></path><path stroke="#ffffff" stroke-linecap="round" stroke-linejoin="round" d="M3.28125 10.780000000000001h0.9375v0.9375" stroke-width="1"></path><path stroke="#ffffff" stroke-linecap="round" stroke-linejoin="round" d="m9.375 9.8425 -2.34375 2.34375 2.34375 2.34375" stroke-width="1"></path><path stroke="#ffffff" stroke-linecap="round" stroke-linejoin="round" d="M7.03125 12.1875h2.8125c1.2431875000000001 0 2.4354999999999998 -0.493875 3.3145625 -1.3729375C14.037375 9.935500000000001 14.53125 8.743187500000001 14.53125 7.5s-0.493875 -2.4354875000000002 -1.3729375 -3.3145625C12.27925 3.3063625 11.086937500000001 2.8125 9.84375 2.8125h-2.8125" stroke-width="1"></path></svg>