<svg xmlns="http://www.w3.org/2000/svg" fill="none" viewBox="-0.5 -0.5 16 16" id="Navigation-Arrows-Left-1--Streamline-Ultimate.svg" height="16" width="16"><desc>Navigation Arrows Left 1 Streamline Icon: https://streamlinehq.com</desc><path stroke="#ffffff" stroke-linecap="round" stroke-linejoin="round" d="M5.9556249999999995 8.2125c-0.10356249999999999 -0.08800000000000001 -0.18675 -0.1975 -0.2438 -0.32087499999999997 -0.057050000000000003 -0.1233125 -0.08659375 -0.257625 -0.08659375 -0.3935 0 -0.1359375 0.02954375 -0.2701875 0.08659375 -0.39356250000000004 0.057050000000000003 -0.123375 0.1402375 -0.2328125 0.2438 -0.3208125l7.03125 -6.09626875c0.136375 -0.116010625 0.3030625 -0.19055312500000002 0.4804375 -0.21481375 0.177375 -0.024260000000000004 0.358 0.00277625 0.5205 0.077913125 0.1625 0.075138125 0.30012500000000003 0.195231875 0.39649999999999996 0.346088125 0.0964375 0.15084999999999998 0.147625 0.32615625000000004 0.1475625 0.5051875V13.589374999999999c0.0000625 0.179 -0.051125 0.3543125 -0.1475625 0.5051875 -0.096375 0.1508125 -0.234 0.2709375 -0.39649999999999996 0.3460625 -0.1625 0.075125 -0.343125 0.1021875 -0.5205 0.0779375 -0.177375 -0.02425 -0.3440625 -0.0988125 -0.4804375 -0.21481250000000002L5.9556249999999995 8.2125Z" stroke-width="1"></path><path stroke="#ffffff" stroke-linecap="round" stroke-linejoin="round" d="M9.375 13.125v0.46875c0.0000625 0.179 -0.051125 0.3543125 -0.1475625 0.5051875 -0.096375 0.150875 -0.234 0.2709375 -0.39649999999999996 0.3460625 -0.1625 0.075125 -0.343125 0.1021875 -0.5205 0.0779375 -0.177375 -0.02425 -0.3440625 -0.0988125 -0.4804375 -0.21481250000000002L0.799375 8.2125c-0.10356249999999999 -0.08800000000000001 -0.1867475 -0.1975 -0.2437975 -0.32087499999999997 -0.057050000000000003 -0.1233125 -0.08659874999999999 -0.257625 -0.08659874999999999 -0.3935 0 -0.1359375 0.02954875 -0.2701875 0.08659874999999999 -0.39356250000000004 0.057050000000000003 -0.1233125 0.140235 -0.2328125 0.2437975 -0.3208125l7.03125 -6.0962625c0.1365625 -0.11595625 0.30343749999999997 -0.19037062500000002 0.48093749999999996 -0.21443500000000001 0.1775 -0.024064375000000002 0.35818750000000005 0.00322875 0.5206875 0.078648125 0.1624375 0.075418125 0.29993749999999997 0.19580562499999998 0.396125 0.346918125 0.09618750000000001 0.15111249999999998 0.1470625 0.32661875 0.146625 0.5057437499999999v0.470625" stroke-width="1"></path></svg>