<svg xmlns="http://www.w3.org/2000/svg" fill="none" viewBox="-0.5 -0.5 16 16" id="Navigation-Menu-Horizontal-1--Streamline-Ultimate.svg" height="16" width="16"><desc>Navigation Menu Horizontal 1 Streamline Icon: https://streamlinehq.com</desc><path stroke="#ffffff" stroke-miterlimit="10" d="M3.59375 6.40625c-0.216325 0 -0.4277875 0.064125 -0.60765625 0.1843125 -0.17986249999999998 0.1201875 -0.32005625000000004 0.29100000000000004 -0.4028375 0.490875 -0.08278125 0.19987499999999997 -0.10444375 0.41974999999999996 -0.0622375 0.6319375 0.0422 0.21218750000000003 0.14636875 0.4070625 0.29933125 0.56 0.15296875 0.153 0.34785625 0.2571875 0.56001875 0.299375 0.21216875 0.0421875 0.43208749999999996 0.0205 0.63194375 -0.06225 0.19985625 -0.08281250000000001 0.37067500000000003 -0.223 0.49085625 -0.402875 0.1201875 -0.17981250000000001 0.18433125 -0.3913125 0.18433125 -0.607625 0 -0.2900625 -0.11523125000000001 -0.56825 -0.32035 -0.773375 -0.20511875 -0.205125 -0.48331875 -0.32037499999999997 -0.7734000000000001 -0.32037499999999997Z" stroke-width="1"></path><path stroke="#ffffff" stroke-miterlimit="10" d="M11.40625 6.40625c-0.21631250000000002 0 -0.4278125 0.064125 -0.607625 0.1843125 -0.179875 0.1201875 -0.3200625 0.29100000000000004 -0.402875 0.490875 -0.08274999999999999 0.19987499999999997 -0.1044375 0.41974999999999996 -0.06225 0.6319375 0.042249999999999996 0.21218750000000003 0.146375 0.4070625 0.299375 0.56 0.1529375 0.153 0.34781249999999997 0.2571875 0.56 0.299375s0.4320625 0.0205 0.6319375 -0.06225c0.19987499999999997 -0.08281250000000001 0.37068749999999995 -0.223 0.490875 -0.402875 0.1201875 -0.17981250000000001 0.1843125 -0.3913125 0.1843125 -0.607625 0 -0.2900625 -0.11525 -0.56825 -0.32037499999999997 -0.773375 -0.205125 -0.205125 -0.4833125 -0.32037499999999997 -0.773375 -0.32037499999999997Z" stroke-width="1"></path><path stroke="#ffffff" stroke-miterlimit="10" d="M7.5 6.40625c-0.21631250000000002 0 -0.4278125 0.064125 -0.607625 0.1843125 -0.179875 0.1201875 -0.3200625 0.29100000000000004 -0.402875 0.490875 -0.08274999999999999 0.19987499999999997 -0.1044375 0.41974999999999996 -0.06225 0.6319375 0.042249999999999996 0.21218750000000003 0.146375 0.4070625 0.299375 0.56 0.1529375 0.153 0.34781249999999997 0.2571875 0.56 0.299375s0.4320625 0.0205 0.6319375 -0.06225c0.19987499999999997 -0.08281250000000001 0.37068749999999995 -0.223 0.490875 -0.402875 0.1201875 -0.17981250000000001 0.1843125 -0.3913125 0.1843125 -0.607625 0 -0.2900625 -0.11525 -0.56825 -0.32037499999999997 -0.773375 -0.205125 -0.205125 -0.4833125 -0.32037499999999997 -0.773375 -0.32037499999999997Z" stroke-width="1"></path><path stroke="#ffffff" stroke-linecap="round" stroke-linejoin="round" d="M0.46875 7.5c0 1.8648124999999998 0.7407874999999999 3.65325 2.05940625 4.971875C3.84676875 13.7904375 5.635193750000001 14.53125 7.5 14.53125c1.8648124999999998 0 3.65325 -0.7408125 4.971875 -2.059375 1.3185625 -1.318625 2.059375 -3.1070625 2.059375 -4.971875 0 -1.86480625 -0.7408125 -3.65323125 -2.059375 -4.97184375C11.15325 1.2095375 9.364812500000001 0.46875 7.5 0.46875c-1.86480625 0 -3.65323125 0.7407874999999999 -4.97184375 2.05940625C1.2095375 3.84676875 0.46875 5.635193750000001 0.46875 7.5Z" stroke-width="1"></path></svg>