<svg xmlns="http://www.w3.org/2000/svg" fill="none" viewBox="-0.5 -0.5 16 16" id="Navigation-Menu-1--Streamline-Ultimate.svg" height="16" width="16"><desc>Navigation Menu 1 Streamline Icon: https://streamlinehq.com</desc><path stroke="#ffffff" stroke-linecap="round" stroke-linejoin="round" d="M1.40625 0.47065750000000006h12.1875s0.9375 0 0.9375 0.9374987499999999v0.9375s0 0.9375 -0.9375 0.9375H1.40625s-0.9375 0 -0.9375 -0.9375v-0.9375S0.46875 0.47065750000000006 1.40625 0.47065750000000006Z" stroke-width="1"></path><path stroke="#ffffff" stroke-linecap="round" stroke-linejoin="round" d="M1.40625 6.09565625h12.1875s0.9375 0 0.9375 0.93753125v0.9375s0 0.9375 -0.9375 0.9375H1.40625s-0.9375 0 -0.9375 -0.9375v-0.9375s0 -0.93753125 0.9375 -0.93753125Z" stroke-width="1"></path><path stroke="#ffffff" stroke-linecap="round" stroke-linejoin="round" d="M1.40625 11.7206875h12.1875s0.9375 0 0.9375 0.9375v0.9375s0 0.9375 -0.9375 0.9375H1.40625s-0.9375 0 -0.9375 -0.9375v-0.9375s0 -0.9375 0.9375 -0.9375Z" stroke-width="1"></path></svg>