<svg xmlns="http://www.w3.org/2000/svg" fill="none" viewBox="-0.5 -0.5 16 16" id="Number-Seven-Circle--Streamline-Ultimate.svg" height="16" width="16"><desc>Number Seven Circle Streamline Icon: https://streamlinehq.com</desc><path stroke="#ffffff" stroke-linecap="round" stroke-linejoin="round" d="M6.25 5h2.5l-0.0624375 0.10406874999999999C7.910500000000001 6.3991875 7.5 7.881187499999999 7.5 9.3915V10" stroke-width="1"></path><path stroke="#ffffff" stroke-linecap="round" stroke-linejoin="round" d="M0.46875 7.5c0 1.8648124999999998 0.7407874999999999 3.65325 2.05940625 4.971875C3.84676875 13.7904375 5.635193750000001 14.53125 7.5 14.53125c1.8648124999999998 0 3.65325 -0.7408125 4.971875 -2.059375 1.3185625 -1.318625 2.059375 -3.1070625 2.059375 -4.971875 0 -1.86480625 -0.7408125 -3.65323125 -2.059375 -4.97184375C11.15325 1.2095375 9.364812500000001 0.46875 7.5 0.46875c-1.86480625 0 -3.65323125 0.7407874999999999 -4.97184375 2.05940625C1.2095375 3.84676875 0.46875 5.635193750000001 0.46875 7.5Z" stroke-width="1"></path></svg>