<svg xmlns="http://www.w3.org/2000/svg" fill="none" viewBox="-0.5 -0.5 16 16" id="Paginate-Filter-2--Streamline-Ultimate.svg" height="16" width="16"><desc>Paginate Filter 2 Streamline Icon: https://streamlinehq.com</desc><path stroke="#ffffff" stroke-linecap="round" stroke-linejoin="round" d="M3.28125 0.4662325h10.3125s0.9375 0 0.9375 0.9374987499999999V11.716249999999999s0 0.9375 -0.9375 0.9375H3.28125s-0.9375 0 -0.9375 -0.9375V1.4037312499999999s0 -0.9374987499999999 0.9375 -0.9374987499999999Z" stroke-width="1"></path><path stroke="#ffffff" stroke-linecap="round" stroke-linejoin="round" d="M12.65625 14.528749999999999h-11.25c-0.2486375 0 -0.48710000000000003 -0.0988125 -0.6629125 -0.274625C0.5675218750000001 14.078312500000001 0.46875 13.839875 0.46875 13.591249999999999V2.34123125" stroke-width="1"></path><path stroke="#ffffff" stroke-linecap="round" stroke-linejoin="round" d="M7.1875 5.14748125c0.0905625 -0.27115 0.264125 -0.5069625 0.49606249999999996 -0.67408125s0.5105625 -0.25708125 0.7964375 -0.25716875c0.36124999999999996 0.00016875 0.7076250000000001 0.14378749999999998 0.9630624999999999 0.3992875 0.255375 0.2555 0.3988125 0.6019625 0.3988125 0.9632125 -0.00037499999999999995 0.32813125 -0.1306875 0.6427499999999999 -0.3625 0.8750187500000001l-2.45 2.449375h2.8125" stroke-width="1"></path></svg>