<svg xmlns="http://www.w3.org/2000/svg" fill="none" viewBox="-0.5 -0.5 16 16" id="Paper-Write--Streamline-Ultimate.svg" height="16" width="16"><desc>Paper Write Streamline Icon: https://streamlinehq.com</desc><path stroke="#ffffff" stroke-linecap="round" stroke-linejoin="round" d="m8.15625 11.9625 -2.3249875 0.33125000000000004 0.33125000000000004 -2.29375L12.13125 4.03746875c0.2665625 -0.2484 0.6191875 -0.38363125 0.9835 -0.3772 0.3643125 0.006424999999999999 0.711875 0.1540125 0.9695624999999999 0.41166250000000004 0.257625 0.25765 0.40525 0.60524375 0.41162499999999996 0.9695624999999999 0.0064375000000000005 0.3643125 -0.12875 0.7169000000000001 -0.3771875 0.98348125L8.15625 11.9625Z" stroke-width="1"></path><path stroke="#ffffff" stroke-linecap="round" stroke-linejoin="round" d="M3.4375 0.46875h4.375s0.46875 0 0.46875 0.46875V2.5s0 0.46875 -0.46875 0.46875h-4.375s-0.46875 0 -0.46875 -0.46875V0.9375s0 -0.46875 0.46875 -0.46875Z" stroke-width="1"></path><path stroke="#ffffff" stroke-linecap="round" stroke-linejoin="round" d="M8.28125 1.71875h1.5625c0.24862499999999998 0 0.487125 0.098775 0.6629375 0.2745875s0.27456250000000004 0.414275 0.27456250000000004 0.6629125" stroke-width="1"></path><path stroke="#ffffff" stroke-linecap="round" stroke-linejoin="round" d="M10.78125 11.71875v1.875c0 0.24862499999999998 -0.09875 0.487125 -0.27456250000000004 0.6629375s-0.41431250000000003 0.27456250000000004 -0.6629375 0.27456250000000004H1.40625c-0.2486375 0 -0.48710000000000003 -0.09875 -0.6629125 -0.27456250000000004C0.5675218750000001 14.080874999999999 0.46875 13.842375 0.46875 13.59375V2.65625c0 -0.2486375 0.09877187500000001 -0.48710000000000003 0.2745875 -0.6629125 0.17581249999999998 -0.17581249999999998 0.414275 -0.2745875 0.6629125 -0.2745875h1.5625" stroke-width="1"></path><path stroke="#ffffff" stroke-linecap="round" stroke-linejoin="round" d="M3.28125 5.46875h4.375" stroke-width="1"></path><path stroke="#ffffff" stroke-linecap="round" stroke-linejoin="round" d="M3.28125 8.28125h1.5625" stroke-width="1"></path></svg>