<svg xmlns="http://www.w3.org/2000/svg" fill="none" viewBox="-0.5 -0.5 16 16" id="Pen-Write--Streamline-Ultimate.svg" height="16" width="16"><desc>Pen Write Streamline Icon: https://streamlinehq.com</desc><path stroke="#ffffff" stroke-linecap="round" stroke-linejoin="round" d="m5.30750625 7.0405625 -0.6625000000000001 2.6518750000000004 2.6512437500000003 -0.663125 3.9775 -3.9775125 -1.98875 -1.98875 -3.9774937500000003 3.9775125Z" stroke-width="1"></path><path stroke="#ffffff" stroke-linecap="round" stroke-linejoin="round" d="m13.594375000000001 2.7319312499999997 0.6625000000000001 0.6625000000000001c0.087125 0.0870625 0.15625 0.19044375 0.20337500000000003 0.304225 0.0471875 0.11378125 0.0714375 0.23573750000000002 0.0714375 0.3589 0 0.12316875 -0.02425 0.24512499999999998 -0.0714375 0.35890625000000004 -0.047125 0.11378125 -0.11624999999999999 0.21715625 -0.20337500000000003 0.30421875L12.1875 6.7894375" stroke-width="1"></path><path stroke="#ffffff" stroke-linecap="round" stroke-linejoin="round" d="m11.27375 5.0518375 2.320625 -2.3200000000000003c0.17575000000000002 -0.17581249999999998 0.27449999999999997 -0.414225 0.27449999999999997 -0.6628125 0 -0.24859375 -0.09875 -0.48700625 -0.27449999999999997 -0.6628125l-0.663125 -0.663125c-0.17581249999999998 -0.17575687499999998 -0.4141875 -0.27449 -0.6628125 -0.27449 -0.2485625 0 -0.487 0.098733125 -0.6628125 0.27449l-2.320625 2.319375" stroke-width="1"></path><path stroke="#ffffff" stroke-linecap="round" stroke-linejoin="round" d="M11.71875 8.90625v4.6875c0 0.24862499999999998 -0.09875 0.487125 -0.27456250000000004 0.6629375s-0.41431250000000003 0.27456250000000004 -0.6629375 0.27456250000000004h-9.375c-0.2486375 0 -0.48710000000000003 -0.09875 -0.6629125 -0.27456250000000004C0.5675218750000001 14.080874999999999 0.46875 13.842375 0.46875 13.59375v-9.375c0 -0.2486375 0.09877187500000001 -0.48710000000000003 0.2745875 -0.6629125 0.17581249999999998 -0.17581249999999998 0.414275 -0.2745875 0.6629125 -0.2745875h4.6875" stroke-width="1"></path></svg>