<svg xmlns="http://www.w3.org/2000/svg" fill="none" viewBox="-0.5 -0.5 16 16" id="Pencil-1--Streamline-Ultimate.svg" height="16" width="16"><desc>Pencil 1 Streamline Icon: https://streamlinehq.com</desc><path stroke="#ffffff" stroke-linecap="round" stroke-linejoin="round" d="M13.86875 1.1312625c-0.212875 -0.21197500000000002 -0.4655625 -0.379675 -0.743625 -0.49340625 -0.2780625 -0.113730625 -0.575875 -0.17124062499999998 -0.87625 -0.169206875 -0.300375 0.002034375 -0.597375 0.063571875 -0.8738750000000001 0.18105687499999998 -0.2764375 0.11748750000000001 -0.5269375 0.28859375 -0.7368750000000001 0.50343125L1.575625 10.215625 0.46875 14.53125l4.315625 -1.106875 9.0625 -9.0624875c0.21481250000000002 -0.20995625 0.38593750000000004 -0.46040625 0.5034375 -0.7368812499999999 0.1175 -0.27646875000000004 0.179 -0.5734750000000001 0.18106250000000002 -0.87386875 0.002 -0.30039375 -0.0555 -0.59820625 -0.1691875 -0.87624375 -0.11374999999999999 -0.2780375 -0.2814375 -0.53078125 -0.4934375 -0.74363125Z" stroke-width="1"></path><path stroke="#ffffff" stroke-linecap="round" stroke-linejoin="round" d="m10.37875 1.4125062499999999 3.20875 3.20875" stroke-width="1"></path><path stroke="#ffffff" stroke-linecap="round" stroke-linejoin="round" d="m9.07 2.72125 3.20875 3.20875" stroke-width="1"></path><path stroke="#ffffff" stroke-linecap="round" stroke-linejoin="round" d="m1.575625 10.215625 3.211875 3.2056249999999995" stroke-width="1"></path></svg>