<svg xmlns="http://www.w3.org/2000/svg" fill="none" viewBox="-0.5 -0.5 16 16" id="Pin-2--Streamline-Ultimate.svg" height="16" width="16"><desc>Pin 2 Streamline Icon: https://streamlinehq.com</desc><path stroke="#ffffff" stroke-linecap="round" stroke-linejoin="round" d="M7.03125 4.2181375c0 0.9945625 0.3950625 1.9483937500000001 1.098375 2.651675 0.7032499999999999 0.7032499999999999 1.6570624999999999 1.0983125 2.651625 1.0983125 0.9945625 0 1.948375 -0.3950625 2.651625 -1.0983125C14.136187499999998 6.16653125 14.53125 5.2127 14.53125 4.2181375s-0.3950625 -1.9483875 -1.098375 -2.65165C12.729625 0.8632249999999999 11.7758125 0.468139375 10.78125 0.468139375c-0.9945625 0 -1.948375 0.395085625 -2.651625 1.098348125C7.4263125 2.26975 7.03125 3.2235750000000003 7.03125 4.2181375Z" stroke-width="1"></path><path stroke="#ffffff" stroke-linecap="round" stroke-linejoin="round" d="M8.90625 4.6875125c-0.0000625 -0.3078375 0.0605 -0.6126750000000001 0.17825000000000002 -0.89710625 0.11775000000000001 -0.284425 0.290375 -0.542875 0.508 -0.760575 0.217625 -0.21770625 0.47606250000000006 -0.39039999999999997 0.7604374999999999 -0.508225 0.284375 -0.117825 0.5892499999999999 -0.17846875 0.8970625 -0.17846875" stroke-width="1"></path><path stroke="#ffffff" stroke-linecap="round" stroke-linejoin="round" d="m0.46875 14.530624999999999 7.661249999999999 -7.661249999999999" stroke-width="1"></path></svg>