<svg xmlns="http://www.w3.org/2000/svg" fill="none" viewBox="-0.5 -0.5 16 16" id="Print-Text--Streamline-Ultimate.svg" height="16" width="16"><desc>Print Text Streamline Icon: https://streamlinehq.com</desc><path stroke="#ffffff" stroke-linecap="round" stroke-linejoin="round" d="M3.28125 10.780624999999999h-1.875c-0.2486375 0 -0.48710000000000003 -0.09875 -0.6629125 -0.27456250000000004C0.5675218750000001 10.330250000000001 0.46875 10.09175 0.46875 9.843125V5.1556375c0 -0.2486375 0.09877187500000001 -0.48709375 0.2745875 -0.6629125 0.17581249999999998 -0.17581249999999998 0.414275 -0.2745875 0.6629125 -0.2745875h12.1875c0.24862499999999998 0 0.487125 0.098775 0.6629375 0.2745875 0.17581249999999998 0.17581875 0.27456250000000004 0.414275 0.27456250000000004 0.6629125V9.843125c0 0.24862499999999998 -0.09875 0.487125 -0.27456250000000004 0.6629375s-0.41431250000000003 0.27456250000000004 -0.6629375 0.27456250000000004h-1.875" stroke-width="1"></path><path stroke="#ffffff" stroke-linecap="round" stroke-linejoin="round" d="M2.34375 6.0931375h0.9375" stroke-width="1"></path><path stroke="#ffffff" stroke-linecap="round" stroke-linejoin="round" d="M3.28125 7.968125000000001h8.4375v6.5625H3.28125v-6.5625Z" stroke-width="1"></path><path stroke="#ffffff" stroke-linecap="round" stroke-linejoin="round" d="M11.71875 4.2181375H3.28125v-2.8125c0 -0.2486375 0.098775 -0.48709375 0.2745875 -0.6629125C3.73165 0.566911875 3.9701125 0.468139375 4.21875 0.468139375h6.5625c0.24862499999999998 0 0.487125 0.09877250000000001 0.6629375 0.274585625 0.17581249999999998 0.17581875 0.27456250000000004 0.414275 0.27456250000000004 0.6629125v2.8125Z" stroke-width="1"></path><path stroke="#ffffff" stroke-linecap="round" stroke-linejoin="round" d="M5.15625 9.843125h4.6875" stroke-width="1"></path><path stroke="#ffffff" stroke-linecap="round" stroke-linejoin="round" d="M5.15625 11.718124999999999h3.28125" stroke-width="1"></path></svg>