<svg xmlns="http://www.w3.org/2000/svg" fill="none" viewBox="-0.5 -0.5 16 16" id="Radioactive-Circle--Streamline-Ultimate.svg" height="16" width="16"><desc>Radioactive Circle Streamline Icon: https://streamlinehq.com</desc><path stroke="#ffffff" d="M7.499687499999999 7.734375c-0.1294375 0 -0.234375 -0.10493749999999999 -0.234375 -0.234375s0.10493749999999999 -0.234375 0.234375 -0.234375" stroke-width="1"></path><path stroke="#ffffff" d="M7.499687499999999 7.734375c0.1294375 0 0.234375 -0.10493749999999999 0.234375 -0.234375s-0.10493749999999999 -0.234375 -0.234375 -0.234375" stroke-width="1"></path><path stroke="#ffffff" stroke-linecap="round" stroke-linejoin="round" d="M7.5 14.53125c3.88325 0 7.03125 -3.148 7.03125 -7.03125S11.38325 0.46875 7.5 0.46875 0.46875 3.61675 0.46875 7.5 3.61675 14.53125 7.5 14.53125Z" stroke-width="1"></path><path stroke="#ffffff" stroke-linecap="round" stroke-linejoin="round" d="m6.445625000000001 5.6737375 -1.524375 -2.639375c-0.78393125 0.45245625 -1.434875 1.1033875 -1.88734375 1.8873125C2.5814375 5.70559375 2.3434 6.594875 2.34375 7.5h3.046875c-0.00013125000000000002 -0.37025 0.09731875 -0.7340625000000001 0.28253125 -1.054625 0.18521875 -0.3206375 0.45165 -0.58678125 0.77246875 -0.7716375Z" stroke-width="1"></path><path stroke="#ffffff" stroke-linecap="round" stroke-linejoin="round" d="m6.445625000000001 9.326875 -1.5243625 2.639375c0.7838437500000001 0.452875 1.673175 0.6913750000000001 2.5784249999999997 0.6913750000000001 0.9053125 0 1.794625 -0.2385 2.5784374999999997 -0.6913750000000001l-1.5237500000000002 -2.6387500000000004c-0.32056250000000003 0.1850625 -0.68425 0.28250000000000003 -1.0544375000000001 0.282375 -0.3701875 -0.000125 -0.7338125 -0.0976875 -1.0543125 -0.283Z" stroke-width="1"></path><path stroke="#ffffff" stroke-linecap="round" stroke-linejoin="round" d="M9.609375 7.5h3.0475000000000003c0.000125 -0.9051874999999999 -0.238125 -1.7943875 -0.6908749999999999 -2.5782 -0.4526875 -0.78381875 -1.1038125 -1.43458125 -1.887875 -1.886825l-1.5237500000000002 2.638125c0.3206875 0.18515 0.587 0.45144375000000003 0.7721875 0.7721500000000001 0.1851875 0.320625 0.28275 0.6844375 0.2828125 1.05475Z" stroke-width="1"></path></svg>