<svg xmlns="http://www.w3.org/2000/svg" fill="none" viewBox="-0.5 -0.5 16 16" id="Reflect-Down--Streamline-Ultimate.svg" height="16" width="16"><desc>Reflect Down Streamline Icon: https://streamlinehq.com</desc><path stroke="#ffffff" stroke-linecap="round" stroke-linejoin="round" d="m4.35625625 10.643125 -3.0875000000000004 3.086875c-0.0655125 0.0655625 -0.1101 0.149125 -0.12813125 0.2400625 -0.0180375 0.09093749999999999 -0.0087 0.185125 0.02681875 0.27075 0.035525 0.085625 0.09563749999999999 0.1588125 0.17274375000000003 0.2103125 0.07710625 0.0514375 0.1677375 0.078875 0.26044375000000003 0.078875H7.774375c0.09268749999999999 0 0.1833125 -0.0274375 0.2604375 -0.078875 0.077125 -0.051500000000000004 0.13724999999999998 -0.1246875 0.17275 -0.2103125 0.035500000000000004 -0.085625 0.044875 -0.17981250000000001 0.0268125 -0.27075 -0.018 -0.09093749999999999 -0.062625 -0.1745 -0.128125 -0.2400625l-3.08749375 -3.086875c-0.043481250000000006 -0.0435625 -0.0951125 -0.078125 -0.15195 -0.10168750000000001 -0.05684375 -0.0235625 -0.11776874999999999 -0.0356875 -0.17930000000000001 -0.0356875 -0.061531249999999996 0 -0.12245624999999999 0.012125 -0.17930000000000001 0.0356875 -0.0568375 0.0235625 -0.10847499999999999 0.058124999999999996 -0.15195 0.10168750000000001Z" stroke-width="1"></path><path stroke="#ffffff" stroke-linecap="round" stroke-linejoin="round" d="m4.3562625 4.35503125 -3.0875000000000004 -3.086875c-0.06541875 -0.06567500000000001 -0.10992500000000001 -0.14925625 -0.12790625 -0.24019374999999998 -0.0179875 -0.09093749999999999 -0.00864375 -0.1851625 0.02685625 -0.27079375 0.03549375 -0.08563124999999999 0.09555625 -0.15883874999999997 0.1726 -0.21038375 0.07704375000000001 -0.051545625000000005 0.16763125 -0.07912312499999999 0.26033125 -0.079255625H7.774375c0.09268749999999999 0.0001325 0.1833125 0.02771 0.2603125 0.079255625 0.0770625 0.051545 0.137125 0.1247525 0.172625 0.21038375 0.035500000000000004 0.08563124999999999 0.044875 0.17985625000000002 0.026874999999999996 0.27079375 -0.018 0.09093749999999999 -0.0625 0.17451875 -0.12793749999999998 0.24019374999999998l-3.0874875 3.086875c-0.043475 0.0435375 -0.0951125 0.07808125 -0.15195 0.10164375 -0.0568375 0.02356875 -0.11776874999999999 0.035699999999999996 -0.17930000000000001 0.035699999999999996 -0.061531249999999996 0 -0.12245624999999999 -0.01213125 -0.17929375 -0.035699999999999996 -0.0568375 -0.0235625 -0.10847499999999999 -0.05810625 -0.15195625000000001 -0.10164375Z" stroke-width="1"></path><path stroke="#ffffff" stroke-linecap="round" stroke-linejoin="round" d="M0.46875 7.498749999999999h8.4375" stroke-width="1"></path><path stroke="#ffffff" stroke-linecap="round" stroke-linejoin="round" d="m14.0625 13.1236875 -3.2856249999999996 -0.435625 0.435625 -3.2856249999999996" stroke-width="1"></path><path stroke="#ffffff" stroke-linecap="round" stroke-linejoin="round" d="M10.78125 2.9062624999999995c1.0585625 0.21608125 2.0100000000000002 0.79119375 2.6933125 1.62805 0.6833125 0.83685 1.0566250000000001 1.8840625 1.0566875 2.9644375 -0.02675 1.1431875 -0.4000625 2.2513125 -1.0705 3.177625 -0.6703749999999999 0.9263125 -1.6063125 1.62725 -2.683875 2.009875" stroke-width="1"></path></svg>