<svg xmlns="http://www.w3.org/2000/svg" fill="none" viewBox="-0.5 -0.5 16 16" id="Remove-Bold--Streamline-Ultimate.svg" height="16" width="16"><desc>Remove Bold Streamline Icon: https://streamlinehq.com</desc><path stroke="#ffffff" stroke-linecap="round" stroke-linejoin="round" d="M9.889375000000001 1.12815625 7.5 3.51753125l-2.38935625 -2.389375c-0.20924374999999998 -0.2093875 -0.45769375 -0.3754875 -0.7311562500000001 -0.48881874999999997C4.106025 0.5260125 3.8129125000000004 0.467681875 3.5168937500000004 0.467681875c-0.2960125 0 -0.58913125 0.058330625 -0.86259375 0.17165562499999998 -0.2734625 0.11333125 -0.5219125 0.27943125 -0.7311562500000001 0.48881874999999997l-0.7943749999999999 0.79625c-0.20975625 0.20903125 -0.37619375 0.45741875 -0.48975625 0.7309062500000001 -0.11356 0.27349375 -0.1720175 0.5667125 -0.1720175 0.8628437499999999 0 0.29613125 0.0584575 0.58935 0.1720175 0.8628437499999999 0.1135625 0.2734875 0.28 0.521875 0.48975625 0.7309062500000001l2.389375 2.38815625 -2.389375 2.38875c-0.20975625 0.209 -0.37619375 0.457375 -0.48975625 0.7308749999999999 -0.11356 0.27349999999999997 -0.1720175 0.5666875 -0.1720175 0.8628750000000001 0 0.29612499999999997 0.0584575 0.5893125 0.1720175 0.8628125 0.1135625 0.27349999999999997 0.28 0.521875 0.48975625 0.7309375l0.79625 0.795c0.20924374999999998 0.209375 0.45769375 0.3754375 0.7311562500000001 0.4888125 0.2734625 0.1133125 0.5665812499999999 0.171625 0.86259375 0.171625 0.29601875 0 0.58913125 -0.058312499999999996 0.86259375 -0.171625 0.2734625 -0.113375 0.5219125 -0.2794375 0.7311562500000001 -0.4888125L7.5 11.481937499999999l2.389375 2.389375c0.20925 0.209375 0.45768749999999997 0.3754375 0.7311875 0.4888125 0.2734375 0.1133125 0.5665625 0.171625 0.8625625000000001 0.171625 0.2960625 0 0.589125 -0.058312499999999996 0.8626250000000001 -0.171625 0.2734375 -0.113375 0.521875 -0.2794375 0.731125 -0.4888125l0.79625 -0.79625c0.20975 -0.2090625 0.3761875 -0.4574375 0.48974999999999996 -0.7309375 0.1135625 -0.27349999999999997 0.1720625 -0.5666875 0.1720625 -0.8628125 0 -0.2961875 -0.0585 -0.589375 -0.1720625 -0.8628750000000001 -0.1135625 -0.27349999999999997 -0.28 -0.521875 -0.48974999999999996 -0.7308749999999999l-2.390625 -2.3874999999999997 2.38875 -2.3900312500000003c0.20975 -0.20903125 0.3761875 -0.45741875 0.48974999999999996 -0.7309062500000001 0.1135625 -0.27349375 0.1720625 -0.5667125 0.1720625 -0.8628437499999999 0 -0.29613125 -0.0585 -0.58935 -0.1720625 -0.8628437499999999 -0.1135625 -0.2734875 -0.28 -0.521875 -0.48974999999999996 -0.7309062500000001l-0.79625 -0.7943749999999999c-0.42250000000000004 -0.42230625 -0.9954375 -0.6595368749999999 -1.5928125000000002 -0.6595368749999999 -0.597375 0 -1.1703125 0.237230625 -1.5928125000000002 0.6595368749999999Z" stroke-width="1"></path></svg>