<svg xmlns="http://www.w3.org/2000/svg" fill="none" viewBox="-0.5 -0.5 16 16" id="Rss-Feed--Streamline-Ultimate.svg" height="16" width="16"><desc>Rss Feed Streamline Icon: https://streamlinehq.com</desc><path stroke="#ffffff" stroke-linecap="round" stroke-linejoin="round" d="M0.46810125 12.1885c0 0.621375 0.24683 1.21725 0.68618625 1.656625 0.43935625 0.43937499999999996 1.03525625 0.6861875000000001 1.6566 0.6861875000000001 0.62134375 0 1.2172375 -0.2468125 1.6565937499999999 -0.6861875000000001 0.43936250000000004 -0.43937499999999996 0.6861875000000001 -1.03525 0.6861875000000001 -1.656625 0 -0.6213124999999999 -0.246825 -1.21725 -0.6861875000000001 -1.6565625000000002 -0.43935625 -0.43937499999999996 -1.03525 -0.6861875000000001 -1.6565937499999999 -0.6861875000000001 -0.62134375 0 -1.21724375 0.2468125 -1.6566 0.6861875000000001 -0.43935625 0.4393125 -0.68618625 1.03525 -0.68618625 1.6565625000000002Z" stroke-width="1"></path><path stroke="#ffffff" stroke-linecap="round" stroke-linejoin="round" d="M0.46810125 5.5330375C1.722125 5.101018750000001 3.0723125000000002 5.03009375 4.36469375 5.3283499999999995c1.29238125 0.2982625 2.47493125 0.9537125000000001 3.41280625 1.8915875 0.937875 0.937875 1.5933125000000001 2.1204375 1.8915625 3.4128125 0.29825 1.292375 0.227375 2.6425625000000004 -0.20468750000000002 3.8965625" stroke-width="1"></path><path stroke="#ffffff" stroke-linecap="round" stroke-linejoin="round" d="M0.46810125 0.70309375C2.365525 0.31803625 4.32875 0.40859812500000003 6.1826687499999995 0.9667000000000001c1.85389375 0.5581 3.54089375 1.5663874999999998 4.91039375 2.93491875 1.3695 1.3685375 2.379 3.0547562499999996 2.9385 4.90825625 0.5594375 1.8535 0.651375 3.8166875 0.2676875 5.714375" stroke-width="1"></path></svg>