<svg xmlns="http://www.w3.org/2000/svg" fill="none" viewBox="-0.5 -0.5 16 16" id="Satellite--Streamline-Ultimate.svg" height="16" width="16"><desc>Satellite Streamline Icon: https://streamlinehq.com</desc><path stroke="#ffffff" stroke-linecap="round" stroke-linejoin="round" d="M12.848125 9.03125c-2.9312500000000004 2.931 -7.936275 1.5896875 -9.008962499999999 -2.414375 -0.4978125 -1.85831875 0.0335 -3.8410062499999995 1.3939375 -5.20131875L12.848125 9.03125Z" stroke-width="1"></path><path stroke="#ffffff" stroke-linecap="round" stroke-linejoin="round" d="M13.1946875 3.1465125c-0.799375 0.799375 -2.164375 0.43363125 -2.4569375 -0.6583062500000001 -0.292625 -1.092 0.7066250000000001 -2.0912531249999997 1.7986250000000001 -1.7986312500000001 0.249 0.06675 0.47600000000000003 0.1978125 0.6583125 0.38006249999999997 0.573875 0.573375 0.573875 1.5035625 0 2.076875Z" stroke-width="1"></path><path stroke="#ffffff" stroke-linecap="round" stroke-linejoin="round" d="m11.1178125 3.1465125 -2.076875 2.076875" stroke-width="1"></path><path stroke="#ffffff" stroke-linecap="round" stroke-linejoin="round" d="m1.3749687499999999 14.3605 2.7694375 -2.76875c0.3823125 -0.3821875 1.002 -0.3821875 1.384375 0l2.76940625 2.76875" stroke-width="1"></path></svg>